<mxfile host="app.diagrams.net" agent="Mozilla/5.0 (Windows NT 10.0; Win64; x64) AppleWebKit/537.36 (KHTML, like Gecko) Chrome/135.0.0.0 Safari/537.36" version="26.2.12" pages="2">
  <diagram name="Wireframe Moaqa" id="UHvaIqQlXVD2R-aEWYVP">
    <mxGraphModel dx="2194" dy="1735" grid="1" gridSize="10" guides="1" tooltips="1" connect="1" arrows="1" fold="1" page="0" pageScale="1" pageWidth="850" pageHeight="1100" math="0" shadow="0">
      <root>
        <mxCell id="0" />
        <mxCell id="1" parent="0" />
        <mxCell id="rJ09bXh6NYC6wMTabAv8-7" value="&lt;h1 style=&quot;margin-top: 0px;&quot;&gt;&lt;span style=&quot;background-color: transparent; color: light-dark(rgb(0, 0, 0), rgb(255, 255, 255));&quot;&gt;MOAQA Project&amp;nbsp;&lt;/span&gt;&lt;/h1&gt;&lt;h1 style=&quot;margin-top: 0px;&quot;&gt;&lt;span style=&quot;background-color: transparent; color: light-dark(rgb(0, 0, 0), rgb(255, 255, 255)); font-size: 12px; font-weight: normal;&quot;&gt;This project will have CRM, HRMS, Job Portal, Job Board, and Project Management&amp;nbsp;&lt;/span&gt;&lt;/h1&gt;" style="text;html=1;whiteSpace=wrap;overflow=hidden;rounded=0;" parent="1" vertex="1">
          <mxGeometry x="-1120" y="-640" width="190" height="160" as="geometry" />
        </mxCell>
        <mxCell id="rJ09bXh6NYC6wMTabAv8-8" value="MOAQA Super Admin" style="rounded=1;whiteSpace=wrap;html=1;" parent="1" vertex="1">
          <mxGeometry x="-740" y="-640" width="220" height="80" as="geometry" />
        </mxCell>
        <mxCell id="lxkWE_nYF12pFrZx-rZn-28" style="edgeStyle=orthogonalEdgeStyle;rounded=0;orthogonalLoop=1;jettySize=auto;html=1;exitX=1;exitY=0.5;exitDx=0;exitDy=0;entryX=0;entryY=0.5;entryDx=0;entryDy=0;" edge="1" parent="1" source="rJ09bXh6NYC6wMTabAv8-9" target="lxkWE_nYF12pFrZx-rZn-1">
          <mxGeometry relative="1" as="geometry">
            <Array as="points">
              <mxPoint x="-500" y="-500" />
              <mxPoint x="-500" y="720" />
              <mxPoint x="-320" y="720" />
            </Array>
          </mxGeometry>
        </mxCell>
        <mxCell id="rJ09bXh6NYC6wMTabAv8-9" value="CRM" style="rounded=1;whiteSpace=wrap;html=1;fillColor=light-dark(#FFFFFF,#006600);" parent="1" vertex="1">
          <mxGeometry x="-690" y="-520" width="120" height="40" as="geometry" />
        </mxCell>
        <mxCell id="rJ09bXh6NYC6wMTabAv8-11" value="HRMS" style="rounded=1;whiteSpace=wrap;html=1;" parent="1" vertex="1">
          <mxGeometry x="-690" y="-440" width="120" height="40" as="geometry" />
        </mxCell>
        <mxCell id="rJ09bXh6NYC6wMTabAv8-12" value="Job Portal" style="rounded=1;whiteSpace=wrap;html=1;" parent="1" vertex="1">
          <mxGeometry x="-690" y="-360" width="120" height="40" as="geometry" />
        </mxCell>
        <mxCell id="rJ09bXh6NYC6wMTabAv8-13" value="Job Board" style="rounded=1;whiteSpace=wrap;html=1;" parent="1" vertex="1">
          <mxGeometry x="-690" y="-280" width="120" height="40" as="geometry" />
        </mxCell>
        <mxCell id="rJ09bXh6NYC6wMTabAv8-14" value="Project Management" style="rounded=1;whiteSpace=wrap;html=1;" parent="1" vertex="1">
          <mxGeometry x="-690" y="-200" width="120" height="40" as="geometry" />
        </mxCell>
        <mxCell id="rJ09bXh6NYC6wMTabAv8-18" value="" style="endArrow=none;html=1;rounded=0;entryX=0;entryY=0.75;entryDx=0;entryDy=0;" parent="1" target="rJ09bXh6NYC6wMTabAv8-8" edge="1">
          <mxGeometry width="50" height="50" relative="1" as="geometry">
            <mxPoint x="-740" y="-120" as="sourcePoint" />
            <mxPoint x="-740" y="-540" as="targetPoint" />
            <Array as="points">
              <mxPoint x="-740" y="-110" />
            </Array>
          </mxGeometry>
        </mxCell>
        <mxCell id="rJ09bXh6NYC6wMTabAv8-19" value="" style="endArrow=classic;html=1;rounded=0;" parent="1" edge="1">
          <mxGeometry width="50" height="50" relative="1" as="geometry">
            <mxPoint x="-740" y="-440" as="sourcePoint" />
            <mxPoint x="-690" y="-490" as="targetPoint" />
          </mxGeometry>
        </mxCell>
        <mxCell id="rJ09bXh6NYC6wMTabAv8-20" value="" style="endArrow=classic;html=1;rounded=0;" parent="1" edge="1">
          <mxGeometry width="50" height="50" relative="1" as="geometry">
            <mxPoint x="-740" y="-360" as="sourcePoint" />
            <mxPoint x="-690" y="-410" as="targetPoint" />
          </mxGeometry>
        </mxCell>
        <mxCell id="rJ09bXh6NYC6wMTabAv8-21" value="" style="endArrow=classic;html=1;rounded=0;" parent="1" edge="1">
          <mxGeometry width="50" height="50" relative="1" as="geometry">
            <mxPoint x="-740" y="-270" as="sourcePoint" />
            <mxPoint x="-690" y="-320" as="targetPoint" />
          </mxGeometry>
        </mxCell>
        <mxCell id="rJ09bXh6NYC6wMTabAv8-22" value="" style="endArrow=classic;html=1;rounded=0;" parent="1" edge="1">
          <mxGeometry width="50" height="50" relative="1" as="geometry">
            <mxPoint x="-740" y="-190" as="sourcePoint" />
            <mxPoint x="-690" y="-240" as="targetPoint" />
          </mxGeometry>
        </mxCell>
        <mxCell id="rJ09bXh6NYC6wMTabAv8-23" value="" style="endArrow=classic;html=1;rounded=0;" parent="1" edge="1">
          <mxGeometry width="50" height="50" relative="1" as="geometry">
            <mxPoint x="-740" y="-110" as="sourcePoint" />
            <mxPoint x="-690" y="-160" as="targetPoint" />
          </mxGeometry>
        </mxCell>
        <mxCell id="rJ09bXh6NYC6wMTabAv8-24" value="Unique User Link" style="swimlane;fontStyle=0;childLayout=stackLayout;horizontal=1;startSize=30;horizontalStack=0;resizeParent=1;resizeParentMax=0;resizeLast=0;collapsible=1;marginBottom=0;whiteSpace=wrap;html=1;" parent="1" vertex="1">
          <mxGeometry x="-480" y="-640" width="120" height="80" as="geometry" />
        </mxCell>
        <mxCell id="rJ09bXh6NYC6wMTabAv8-25" value="User&amp;nbsp;" style="text;strokeColor=none;fillColor=none;align=left;verticalAlign=middle;spacingLeft=4;spacingRight=4;overflow=hidden;points=[[0,0.5],[1,0.5]];portConstraint=eastwest;rotatable=0;whiteSpace=wrap;html=1;" parent="rJ09bXh6NYC6wMTabAv8-24" vertex="1">
          <mxGeometry y="30" width="120" height="30" as="geometry" />
        </mxCell>
        <mxCell id="rJ09bXh6NYC6wMTabAv8-26" value="Password" style="text;strokeColor=none;fillColor=none;align=left;verticalAlign=middle;spacingLeft=4;spacingRight=4;overflow=hidden;points=[[0,0.5],[1,0.5]];portConstraint=eastwest;rotatable=0;whiteSpace=wrap;html=1;" parent="rJ09bXh6NYC6wMTabAv8-24" vertex="1">
          <mxGeometry y="60" width="120" height="20" as="geometry" />
        </mxCell>
        <mxCell id="rJ09bXh6NYC6wMTabAv8-28" value="" style="endArrow=classic;html=1;rounded=0;exitX=1;exitY=0.75;exitDx=0;exitDy=0;" parent="1" source="rJ09bXh6NYC6wMTabAv8-8" edge="1">
          <mxGeometry width="50" height="50" relative="1" as="geometry">
            <mxPoint x="-490" y="-575" as="sourcePoint" />
            <mxPoint x="-480" y="-580" as="targetPoint" />
          </mxGeometry>
        </mxCell>
        <mxCell id="rJ09bXh6NYC6wMTabAv8-35" value="N" style="swimlane;startSize=0;" parent="1" vertex="1">
          <mxGeometry x="-310" y="-80" width="590" height="480" as="geometry">
            <mxRectangle x="-320" y="-640" width="50" height="40" as="alternateBounds" />
          </mxGeometry>
        </mxCell>
        <mxCell id="rJ09bXh6NYC6wMTabAv8-36" value="MOAQA" style="rounded=1;whiteSpace=wrap;html=1;" parent="rJ09bXh6NYC6wMTabAv8-35" vertex="1">
          <mxGeometry width="90" height="40" as="geometry" />
        </mxCell>
        <mxCell id="rJ09bXh6NYC6wMTabAv8-46" value="Enterprise Name" style="rounded=1;whiteSpace=wrap;html=1;" parent="rJ09bXh6NYC6wMTabAv8-35" vertex="1">
          <mxGeometry x="100" width="320" height="40" as="geometry" />
        </mxCell>
        <mxCell id="rJ09bXh6NYC6wMTabAv8-47" value="" style="ellipse;shape=doubleEllipse;whiteSpace=wrap;html=1;aspect=fixed;" parent="rJ09bXh6NYC6wMTabAv8-35" vertex="1">
          <mxGeometry x="540" y="10" width="40" height="40" as="geometry" />
        </mxCell>
        <mxCell id="rJ09bXh6NYC6wMTabAv8-48" value="Dashboard" style="rounded=1;whiteSpace=wrap;html=1;fillColor=light-dark(#FFFFFF,#336600);" parent="rJ09bXh6NYC6wMTabAv8-35" vertex="1">
          <mxGeometry y="50" width="90" height="30" as="geometry" />
        </mxCell>
        <mxCell id="rJ09bXh6NYC6wMTabAv8-54" value="Products" style="rounded=1;whiteSpace=wrap;html=1;" parent="rJ09bXh6NYC6wMTabAv8-35" vertex="1">
          <mxGeometry y="90" width="90" height="30" as="geometry" />
        </mxCell>
        <mxCell id="rJ09bXh6NYC6wMTabAv8-55" value="Services" style="rounded=1;whiteSpace=wrap;html=1;" parent="rJ09bXh6NYC6wMTabAv8-35" vertex="1">
          <mxGeometry y="130" width="90" height="30" as="geometry" />
        </mxCell>
        <mxCell id="rJ09bXh6NYC6wMTabAv8-56" value="Profile" style="rounded=1;whiteSpace=wrap;html=1;" parent="rJ09bXh6NYC6wMTabAv8-35" vertex="1">
          <mxGeometry y="170" width="90" height="30" as="geometry" />
        </mxCell>
        <mxCell id="rJ09bXh6NYC6wMTabAv8-57" value="Quotations" style="rounded=1;whiteSpace=wrap;html=1;" parent="rJ09bXh6NYC6wMTabAv8-35" vertex="1">
          <mxGeometry y="210" width="90" height="30" as="geometry" />
        </mxCell>
        <mxCell id="rJ09bXh6NYC6wMTabAv8-58" value="Invoices" style="rounded=1;whiteSpace=wrap;html=1;" parent="rJ09bXh6NYC6wMTabAv8-35" vertex="1">
          <mxGeometry y="250" width="90" height="30" as="geometry" />
        </mxCell>
        <mxCell id="rJ09bXh6NYC6wMTabAv8-59" value="Reports" style="rounded=1;whiteSpace=wrap;html=1;" parent="rJ09bXh6NYC6wMTabAv8-35" vertex="1">
          <mxGeometry y="290" width="90" height="30" as="geometry" />
        </mxCell>
        <mxCell id="rJ09bXh6NYC6wMTabAv8-73" value="Create Ticket" style="rounded=1;whiteSpace=wrap;html=1;" parent="rJ09bXh6NYC6wMTabAv8-35" vertex="1">
          <mxGeometry y="330" width="90" height="30" as="geometry" />
        </mxCell>
        <mxCell id="lvwvD485uQR9sfOQSoXQ-19" value="CRM" style="rounded=1;whiteSpace=wrap;html=1;" parent="rJ09bXh6NYC6wMTabAv8-35" vertex="1">
          <mxGeometry x="100" y="50" width="80" height="30" as="geometry" />
        </mxCell>
        <mxCell id="lvwvD485uQR9sfOQSoXQ-35" value="HRMS" style="rounded=1;whiteSpace=wrap;html=1;" parent="rJ09bXh6NYC6wMTabAv8-35" vertex="1">
          <mxGeometry x="190" y="50" width="80" height="30" as="geometry" />
        </mxCell>
        <mxCell id="lvwvD485uQR9sfOQSoXQ-36" value="Job Portal" style="rounded=1;whiteSpace=wrap;html=1;" parent="rJ09bXh6NYC6wMTabAv8-35" vertex="1">
          <mxGeometry x="280" y="50" width="80" height="30" as="geometry" />
        </mxCell>
        <mxCell id="lvwvD485uQR9sfOQSoXQ-37" value="Job Board" style="rounded=1;whiteSpace=wrap;html=1;" parent="rJ09bXh6NYC6wMTabAv8-35" vertex="1">
          <mxGeometry x="370" y="50" width="80" height="30" as="geometry" />
        </mxCell>
        <mxCell id="lvwvD485uQR9sfOQSoXQ-38" value="Project Management" style="rounded=1;whiteSpace=wrap;html=1;" parent="rJ09bXh6NYC6wMTabAv8-35" vertex="1">
          <mxGeometry x="460" y="50" width="80" height="30" as="geometry" />
        </mxCell>
        <mxCell id="xeaUYaUfG0aIDbgO8eIN-1" value="Notifications" style="rounded=1;whiteSpace=wrap;html=1;" parent="rJ09bXh6NYC6wMTabAv8-35" vertex="1">
          <mxGeometry x="450" y="100" width="120" height="310" as="geometry" />
        </mxCell>
        <mxCell id="xeaUYaUfG0aIDbgO8eIN-2" value="Products" style="rounded=1;whiteSpace=wrap;html=1;" parent="rJ09bXh6NYC6wMTabAv8-35" vertex="1">
          <mxGeometry x="110" y="100" width="120" height="60" as="geometry" />
        </mxCell>
        <mxCell id="xeaUYaUfG0aIDbgO8eIN-3" value="Services" style="rounded=1;whiteSpace=wrap;html=1;" parent="rJ09bXh6NYC6wMTabAv8-35" vertex="1">
          <mxGeometry x="250" y="100" width="120" height="60" as="geometry" />
        </mxCell>
        <mxCell id="xeaUYaUfG0aIDbgO8eIN-4" value="Quotations" style="rounded=1;whiteSpace=wrap;html=1;" parent="rJ09bXh6NYC6wMTabAv8-35" vertex="1">
          <mxGeometry x="110" y="170" width="120" height="60" as="geometry" />
        </mxCell>
        <mxCell id="xeaUYaUfG0aIDbgO8eIN-6" value="Invoices" style="rounded=1;whiteSpace=wrap;html=1;" parent="rJ09bXh6NYC6wMTabAv8-35" vertex="1">
          <mxGeometry x="250" y="170" width="120" height="60" as="geometry" />
        </mxCell>
        <mxCell id="xeaUYaUfG0aIDbgO8eIN-7" value="Reports and Analytics" style="rounded=1;whiteSpace=wrap;html=1;" parent="rJ09bXh6NYC6wMTabAv8-35" vertex="1">
          <mxGeometry x="110" y="245" width="120" height="60" as="geometry" />
        </mxCell>
        <mxCell id="xeaUYaUfG0aIDbgO8eIN-8" value="Complains/Help" style="rounded=1;whiteSpace=wrap;html=1;" parent="rJ09bXh6NYC6wMTabAv8-35" vertex="1">
          <mxGeometry x="250" y="245" width="120" height="60" as="geometry" />
        </mxCell>
        <mxCell id="xeaUYaUfG0aIDbgO8eIN-9" value="" style="html=1;verticalLabelPosition=bottom;align=center;labelBackgroundColor=#ffffff;verticalAlign=top;strokeWidth=2;strokeColor=#0080F0;shadow=0;dashed=0;shape=mxgraph.ios7.icons.bell;" parent="rJ09bXh6NYC6wMTabAv8-35" vertex="1">
          <mxGeometry x="510" y="16.899999999999977" width="24" height="23.099999999999998" as="geometry" />
        </mxCell>
        <mxCell id="xeaUYaUfG0aIDbgO8eIN-189" value="Add Users" style="rounded=1;whiteSpace=wrap;html=1;" parent="rJ09bXh6NYC6wMTabAv8-35" vertex="1">
          <mxGeometry y="370" width="90" height="30" as="geometry" />
        </mxCell>
        <mxCell id="lxkWE_nYF12pFrZx-rZn-29" value="Settings" style="rounded=1;whiteSpace=wrap;html=1;" vertex="1" parent="rJ09bXh6NYC6wMTabAv8-35">
          <mxGeometry y="410" width="90" height="30" as="geometry" />
        </mxCell>
        <mxCell id="rJ09bXh6NYC6wMTabAv8-102" value="s" style="swimlane;startSize=0;fillColor=light-dark(#FFFFFF,#006600);" parent="1" vertex="1">
          <mxGeometry x="40" y="-640" width="310" height="520" as="geometry">
            <mxRectangle x="-320" y="-640" width="50" height="40" as="alternateBounds" />
          </mxGeometry>
        </mxCell>
        <mxCell id="rJ09bXh6NYC6wMTabAv8-103" value="MOAQA" style="rounded=1;whiteSpace=wrap;html=1;" parent="rJ09bXh6NYC6wMTabAv8-102" vertex="1">
          <mxGeometry width="90" height="40" as="geometry" />
        </mxCell>
        <mxCell id="rJ09bXh6NYC6wMTabAv8-104" value="Products" style="rounded=1;whiteSpace=wrap;html=1;" parent="rJ09bXh6NYC6wMTabAv8-102" vertex="1">
          <mxGeometry x="100" width="150" height="40" as="geometry" />
        </mxCell>
        <mxCell id="rJ09bXh6NYC6wMTabAv8-105" value="" style="ellipse;shape=doubleEllipse;whiteSpace=wrap;html=1;aspect=fixed;" parent="rJ09bXh6NYC6wMTabAv8-102" vertex="1">
          <mxGeometry x="260" width="40" height="40" as="geometry" />
        </mxCell>
        <mxCell id="rJ09bXh6NYC6wMTabAv8-106" value="Dashboard" style="rounded=1;whiteSpace=wrap;html=1;fillColor=light-dark(#FFFFFF,transparent);strokeColor=light-dark(#000000,#660000);" parent="rJ09bXh6NYC6wMTabAv8-102" vertex="1">
          <mxGeometry y="50" width="90" height="30" as="geometry" />
        </mxCell>
        <mxCell id="rJ09bXh6NYC6wMTabAv8-107" value="Products" style="rounded=1;whiteSpace=wrap;html=1;fillColor=light-dark(#FFFFFF,#006600);" parent="rJ09bXh6NYC6wMTabAv8-102" vertex="1">
          <mxGeometry y="90" width="90" height="30" as="geometry" />
        </mxCell>
        <mxCell id="rJ09bXh6NYC6wMTabAv8-108" value="Services" style="rounded=1;whiteSpace=wrap;html=1;" parent="rJ09bXh6NYC6wMTabAv8-102" vertex="1">
          <mxGeometry y="130" width="90" height="30" as="geometry" />
        </mxCell>
        <mxCell id="rJ09bXh6NYC6wMTabAv8-109" value="Enterprise" style="rounded=1;whiteSpace=wrap;html=1;" parent="rJ09bXh6NYC6wMTabAv8-102" vertex="1">
          <mxGeometry y="170" width="90" height="30" as="geometry" />
        </mxCell>
        <mxCell id="rJ09bXh6NYC6wMTabAv8-110" value="Quotations" style="rounded=1;whiteSpace=wrap;html=1;" parent="rJ09bXh6NYC6wMTabAv8-102" vertex="1">
          <mxGeometry y="210" width="90" height="30" as="geometry" />
        </mxCell>
        <mxCell id="rJ09bXh6NYC6wMTabAv8-111" value="Invoices" style="rounded=1;whiteSpace=wrap;html=1;" parent="rJ09bXh6NYC6wMTabAv8-102" vertex="1">
          <mxGeometry y="250" width="90" height="30" as="geometry" />
        </mxCell>
        <mxCell id="rJ09bXh6NYC6wMTabAv8-112" value="Reports" style="rounded=1;whiteSpace=wrap;html=1;" parent="rJ09bXh6NYC6wMTabAv8-102" vertex="1">
          <mxGeometry y="290" width="90" height="30" as="geometry" />
        </mxCell>
        <mxCell id="rJ09bXh6NYC6wMTabAv8-113" value="Expenses" style="rounded=1;whiteSpace=wrap;html=1;" parent="rJ09bXh6NYC6wMTabAv8-102" vertex="1">
          <mxGeometry y="330" width="90" height="30" as="geometry" />
        </mxCell>
        <mxCell id="rJ09bXh6NYC6wMTabAv8-114" value="Receipts" style="rounded=1;whiteSpace=wrap;html=1;" parent="rJ09bXh6NYC6wMTabAv8-102" vertex="1">
          <mxGeometry y="370" width="90" height="30" as="geometry" />
        </mxCell>
        <mxCell id="rJ09bXh6NYC6wMTabAv8-115" value="Complaints" style="rounded=1;whiteSpace=wrap;html=1;" parent="rJ09bXh6NYC6wMTabAv8-102" vertex="1">
          <mxGeometry y="410" width="90" height="30" as="geometry" />
        </mxCell>
        <mxCell id="rJ09bXh6NYC6wMTabAv8-281" value="" style="line;strokeWidth=2;html=1;" parent="rJ09bXh6NYC6wMTabAv8-102" vertex="1">
          <mxGeometry x="100" y="80" width="200" height="10" as="geometry" />
        </mxCell>
        <mxCell id="rJ09bXh6NYC6wMTabAv8-282" value="&lt;font style=&quot;font-size: 6px;&quot;&gt;Sr. #&amp;nbsp; Products&amp;nbsp; Enterprises Edit&lt;/font&gt;" style="shape=ext;double=1;rounded=1;whiteSpace=wrap;html=1;" parent="rJ09bXh6NYC6wMTabAv8-102" vertex="1">
          <mxGeometry x="100" y="60" width="200" height="20" as="geometry" />
        </mxCell>
        <mxCell id="rJ09bXh6NYC6wMTabAv8-116" value="" style="swimlane;startSize=0;" parent="1" vertex="1">
          <mxGeometry x="390" y="-640" width="310" height="520" as="geometry">
            <mxRectangle x="-320" y="-640" width="50" height="40" as="alternateBounds" />
          </mxGeometry>
        </mxCell>
        <mxCell id="rJ09bXh6NYC6wMTabAv8-117" value="MOAQA" style="rounded=1;whiteSpace=wrap;html=1;" parent="rJ09bXh6NYC6wMTabAv8-116" vertex="1">
          <mxGeometry width="90" height="40" as="geometry" />
        </mxCell>
        <mxCell id="rJ09bXh6NYC6wMTabAv8-118" value="Services" style="rounded=1;whiteSpace=wrap;html=1;" parent="rJ09bXh6NYC6wMTabAv8-116" vertex="1">
          <mxGeometry x="100" width="150" height="40" as="geometry" />
        </mxCell>
        <mxCell id="rJ09bXh6NYC6wMTabAv8-119" value="" style="ellipse;shape=doubleEllipse;whiteSpace=wrap;html=1;aspect=fixed;" parent="rJ09bXh6NYC6wMTabAv8-116" vertex="1">
          <mxGeometry x="260" width="40" height="40" as="geometry" />
        </mxCell>
        <mxCell id="rJ09bXh6NYC6wMTabAv8-120" value="Dashboard" style="rounded=1;whiteSpace=wrap;html=1;fillColor=light-dark(#FFFFFF,transparent);strokeColor=light-dark(#000000,#660000);" parent="rJ09bXh6NYC6wMTabAv8-116" vertex="1">
          <mxGeometry y="50" width="90" height="30" as="geometry" />
        </mxCell>
        <mxCell id="rJ09bXh6NYC6wMTabAv8-121" value="Products" style="rounded=1;whiteSpace=wrap;html=1;fillColor=default;" parent="rJ09bXh6NYC6wMTabAv8-116" vertex="1">
          <mxGeometry y="90" width="90" height="30" as="geometry" />
        </mxCell>
        <mxCell id="rJ09bXh6NYC6wMTabAv8-122" value="Services" style="rounded=1;whiteSpace=wrap;html=1;fillColor=light-dark(#FFFFFF,#006600);" parent="rJ09bXh6NYC6wMTabAv8-116" vertex="1">
          <mxGeometry y="130" width="90" height="30" as="geometry" />
        </mxCell>
        <mxCell id="rJ09bXh6NYC6wMTabAv8-123" value="Enterprise" style="rounded=1;whiteSpace=wrap;html=1;" parent="rJ09bXh6NYC6wMTabAv8-116" vertex="1">
          <mxGeometry y="170" width="90" height="30" as="geometry" />
        </mxCell>
        <mxCell id="rJ09bXh6NYC6wMTabAv8-124" value="Quotations" style="rounded=1;whiteSpace=wrap;html=1;" parent="rJ09bXh6NYC6wMTabAv8-116" vertex="1">
          <mxGeometry y="210" width="90" height="30" as="geometry" />
        </mxCell>
        <mxCell id="rJ09bXh6NYC6wMTabAv8-125" value="Invoices" style="rounded=1;whiteSpace=wrap;html=1;" parent="rJ09bXh6NYC6wMTabAv8-116" vertex="1">
          <mxGeometry y="250" width="90" height="30" as="geometry" />
        </mxCell>
        <mxCell id="rJ09bXh6NYC6wMTabAv8-126" value="Reports" style="rounded=1;whiteSpace=wrap;html=1;" parent="rJ09bXh6NYC6wMTabAv8-116" vertex="1">
          <mxGeometry y="290" width="90" height="30" as="geometry" />
        </mxCell>
        <mxCell id="rJ09bXh6NYC6wMTabAv8-127" value="Expenses" style="rounded=1;whiteSpace=wrap;html=1;" parent="rJ09bXh6NYC6wMTabAv8-116" vertex="1">
          <mxGeometry y="330" width="90" height="30" as="geometry" />
        </mxCell>
        <mxCell id="rJ09bXh6NYC6wMTabAv8-128" value="Receipts" style="rounded=1;whiteSpace=wrap;html=1;" parent="rJ09bXh6NYC6wMTabAv8-116" vertex="1">
          <mxGeometry y="370" width="90" height="30" as="geometry" />
        </mxCell>
        <mxCell id="rJ09bXh6NYC6wMTabAv8-129" value="Complaints" style="rounded=1;whiteSpace=wrap;html=1;" parent="rJ09bXh6NYC6wMTabAv8-116" vertex="1">
          <mxGeometry y="410" width="90" height="30" as="geometry" />
        </mxCell>
        <mxCell id="rJ09bXh6NYC6wMTabAv8-130" value="" style="swimlane;startSize=0;" parent="1" vertex="1">
          <mxGeometry x="750" y="-640" width="310" height="510" as="geometry">
            <mxRectangle x="-320" y="-640" width="50" height="40" as="alternateBounds" />
          </mxGeometry>
        </mxCell>
        <mxCell id="rJ09bXh6NYC6wMTabAv8-131" value="MOAQA" style="rounded=1;whiteSpace=wrap;html=1;" parent="rJ09bXh6NYC6wMTabAv8-130" vertex="1">
          <mxGeometry width="90" height="40" as="geometry" />
        </mxCell>
        <mxCell id="rJ09bXh6NYC6wMTabAv8-132" value="Enterprises" style="rounded=1;whiteSpace=wrap;html=1;" parent="rJ09bXh6NYC6wMTabAv8-130" vertex="1">
          <mxGeometry x="100" width="150" height="40" as="geometry" />
        </mxCell>
        <mxCell id="rJ09bXh6NYC6wMTabAv8-133" value="" style="ellipse;shape=doubleEllipse;whiteSpace=wrap;html=1;aspect=fixed;" parent="rJ09bXh6NYC6wMTabAv8-130" vertex="1">
          <mxGeometry x="260" width="40" height="40" as="geometry" />
        </mxCell>
        <mxCell id="rJ09bXh6NYC6wMTabAv8-134" value="Dashboard" style="rounded=1;whiteSpace=wrap;html=1;fillColor=light-dark(#FFFFFF,transparent);strokeColor=light-dark(#000000,#660000);" parent="rJ09bXh6NYC6wMTabAv8-130" vertex="1">
          <mxGeometry y="50" width="90" height="30" as="geometry" />
        </mxCell>
        <mxCell id="rJ09bXh6NYC6wMTabAv8-135" value="Products" style="rounded=1;whiteSpace=wrap;html=1;fillColor=default;" parent="rJ09bXh6NYC6wMTabAv8-130" vertex="1">
          <mxGeometry y="90" width="90" height="30" as="geometry" />
        </mxCell>
        <mxCell id="rJ09bXh6NYC6wMTabAv8-136" value="Services" style="rounded=1;whiteSpace=wrap;html=1;" parent="rJ09bXh6NYC6wMTabAv8-130" vertex="1">
          <mxGeometry y="130" width="90" height="30" as="geometry" />
        </mxCell>
        <mxCell id="rJ09bXh6NYC6wMTabAv8-137" value="Enterprise" style="rounded=1;whiteSpace=wrap;html=1;fillColor=light-dark(#FFFFFF,#006600);" parent="rJ09bXh6NYC6wMTabAv8-130" vertex="1">
          <mxGeometry y="170" width="90" height="30" as="geometry" />
        </mxCell>
        <mxCell id="rJ09bXh6NYC6wMTabAv8-138" value="Quotations" style="rounded=1;whiteSpace=wrap;html=1;" parent="rJ09bXh6NYC6wMTabAv8-130" vertex="1">
          <mxGeometry y="210" width="90" height="30" as="geometry" />
        </mxCell>
        <mxCell id="rJ09bXh6NYC6wMTabAv8-139" value="Invoices" style="rounded=1;whiteSpace=wrap;html=1;" parent="rJ09bXh6NYC6wMTabAv8-130" vertex="1">
          <mxGeometry y="250" width="90" height="30" as="geometry" />
        </mxCell>
        <mxCell id="rJ09bXh6NYC6wMTabAv8-140" value="Reports" style="rounded=1;whiteSpace=wrap;html=1;" parent="rJ09bXh6NYC6wMTabAv8-130" vertex="1">
          <mxGeometry y="290" width="90" height="30" as="geometry" />
        </mxCell>
        <mxCell id="rJ09bXh6NYC6wMTabAv8-141" value="Expenses" style="rounded=1;whiteSpace=wrap;html=1;" parent="rJ09bXh6NYC6wMTabAv8-130" vertex="1">
          <mxGeometry y="330" width="90" height="30" as="geometry" />
        </mxCell>
        <mxCell id="rJ09bXh6NYC6wMTabAv8-142" value="Receipts" style="rounded=1;whiteSpace=wrap;html=1;" parent="rJ09bXh6NYC6wMTabAv8-130" vertex="1">
          <mxGeometry y="370" width="90" height="30" as="geometry" />
        </mxCell>
        <mxCell id="rJ09bXh6NYC6wMTabAv8-143" value="Complaints" style="rounded=1;whiteSpace=wrap;html=1;" parent="rJ09bXh6NYC6wMTabAv8-130" vertex="1">
          <mxGeometry y="410" width="90" height="30" as="geometry" />
        </mxCell>
        <mxCell id="rJ09bXh6NYC6wMTabAv8-144" value="" style="swimlane;startSize=0;" parent="1" vertex="1">
          <mxGeometry x="1120" y="-640" width="310" height="510" as="geometry">
            <mxRectangle x="-320" y="-640" width="50" height="40" as="alternateBounds" />
          </mxGeometry>
        </mxCell>
        <mxCell id="rJ09bXh6NYC6wMTabAv8-145" value="MOAQA" style="rounded=1;whiteSpace=wrap;html=1;" parent="rJ09bXh6NYC6wMTabAv8-144" vertex="1">
          <mxGeometry width="90" height="40" as="geometry" />
        </mxCell>
        <mxCell id="rJ09bXh6NYC6wMTabAv8-146" value="Quotations" style="rounded=1;whiteSpace=wrap;html=1;" parent="rJ09bXh6NYC6wMTabAv8-144" vertex="1">
          <mxGeometry x="100" width="150" height="40" as="geometry" />
        </mxCell>
        <mxCell id="rJ09bXh6NYC6wMTabAv8-147" value="" style="ellipse;shape=doubleEllipse;whiteSpace=wrap;html=1;aspect=fixed;" parent="rJ09bXh6NYC6wMTabAv8-144" vertex="1">
          <mxGeometry x="260" width="40" height="40" as="geometry" />
        </mxCell>
        <mxCell id="rJ09bXh6NYC6wMTabAv8-148" value="Dashboard" style="rounded=1;whiteSpace=wrap;html=1;fillColor=light-dark(#FFFFFF,transparent);strokeColor=light-dark(#000000,#660000);" parent="rJ09bXh6NYC6wMTabAv8-144" vertex="1">
          <mxGeometry y="50" width="90" height="30" as="geometry" />
        </mxCell>
        <mxCell id="rJ09bXh6NYC6wMTabAv8-149" value="Products" style="rounded=1;whiteSpace=wrap;html=1;fillColor=default;" parent="rJ09bXh6NYC6wMTabAv8-144" vertex="1">
          <mxGeometry y="90" width="90" height="30" as="geometry" />
        </mxCell>
        <mxCell id="rJ09bXh6NYC6wMTabAv8-150" value="Services" style="rounded=1;whiteSpace=wrap;html=1;" parent="rJ09bXh6NYC6wMTabAv8-144" vertex="1">
          <mxGeometry y="130" width="90" height="30" as="geometry" />
        </mxCell>
        <mxCell id="rJ09bXh6NYC6wMTabAv8-151" value="Enterprise" style="rounded=1;whiteSpace=wrap;html=1;" parent="rJ09bXh6NYC6wMTabAv8-144" vertex="1">
          <mxGeometry y="170" width="90" height="30" as="geometry" />
        </mxCell>
        <mxCell id="rJ09bXh6NYC6wMTabAv8-152" value="Quotations" style="rounded=1;whiteSpace=wrap;html=1;fillColor=light-dark(#FFFFFF,#006600);" parent="rJ09bXh6NYC6wMTabAv8-144" vertex="1">
          <mxGeometry y="210" width="90" height="30" as="geometry" />
        </mxCell>
        <mxCell id="rJ09bXh6NYC6wMTabAv8-153" value="Invoices" style="rounded=1;whiteSpace=wrap;html=1;" parent="rJ09bXh6NYC6wMTabAv8-144" vertex="1">
          <mxGeometry y="250" width="90" height="30" as="geometry" />
        </mxCell>
        <mxCell id="rJ09bXh6NYC6wMTabAv8-154" value="Reports" style="rounded=1;whiteSpace=wrap;html=1;" parent="rJ09bXh6NYC6wMTabAv8-144" vertex="1">
          <mxGeometry y="290" width="90" height="30" as="geometry" />
        </mxCell>
        <mxCell id="rJ09bXh6NYC6wMTabAv8-155" value="Expenses" style="rounded=1;whiteSpace=wrap;html=1;" parent="rJ09bXh6NYC6wMTabAv8-144" vertex="1">
          <mxGeometry y="330" width="90" height="30" as="geometry" />
        </mxCell>
        <mxCell id="rJ09bXh6NYC6wMTabAv8-156" value="Receipts" style="rounded=1;whiteSpace=wrap;html=1;" parent="rJ09bXh6NYC6wMTabAv8-144" vertex="1">
          <mxGeometry y="370" width="90" height="30" as="geometry" />
        </mxCell>
        <mxCell id="rJ09bXh6NYC6wMTabAv8-157" value="Complaints" style="rounded=1;whiteSpace=wrap;html=1;" parent="rJ09bXh6NYC6wMTabAv8-144" vertex="1">
          <mxGeometry y="410" width="90" height="30" as="geometry" />
        </mxCell>
        <mxCell id="rJ09bXh6NYC6wMTabAv8-158" value="" style="swimlane;startSize=0;" parent="1" vertex="1">
          <mxGeometry x="1490" y="-640" width="310" height="510" as="geometry">
            <mxRectangle x="-320" y="-640" width="50" height="40" as="alternateBounds" />
          </mxGeometry>
        </mxCell>
        <mxCell id="rJ09bXh6NYC6wMTabAv8-159" value="MOAQA" style="rounded=1;whiteSpace=wrap;html=1;" parent="rJ09bXh6NYC6wMTabAv8-158" vertex="1">
          <mxGeometry width="90" height="40" as="geometry" />
        </mxCell>
        <mxCell id="rJ09bXh6NYC6wMTabAv8-160" value="Invoices" style="rounded=1;whiteSpace=wrap;html=1;" parent="rJ09bXh6NYC6wMTabAv8-158" vertex="1">
          <mxGeometry x="100" width="150" height="40" as="geometry" />
        </mxCell>
        <mxCell id="rJ09bXh6NYC6wMTabAv8-161" value="" style="ellipse;shape=doubleEllipse;whiteSpace=wrap;html=1;aspect=fixed;" parent="rJ09bXh6NYC6wMTabAv8-158" vertex="1">
          <mxGeometry x="260" width="40" height="40" as="geometry" />
        </mxCell>
        <mxCell id="rJ09bXh6NYC6wMTabAv8-162" value="Dashboard" style="rounded=1;whiteSpace=wrap;html=1;fillColor=light-dark(#FFFFFF,transparent);strokeColor=light-dark(#000000,#660000);" parent="rJ09bXh6NYC6wMTabAv8-158" vertex="1">
          <mxGeometry y="50" width="90" height="30" as="geometry" />
        </mxCell>
        <mxCell id="rJ09bXh6NYC6wMTabAv8-163" value="Products" style="rounded=1;whiteSpace=wrap;html=1;fillColor=default;" parent="rJ09bXh6NYC6wMTabAv8-158" vertex="1">
          <mxGeometry y="90" width="90" height="30" as="geometry" />
        </mxCell>
        <mxCell id="rJ09bXh6NYC6wMTabAv8-164" value="Services" style="rounded=1;whiteSpace=wrap;html=1;" parent="rJ09bXh6NYC6wMTabAv8-158" vertex="1">
          <mxGeometry y="130" width="90" height="30" as="geometry" />
        </mxCell>
        <mxCell id="rJ09bXh6NYC6wMTabAv8-165" value="Enterprise" style="rounded=1;whiteSpace=wrap;html=1;" parent="rJ09bXh6NYC6wMTabAv8-158" vertex="1">
          <mxGeometry y="170" width="90" height="30" as="geometry" />
        </mxCell>
        <mxCell id="rJ09bXh6NYC6wMTabAv8-166" value="Quotations" style="rounded=1;whiteSpace=wrap;html=1;" parent="rJ09bXh6NYC6wMTabAv8-158" vertex="1">
          <mxGeometry y="210" width="90" height="30" as="geometry" />
        </mxCell>
        <mxCell id="rJ09bXh6NYC6wMTabAv8-167" value="Invoices" style="rounded=1;whiteSpace=wrap;html=1;fillColor=light-dark(#FFFFFF,#006600);" parent="rJ09bXh6NYC6wMTabAv8-158" vertex="1">
          <mxGeometry y="250" width="90" height="30" as="geometry" />
        </mxCell>
        <mxCell id="rJ09bXh6NYC6wMTabAv8-168" value="Reports" style="rounded=1;whiteSpace=wrap;html=1;" parent="rJ09bXh6NYC6wMTabAv8-158" vertex="1">
          <mxGeometry y="290" width="90" height="30" as="geometry" />
        </mxCell>
        <mxCell id="rJ09bXh6NYC6wMTabAv8-169" value="Expenses" style="rounded=1;whiteSpace=wrap;html=1;" parent="rJ09bXh6NYC6wMTabAv8-158" vertex="1">
          <mxGeometry y="330" width="90" height="30" as="geometry" />
        </mxCell>
        <mxCell id="rJ09bXh6NYC6wMTabAv8-170" value="Receipts" style="rounded=1;whiteSpace=wrap;html=1;" parent="rJ09bXh6NYC6wMTabAv8-158" vertex="1">
          <mxGeometry y="370" width="90" height="30" as="geometry" />
        </mxCell>
        <mxCell id="rJ09bXh6NYC6wMTabAv8-171" value="Complaints" style="rounded=1;whiteSpace=wrap;html=1;" parent="rJ09bXh6NYC6wMTabAv8-158" vertex="1">
          <mxGeometry y="410" width="90" height="30" as="geometry" />
        </mxCell>
        <mxCell id="rJ09bXh6NYC6wMTabAv8-172" value="" style="swimlane;startSize=0;" parent="1" vertex="1">
          <mxGeometry x="1850" y="-640" width="310" height="510" as="geometry">
            <mxRectangle x="-320" y="-640" width="50" height="40" as="alternateBounds" />
          </mxGeometry>
        </mxCell>
        <mxCell id="rJ09bXh6NYC6wMTabAv8-173" value="MOAQA" style="rounded=1;whiteSpace=wrap;html=1;" parent="rJ09bXh6NYC6wMTabAv8-172" vertex="1">
          <mxGeometry width="90" height="40" as="geometry" />
        </mxCell>
        <mxCell id="rJ09bXh6NYC6wMTabAv8-174" value="Reports" style="rounded=1;whiteSpace=wrap;html=1;" parent="rJ09bXh6NYC6wMTabAv8-172" vertex="1">
          <mxGeometry x="100" width="150" height="40" as="geometry" />
        </mxCell>
        <mxCell id="rJ09bXh6NYC6wMTabAv8-175" value="" style="ellipse;shape=doubleEllipse;whiteSpace=wrap;html=1;aspect=fixed;" parent="rJ09bXh6NYC6wMTabAv8-172" vertex="1">
          <mxGeometry x="260" width="40" height="40" as="geometry" />
        </mxCell>
        <mxCell id="rJ09bXh6NYC6wMTabAv8-176" value="Dashboard" style="rounded=1;whiteSpace=wrap;html=1;fillColor=light-dark(#FFFFFF,transparent);strokeColor=light-dark(#000000,#660000);" parent="rJ09bXh6NYC6wMTabAv8-172" vertex="1">
          <mxGeometry y="50" width="90" height="30" as="geometry" />
        </mxCell>
        <mxCell id="rJ09bXh6NYC6wMTabAv8-177" value="Products" style="rounded=1;whiteSpace=wrap;html=1;fillColor=default;" parent="rJ09bXh6NYC6wMTabAv8-172" vertex="1">
          <mxGeometry y="90" width="90" height="30" as="geometry" />
        </mxCell>
        <mxCell id="rJ09bXh6NYC6wMTabAv8-178" value="Services" style="rounded=1;whiteSpace=wrap;html=1;" parent="rJ09bXh6NYC6wMTabAv8-172" vertex="1">
          <mxGeometry y="130" width="90" height="30" as="geometry" />
        </mxCell>
        <mxCell id="rJ09bXh6NYC6wMTabAv8-179" value="Enterprise" style="rounded=1;whiteSpace=wrap;html=1;" parent="rJ09bXh6NYC6wMTabAv8-172" vertex="1">
          <mxGeometry y="170" width="90" height="30" as="geometry" />
        </mxCell>
        <mxCell id="rJ09bXh6NYC6wMTabAv8-180" value="Quotations" style="rounded=1;whiteSpace=wrap;html=1;" parent="rJ09bXh6NYC6wMTabAv8-172" vertex="1">
          <mxGeometry y="210" width="90" height="30" as="geometry" />
        </mxCell>
        <mxCell id="rJ09bXh6NYC6wMTabAv8-181" value="Invoices" style="rounded=1;whiteSpace=wrap;html=1;" parent="rJ09bXh6NYC6wMTabAv8-172" vertex="1">
          <mxGeometry y="250" width="90" height="30" as="geometry" />
        </mxCell>
        <mxCell id="rJ09bXh6NYC6wMTabAv8-182" value="Reports" style="rounded=1;whiteSpace=wrap;html=1;fillColor=light-dark(#FFFFFF,#006600);" parent="rJ09bXh6NYC6wMTabAv8-172" vertex="1">
          <mxGeometry y="290" width="90" height="30" as="geometry" />
        </mxCell>
        <mxCell id="rJ09bXh6NYC6wMTabAv8-183" value="Expenses" style="rounded=1;whiteSpace=wrap;html=1;" parent="rJ09bXh6NYC6wMTabAv8-172" vertex="1">
          <mxGeometry y="330" width="90" height="30" as="geometry" />
        </mxCell>
        <mxCell id="rJ09bXh6NYC6wMTabAv8-184" value="Receipts" style="rounded=1;whiteSpace=wrap;html=1;" parent="rJ09bXh6NYC6wMTabAv8-172" vertex="1">
          <mxGeometry y="370" width="90" height="30" as="geometry" />
        </mxCell>
        <mxCell id="rJ09bXh6NYC6wMTabAv8-185" value="Complaints" style="rounded=1;whiteSpace=wrap;html=1;" parent="rJ09bXh6NYC6wMTabAv8-172" vertex="1">
          <mxGeometry y="410" width="90" height="30" as="geometry" />
        </mxCell>
        <mxCell id="rJ09bXh6NYC6wMTabAv8-186" value="" style="swimlane;startSize=0;" parent="1" vertex="1">
          <mxGeometry x="2200" y="-640" width="310" height="510" as="geometry">
            <mxRectangle x="-320" y="-640" width="50" height="40" as="alternateBounds" />
          </mxGeometry>
        </mxCell>
        <mxCell id="rJ09bXh6NYC6wMTabAv8-187" value="MOAQA" style="rounded=1;whiteSpace=wrap;html=1;" parent="rJ09bXh6NYC6wMTabAv8-186" vertex="1">
          <mxGeometry width="90" height="40" as="geometry" />
        </mxCell>
        <mxCell id="rJ09bXh6NYC6wMTabAv8-188" value="Super Admin Dashboard" style="rounded=1;whiteSpace=wrap;html=1;" parent="rJ09bXh6NYC6wMTabAv8-186" vertex="1">
          <mxGeometry x="100" width="150" height="40" as="geometry" />
        </mxCell>
        <mxCell id="rJ09bXh6NYC6wMTabAv8-189" value="" style="ellipse;shape=doubleEllipse;whiteSpace=wrap;html=1;aspect=fixed;" parent="rJ09bXh6NYC6wMTabAv8-186" vertex="1">
          <mxGeometry x="260" width="40" height="40" as="geometry" />
        </mxCell>
        <mxCell id="rJ09bXh6NYC6wMTabAv8-190" value="Dashboard" style="rounded=1;whiteSpace=wrap;html=1;fillColor=light-dark(#FFFFFF,transparent);strokeColor=light-dark(#000000,#660000);" parent="rJ09bXh6NYC6wMTabAv8-186" vertex="1">
          <mxGeometry y="50" width="90" height="30" as="geometry" />
        </mxCell>
        <mxCell id="rJ09bXh6NYC6wMTabAv8-191" value="Products" style="rounded=1;whiteSpace=wrap;html=1;fillColor=default;" parent="rJ09bXh6NYC6wMTabAv8-186" vertex="1">
          <mxGeometry y="90" width="90" height="30" as="geometry" />
        </mxCell>
        <mxCell id="rJ09bXh6NYC6wMTabAv8-192" value="Services" style="rounded=1;whiteSpace=wrap;html=1;" parent="rJ09bXh6NYC6wMTabAv8-186" vertex="1">
          <mxGeometry y="130" width="90" height="30" as="geometry" />
        </mxCell>
        <mxCell id="rJ09bXh6NYC6wMTabAv8-193" value="Enterprise" style="rounded=1;whiteSpace=wrap;html=1;" parent="rJ09bXh6NYC6wMTabAv8-186" vertex="1">
          <mxGeometry y="170" width="90" height="30" as="geometry" />
        </mxCell>
        <mxCell id="rJ09bXh6NYC6wMTabAv8-194" value="Quotations" style="rounded=1;whiteSpace=wrap;html=1;" parent="rJ09bXh6NYC6wMTabAv8-186" vertex="1">
          <mxGeometry y="210" width="90" height="30" as="geometry" />
        </mxCell>
        <mxCell id="rJ09bXh6NYC6wMTabAv8-195" value="Invoices" style="rounded=1;whiteSpace=wrap;html=1;" parent="rJ09bXh6NYC6wMTabAv8-186" vertex="1">
          <mxGeometry y="250" width="90" height="30" as="geometry" />
        </mxCell>
        <mxCell id="rJ09bXh6NYC6wMTabAv8-196" value="Reports" style="rounded=1;whiteSpace=wrap;html=1;" parent="rJ09bXh6NYC6wMTabAv8-186" vertex="1">
          <mxGeometry y="290" width="90" height="30" as="geometry" />
        </mxCell>
        <mxCell id="rJ09bXh6NYC6wMTabAv8-197" value="Expenses" style="rounded=1;whiteSpace=wrap;html=1;fillColor=light-dark(#FFFFFF,#006600);" parent="rJ09bXh6NYC6wMTabAv8-186" vertex="1">
          <mxGeometry y="330" width="90" height="30" as="geometry" />
        </mxCell>
        <mxCell id="rJ09bXh6NYC6wMTabAv8-198" value="Receipts" style="rounded=1;whiteSpace=wrap;html=1;" parent="rJ09bXh6NYC6wMTabAv8-186" vertex="1">
          <mxGeometry y="370" width="90" height="30" as="geometry" />
        </mxCell>
        <mxCell id="rJ09bXh6NYC6wMTabAv8-199" value="Complaints" style="rounded=1;whiteSpace=wrap;html=1;" parent="rJ09bXh6NYC6wMTabAv8-186" vertex="1">
          <mxGeometry y="410" width="90" height="30" as="geometry" />
        </mxCell>
        <mxCell id="rJ09bXh6NYC6wMTabAv8-200" value="" style="swimlane;startSize=0;" parent="1" vertex="1">
          <mxGeometry x="2560" y="-640" width="310" height="510" as="geometry">
            <mxRectangle x="-320" y="-640" width="50" height="40" as="alternateBounds" />
          </mxGeometry>
        </mxCell>
        <mxCell id="rJ09bXh6NYC6wMTabAv8-201" value="MOAQA" style="rounded=1;whiteSpace=wrap;html=1;" parent="rJ09bXh6NYC6wMTabAv8-200" vertex="1">
          <mxGeometry width="90" height="40" as="geometry" />
        </mxCell>
        <mxCell id="rJ09bXh6NYC6wMTabAv8-202" value="Super Admin Dashboard" style="rounded=1;whiteSpace=wrap;html=1;" parent="rJ09bXh6NYC6wMTabAv8-200" vertex="1">
          <mxGeometry x="100" width="150" height="40" as="geometry" />
        </mxCell>
        <mxCell id="rJ09bXh6NYC6wMTabAv8-203" value="" style="ellipse;shape=doubleEllipse;whiteSpace=wrap;html=1;aspect=fixed;" parent="rJ09bXh6NYC6wMTabAv8-200" vertex="1">
          <mxGeometry x="260" width="40" height="40" as="geometry" />
        </mxCell>
        <mxCell id="rJ09bXh6NYC6wMTabAv8-204" value="Dashboard" style="rounded=1;whiteSpace=wrap;html=1;fillColor=light-dark(#FFFFFF,transparent);strokeColor=light-dark(#000000,#660000);" parent="rJ09bXh6NYC6wMTabAv8-200" vertex="1">
          <mxGeometry y="50" width="90" height="30" as="geometry" />
        </mxCell>
        <mxCell id="rJ09bXh6NYC6wMTabAv8-205" value="Products" style="rounded=1;whiteSpace=wrap;html=1;fillColor=default;" parent="rJ09bXh6NYC6wMTabAv8-200" vertex="1">
          <mxGeometry y="90" width="90" height="30" as="geometry" />
        </mxCell>
        <mxCell id="rJ09bXh6NYC6wMTabAv8-206" value="Services" style="rounded=1;whiteSpace=wrap;html=1;" parent="rJ09bXh6NYC6wMTabAv8-200" vertex="1">
          <mxGeometry y="130" width="90" height="30" as="geometry" />
        </mxCell>
        <mxCell id="rJ09bXh6NYC6wMTabAv8-207" value="Enterprise" style="rounded=1;whiteSpace=wrap;html=1;" parent="rJ09bXh6NYC6wMTabAv8-200" vertex="1">
          <mxGeometry y="170" width="90" height="30" as="geometry" />
        </mxCell>
        <mxCell id="rJ09bXh6NYC6wMTabAv8-208" value="Quotations" style="rounded=1;whiteSpace=wrap;html=1;" parent="rJ09bXh6NYC6wMTabAv8-200" vertex="1">
          <mxGeometry y="210" width="90" height="30" as="geometry" />
        </mxCell>
        <mxCell id="rJ09bXh6NYC6wMTabAv8-209" value="Invoices" style="rounded=1;whiteSpace=wrap;html=1;" parent="rJ09bXh6NYC6wMTabAv8-200" vertex="1">
          <mxGeometry y="250" width="90" height="30" as="geometry" />
        </mxCell>
        <mxCell id="rJ09bXh6NYC6wMTabAv8-210" value="Reports" style="rounded=1;whiteSpace=wrap;html=1;" parent="rJ09bXh6NYC6wMTabAv8-200" vertex="1">
          <mxGeometry y="290" width="90" height="30" as="geometry" />
        </mxCell>
        <mxCell id="rJ09bXh6NYC6wMTabAv8-211" value="Expenses" style="rounded=1;whiteSpace=wrap;html=1;" parent="rJ09bXh6NYC6wMTabAv8-200" vertex="1">
          <mxGeometry y="330" width="90" height="30" as="geometry" />
        </mxCell>
        <mxCell id="rJ09bXh6NYC6wMTabAv8-212" value="Receipts" style="rounded=1;whiteSpace=wrap;html=1;fillColor=light-dark(#FFFFFF,#006600);" parent="rJ09bXh6NYC6wMTabAv8-200" vertex="1">
          <mxGeometry y="370" width="90" height="30" as="geometry" />
        </mxCell>
        <mxCell id="rJ09bXh6NYC6wMTabAv8-213" value="Complaints" style="rounded=1;whiteSpace=wrap;html=1;" parent="rJ09bXh6NYC6wMTabAv8-200" vertex="1">
          <mxGeometry y="410" width="90" height="30" as="geometry" />
        </mxCell>
        <mxCell id="rJ09bXh6NYC6wMTabAv8-228" value="" style="swimlane;startSize=0;" parent="1" vertex="1">
          <mxGeometry x="2920" y="-640" width="310" height="510" as="geometry">
            <mxRectangle x="-320" y="-640" width="50" height="40" as="alternateBounds" />
          </mxGeometry>
        </mxCell>
        <mxCell id="rJ09bXh6NYC6wMTabAv8-229" value="MOAQA" style="rounded=1;whiteSpace=wrap;html=1;" parent="rJ09bXh6NYC6wMTabAv8-228" vertex="1">
          <mxGeometry width="90" height="40" as="geometry" />
        </mxCell>
        <mxCell id="rJ09bXh6NYC6wMTabAv8-230" value="Super Admin Dashboard" style="rounded=1;whiteSpace=wrap;html=1;" parent="rJ09bXh6NYC6wMTabAv8-228" vertex="1">
          <mxGeometry x="100" width="150" height="40" as="geometry" />
        </mxCell>
        <mxCell id="rJ09bXh6NYC6wMTabAv8-231" value="" style="ellipse;shape=doubleEllipse;whiteSpace=wrap;html=1;aspect=fixed;" parent="rJ09bXh6NYC6wMTabAv8-228" vertex="1">
          <mxGeometry x="260" width="40" height="40" as="geometry" />
        </mxCell>
        <mxCell id="rJ09bXh6NYC6wMTabAv8-232" value="Dashboard" style="rounded=1;whiteSpace=wrap;html=1;fillColor=light-dark(#FFFFFF,transparent);strokeColor=light-dark(#000000,#660000);" parent="rJ09bXh6NYC6wMTabAv8-228" vertex="1">
          <mxGeometry y="50" width="90" height="30" as="geometry" />
        </mxCell>
        <mxCell id="rJ09bXh6NYC6wMTabAv8-233" value="Products" style="rounded=1;whiteSpace=wrap;html=1;fillColor=default;" parent="rJ09bXh6NYC6wMTabAv8-228" vertex="1">
          <mxGeometry y="90" width="90" height="30" as="geometry" />
        </mxCell>
        <mxCell id="rJ09bXh6NYC6wMTabAv8-234" value="Services" style="rounded=1;whiteSpace=wrap;html=1;" parent="rJ09bXh6NYC6wMTabAv8-228" vertex="1">
          <mxGeometry y="130" width="90" height="30" as="geometry" />
        </mxCell>
        <mxCell id="rJ09bXh6NYC6wMTabAv8-235" value="Enterprise" style="rounded=1;whiteSpace=wrap;html=1;" parent="rJ09bXh6NYC6wMTabAv8-228" vertex="1">
          <mxGeometry y="170" width="90" height="30" as="geometry" />
        </mxCell>
        <mxCell id="rJ09bXh6NYC6wMTabAv8-236" value="Quotations" style="rounded=1;whiteSpace=wrap;html=1;" parent="rJ09bXh6NYC6wMTabAv8-228" vertex="1">
          <mxGeometry y="210" width="90" height="30" as="geometry" />
        </mxCell>
        <mxCell id="rJ09bXh6NYC6wMTabAv8-237" value="Invoices" style="rounded=1;whiteSpace=wrap;html=1;" parent="rJ09bXh6NYC6wMTabAv8-228" vertex="1">
          <mxGeometry y="250" width="90" height="30" as="geometry" />
        </mxCell>
        <mxCell id="rJ09bXh6NYC6wMTabAv8-238" value="Reports" style="rounded=1;whiteSpace=wrap;html=1;" parent="rJ09bXh6NYC6wMTabAv8-228" vertex="1">
          <mxGeometry y="290" width="90" height="30" as="geometry" />
        </mxCell>
        <mxCell id="rJ09bXh6NYC6wMTabAv8-239" value="Expenses" style="rounded=1;whiteSpace=wrap;html=1;" parent="rJ09bXh6NYC6wMTabAv8-228" vertex="1">
          <mxGeometry y="330" width="90" height="30" as="geometry" />
        </mxCell>
        <mxCell id="rJ09bXh6NYC6wMTabAv8-240" value="Receipts" style="rounded=1;whiteSpace=wrap;html=1;" parent="rJ09bXh6NYC6wMTabAv8-228" vertex="1">
          <mxGeometry y="370" width="90" height="30" as="geometry" />
        </mxCell>
        <mxCell id="rJ09bXh6NYC6wMTabAv8-241" value="Complaints" style="rounded=1;whiteSpace=wrap;html=1;fillColor=light-dark(#FFFFFF,#006600);" parent="rJ09bXh6NYC6wMTabAv8-228" vertex="1">
          <mxGeometry y="410" width="90" height="30" as="geometry" />
        </mxCell>
        <mxCell id="rJ09bXh6NYC6wMTabAv8-283" value="&lt;div style=&quot;&quot;&gt;Add Product&lt;/div&gt;&lt;ol&gt;&lt;li style=&quot;&quot;&gt;Product ID&lt;/li&gt;&lt;li style=&quot;&quot;&gt;Title&lt;/li&gt;&lt;li style=&quot;&quot;&gt;Link&lt;/li&gt;&lt;li style=&quot;&quot;&gt;price&lt;/li&gt;&lt;li style=&quot;&quot;&gt;Users&lt;/li&gt;&lt;li style=&quot;&quot;&gt;Description&lt;/li&gt;&lt;/ol&gt;" style="text;strokeColor=none;fillColor=none;html=1;whiteSpace=wrap;verticalAlign=middle;overflow=hidden;align=center;" parent="1" vertex="1">
          <mxGeometry x="145" y="-860" width="100" height="180" as="geometry" />
        </mxCell>
        <mxCell id="rJ09bXh6NYC6wMTabAv8-284" value="&lt;div style=&quot;&quot;&gt;Add Services&lt;/div&gt;&lt;ol&gt;&lt;li style=&quot;&quot;&gt;Product ID&lt;/li&gt;&lt;li style=&quot;&quot;&gt;Title&lt;/li&gt;&lt;li style=&quot;&quot;&gt;Link&lt;/li&gt;&lt;li style=&quot;&quot;&gt;price&lt;/li&gt;&lt;li style=&quot;&quot;&gt;Users&lt;/li&gt;&lt;li style=&quot;&quot;&gt;Description&lt;/li&gt;&lt;/ol&gt;" style="text;strokeColor=none;fillColor=none;html=1;whiteSpace=wrap;verticalAlign=middle;overflow=hidden;align=center;" parent="1" vertex="1">
          <mxGeometry x="495" y="-860" width="100" height="180" as="geometry" />
        </mxCell>
        <mxCell id="rJ09bXh6NYC6wMTabAv8-285" value="&lt;div style=&quot;&quot;&gt;&lt;b&gt;Add Enterprise&lt;/b&gt;&lt;/div&gt;&lt;span style=&quot;background-color: transparent; color: light-dark(rgb(0, 0, 0), rgb(255, 255, 255));&quot;&gt;&lt;div style=&quot;text-align: left;&quot;&gt;&lt;span style=&quot;background-color: transparent; color: light-dark(rgb(0, 0, 0), rgb(255, 255, 255));&quot;&gt;Enterprise ID&lt;/span&gt;&lt;/div&gt;&lt;/span&gt;&lt;span style=&quot;background-color: transparent; color: light-dark(rgb(0, 0, 0), rgb(255, 255, 255));&quot;&gt;&lt;div style=&quot;text-align: left;&quot;&gt;&lt;span style=&quot;background-color: transparent; color: light-dark(rgb(0, 0, 0), rgb(255, 255, 255));&quot;&gt;Company Name&lt;/span&gt;&lt;/div&gt;&lt;/span&gt;&lt;span style=&quot;background-color: transparent; color: light-dark(rgb(0, 0, 0), rgb(255, 255, 255));&quot;&gt;&lt;div style=&quot;text-align: left;&quot;&gt;&lt;span style=&quot;background-color: transparent; color: light-dark(rgb(0, 0, 0), rgb(255, 255, 255));&quot;&gt;Logo&lt;/span&gt;&lt;/div&gt;&lt;/span&gt;&lt;span style=&quot;background-color: transparent; color: light-dark(rgb(0, 0, 0), rgb(255, 255, 255));&quot;&gt;&lt;div style=&quot;text-align: left;&quot;&gt;&lt;span style=&quot;background-color: transparent; color: light-dark(rgb(0, 0, 0), rgb(255, 255, 255));&quot;&gt;Address&lt;/span&gt;&lt;/div&gt;&lt;/span&gt;&lt;span style=&quot;background-color: transparent; color: light-dark(rgb(0, 0, 0), rgb(255, 255, 255));&quot;&gt;&lt;div style=&quot;text-align: left;&quot;&gt;&lt;span style=&quot;background-color: transparent; color: light-dark(rgb(0, 0, 0), rgb(255, 255, 255));&quot;&gt;Mailing Address&lt;/span&gt;&lt;/div&gt;&lt;/span&gt;&lt;span style=&quot;background-color: transparent; color: light-dark(rgb(0, 0, 0), rgb(255, 255, 255));&quot;&gt;&lt;div style=&quot;text-align: left;&quot;&gt;&lt;span style=&quot;background-color: transparent; color: light-dark(rgb(0, 0, 0), rgb(255, 255, 255));&quot;&gt;City&lt;/span&gt;&lt;/div&gt;&lt;/span&gt;&lt;span style=&quot;background-color: transparent; color: light-dark(rgb(0, 0, 0), rgb(255, 255, 255));&quot;&gt;&lt;div style=&quot;text-align: left;&quot;&gt;&lt;span style=&quot;background-color: transparent; color: light-dark(rgb(0, 0, 0), rgb(255, 255, 255));&quot;&gt;Country&lt;/span&gt;&lt;/div&gt;&lt;/span&gt;&lt;span style=&quot;background-color: transparent; color: light-dark(rgb(0, 0, 0), rgb(255, 255, 255));&quot;&gt;&lt;div style=&quot;text-align: left;&quot;&gt;&lt;span style=&quot;background-color: transparent; color: light-dark(rgb(0, 0, 0), rgb(255, 255, 255));&quot;&gt;Zip Code&lt;/span&gt;&lt;/div&gt;&lt;/span&gt;&lt;span style=&quot;background-color: transparent; color: light-dark(rgb(0, 0, 0), rgb(255, 255, 255));&quot;&gt;&lt;div style=&quot;text-align: left;&quot;&gt;&lt;span style=&quot;background-color: transparent; color: light-dark(rgb(0, 0, 0), rgb(255, 255, 255));&quot;&gt;Phone Number&lt;/span&gt;&lt;/div&gt;&lt;/span&gt;&lt;span style=&quot;background-color: transparent; color: light-dark(rgb(0, 0, 0), rgb(255, 255, 255));&quot;&gt;&lt;div style=&quot;text-align: left;&quot;&gt;&lt;span style=&quot;background-color: transparent; color: light-dark(rgb(0, 0, 0), rgb(255, 255, 255));&quot;&gt;Company Email&lt;/span&gt;&lt;/div&gt;&lt;/span&gt;&lt;span style=&quot;background-color: transparent; color: light-dark(rgb(0, 0, 0), rgb(255, 255, 255));&quot;&gt;&lt;div style=&quot;text-align: left;&quot;&gt;&lt;span style=&quot;background-color: transparent; color: light-dark(rgb(0, 0, 0), rgb(255, 255, 255));&quot;&gt;User&lt;/span&gt;&lt;/div&gt;&lt;/span&gt;&lt;span style=&quot;background-color: transparent; color: light-dark(rgb(0, 0, 0), rgb(255, 255, 255));&quot;&gt;&lt;div style=&quot;text-align: left;&quot;&gt;&lt;span style=&quot;background-color: transparent; color: light-dark(rgb(0, 0, 0), rgb(255, 255, 255));&quot;&gt;Password&lt;/span&gt;&lt;/div&gt;&lt;/span&gt;&lt;span style=&quot;background-color: transparent; color: light-dark(rgb(0, 0, 0), rgb(255, 255, 255));&quot;&gt;&lt;div style=&quot;text-align: left;&quot;&gt;&lt;span style=&quot;background-color: transparent; color: light-dark(rgb(0, 0, 0), rgb(255, 255, 255));&quot;&gt;Link to Login&lt;/span&gt;&lt;/div&gt;&lt;/span&gt;&lt;span style=&quot;background-color: transparent; color: light-dark(rgb(0, 0, 0), rgb(255, 255, 255));&quot;&gt;&lt;div style=&quot;text-align: left;&quot;&gt;&lt;span style=&quot;background-color: transparent; color: light-dark(rgb(0, 0, 0), rgb(255, 255, 255));&quot;&gt;Industry&lt;/span&gt;&lt;/div&gt;&lt;/span&gt;&lt;span style=&quot;background-color: transparent; color: light-dark(rgb(0, 0, 0), rgb(255, 255, 255));&quot;&gt;&lt;div style=&quot;text-align: left;&quot;&gt;&lt;span style=&quot;background-color: transparent; color: light-dark(rgb(0, 0, 0), rgb(255, 255, 255));&quot;&gt;Business&lt;/span&gt;&lt;/div&gt;&lt;/span&gt;" style="text;strokeColor=none;fillColor=none;html=1;whiteSpace=wrap;verticalAlign=middle;overflow=hidden;align=center;" parent="1" vertex="1">
          <mxGeometry x="855" y="-940" width="135" height="260" as="geometry" />
        </mxCell>
        <mxCell id="rJ09bXh6NYC6wMTabAv8-286" value="&lt;div style=&quot;&quot;&gt;&lt;b&gt;Add Quotation&lt;/b&gt;&lt;/div&gt;&lt;span style=&quot;background-color: transparent; color: light-dark(rgb(0, 0, 0), rgb(255, 255, 255));&quot;&gt;&lt;div style=&quot;text-align: left;&quot;&gt;&lt;span style=&quot;background-color: transparent; color: light-dark(rgb(0, 0, 0), rgb(255, 255, 255));&quot;&gt;Quotation ID&lt;/span&gt;&lt;/div&gt;&lt;/span&gt;&lt;span style=&quot;background-color: transparent; color: light-dark(rgb(0, 0, 0), rgb(255, 255, 255));&quot;&gt;&lt;div style=&quot;text-align: left;&quot;&gt;&lt;span style=&quot;background-color: transparent; color: light-dark(rgb(0, 0, 0), rgb(255, 255, 255));&quot;&gt;Creation Date&lt;/span&gt;&lt;/div&gt;&lt;div style=&quot;text-align: left;&quot;&gt;Valid Date&lt;/div&gt;&lt;div style=&quot;text-align: left;&quot;&gt;&lt;span style=&quot;background-color: transparent; color: light-dark(rgb(0, 0, 0), rgb(255, 255, 255));&quot;&gt;Products&lt;/span&gt;&lt;/div&gt;&lt;div style=&quot;text-align: left;&quot;&gt;&lt;span style=&quot;background-color: transparent; color: light-dark(rgb(0, 0, 0), rgb(255, 255, 255));&quot;&gt;Price&lt;/span&gt;&lt;/div&gt;&lt;div style=&quot;text-align: left;&quot;&gt;&lt;span style=&quot;background-color: transparent; color: light-dark(rgb(0, 0, 0), rgb(255, 255, 255));&quot;&gt;Services&lt;/span&gt;&lt;/div&gt;&lt;div style=&quot;text-align: left;&quot;&gt;&lt;span style=&quot;background-color: transparent; color: light-dark(rgb(0, 0, 0), rgb(255, 255, 255));&quot;&gt;Price&lt;/span&gt;&lt;/div&gt;&lt;div style=&quot;text-align: left;&quot;&gt;&lt;span style=&quot;background-color: transparent; color: light-dark(rgb(0, 0, 0), rgb(255, 255, 255));&quot;&gt;Customer Name&lt;/span&gt;&lt;/div&gt;&lt;div style=&quot;text-align: left;&quot;&gt;&lt;span style=&quot;background-color: transparent; color: light-dark(rgb(0, 0, 0), rgb(255, 255, 255));&quot;&gt;Logo&lt;/span&gt;&lt;/div&gt;&lt;/span&gt;&lt;span style=&quot;background-color: transparent; color: light-dark(rgb(0, 0, 0), rgb(255, 255, 255));&quot;&gt;&lt;div style=&quot;text-align: left;&quot;&gt;&lt;span style=&quot;background-color: transparent; color: light-dark(rgb(0, 0, 0), rgb(255, 255, 255));&quot;&gt;Address&lt;/span&gt;&lt;/div&gt;&lt;/span&gt;&lt;span style=&quot;background-color: transparent; color: light-dark(rgb(0, 0, 0), rgb(255, 255, 255));&quot;&gt;&lt;div style=&quot;text-align: left;&quot;&gt;&lt;span style=&quot;background-color: transparent; color: light-dark(rgb(0, 0, 0), rgb(255, 255, 255));&quot;&gt;Mailing Address&lt;/span&gt;&lt;/div&gt;&lt;/span&gt;&lt;span style=&quot;background-color: transparent; color: light-dark(rgb(0, 0, 0), rgb(255, 255, 255));&quot;&gt;&lt;div style=&quot;text-align: left;&quot;&gt;&lt;span style=&quot;background-color: transparent; color: light-dark(rgb(0, 0, 0), rgb(255, 255, 255));&quot;&gt;City&lt;/span&gt;&lt;/div&gt;&lt;/span&gt;&lt;span style=&quot;background-color: transparent; color: light-dark(rgb(0, 0, 0), rgb(255, 255, 255));&quot;&gt;&lt;div style=&quot;text-align: left;&quot;&gt;&lt;span style=&quot;background-color: transparent; color: light-dark(rgb(0, 0, 0), rgb(255, 255, 255));&quot;&gt;Country&lt;/span&gt;&lt;/div&gt;&lt;/span&gt;&lt;span style=&quot;background-color: transparent; color: light-dark(rgb(0, 0, 0), rgb(255, 255, 255));&quot;&gt;&lt;div style=&quot;text-align: left;&quot;&gt;&lt;span style=&quot;background-color: transparent; color: light-dark(rgb(0, 0, 0), rgb(255, 255, 255));&quot;&gt;Zip Code&lt;/span&gt;&lt;/div&gt;&lt;/span&gt;&lt;span style=&quot;background-color: transparent; color: light-dark(rgb(0, 0, 0), rgb(255, 255, 255));&quot;&gt;&lt;div style=&quot;text-align: left;&quot;&gt;&lt;span style=&quot;background-color: transparent; color: light-dark(rgb(0, 0, 0), rgb(255, 255, 255));&quot;&gt;Phone Number&lt;/span&gt;&lt;/div&gt;&lt;/span&gt;&lt;span style=&quot;background-color: transparent; color: light-dark(rgb(0, 0, 0), rgb(255, 255, 255));&quot;&gt;&lt;div style=&quot;text-align: left;&quot;&gt;&lt;span style=&quot;background-color: transparent; color: light-dark(rgb(0, 0, 0), rgb(255, 255, 255));&quot;&gt;Company Email&lt;/span&gt;&lt;/div&gt;&lt;div style=&quot;text-align: left;&quot;&gt;&lt;span style=&quot;background-color: transparent; color: light-dark(rgb(0, 0, 0), rgb(255, 255, 255));&quot;&gt;Delivery Date&lt;/span&gt;&lt;/div&gt;&lt;div style=&quot;text-align: left;&quot;&gt;&lt;span style=&quot;background-color: transparent; color: light-dark(rgb(0, 0, 0), rgb(255, 255, 255));&quot;&gt;Service Terms and Condition&lt;/span&gt;&lt;/div&gt;&lt;div style=&quot;text-align: left;&quot;&gt;&lt;span style=&quot;background-color: transparent; color: light-dark(rgb(0, 0, 0), rgb(255, 255, 255));&quot;&gt;&lt;br&gt;&lt;/span&gt;&lt;/div&gt;&lt;/span&gt;&lt;span style=&quot;background-color: transparent; color: light-dark(rgb(0, 0, 0), rgb(255, 255, 255));&quot;&gt;&lt;div style=&quot;text-align: left;&quot;&gt;&lt;br&gt;&lt;/div&gt;&lt;/span&gt;" style="text;strokeColor=none;fillColor=none;html=1;whiteSpace=wrap;verticalAlign=middle;overflow=hidden;align=center;" parent="1" vertex="1">
          <mxGeometry x="1207.5" y="-970" width="135" height="300" as="geometry" />
        </mxCell>
        <mxCell id="rJ09bXh6NYC6wMTabAv8-287" value="&lt;div style=&quot;&quot;&gt;&lt;b&gt;Add Invoice&lt;/b&gt;&lt;/div&gt;&lt;span style=&quot;background-color: transparent; color: light-dark(rgb(0, 0, 0), rgb(255, 255, 255));&quot;&gt;&lt;div style=&quot;text-align: left;&quot;&gt;&lt;span style=&quot;background-color: transparent; color: light-dark(rgb(0, 0, 0), rgb(255, 255, 255));&quot;&gt;Invoice ID&lt;/span&gt;&lt;/div&gt;&lt;/span&gt;&lt;span style=&quot;background-color: transparent; color: light-dark(rgb(0, 0, 0), rgb(255, 255, 255));&quot;&gt;&lt;div style=&quot;text-align: left;&quot;&gt;&lt;span style=&quot;background-color: transparent; color: light-dark(rgb(0, 0, 0), rgb(255, 255, 255));&quot;&gt;Creation Date&lt;/span&gt;&lt;/div&gt;&lt;div style=&quot;text-align: left;&quot;&gt;Paid Date&lt;/div&gt;&lt;div style=&quot;text-align: left;&quot;&gt;Quotation ID&lt;/div&gt;&lt;div style=&quot;text-align: left;&quot;&gt;&lt;span style=&quot;background-color: transparent; color: light-dark(rgb(0, 0, 0), rgb(255, 255, 255));&quot;&gt;Products&lt;/span&gt;&lt;/div&gt;&lt;div style=&quot;text-align: left;&quot;&gt;&lt;span style=&quot;background-color: transparent; color: light-dark(rgb(0, 0, 0), rgb(255, 255, 255));&quot;&gt;Price&lt;/span&gt;&lt;/div&gt;&lt;div style=&quot;text-align: left;&quot;&gt;&lt;span style=&quot;background-color: transparent; color: light-dark(rgb(0, 0, 0), rgb(255, 255, 255));&quot;&gt;Services&lt;/span&gt;&lt;/div&gt;&lt;div style=&quot;text-align: left;&quot;&gt;&lt;span style=&quot;background-color: transparent; color: light-dark(rgb(0, 0, 0), rgb(255, 255, 255));&quot;&gt;Price&lt;/span&gt;&lt;/div&gt;&lt;div style=&quot;text-align: left;&quot;&gt;&lt;span style=&quot;background-color: transparent; color: light-dark(rgb(0, 0, 0), rgb(255, 255, 255));&quot;&gt;Customer Name&lt;/span&gt;&lt;/div&gt;&lt;div style=&quot;text-align: left;&quot;&gt;&lt;span style=&quot;background-color: transparent; color: light-dark(rgb(0, 0, 0), rgb(255, 255, 255));&quot;&gt;Logo&lt;/span&gt;&lt;/div&gt;&lt;/span&gt;&lt;span style=&quot;background-color: transparent; color: light-dark(rgb(0, 0, 0), rgb(255, 255, 255));&quot;&gt;&lt;div style=&quot;text-align: left;&quot;&gt;&lt;span style=&quot;background-color: transparent; color: light-dark(rgb(0, 0, 0), rgb(255, 255, 255));&quot;&gt;Address&lt;/span&gt;&lt;/div&gt;&lt;/span&gt;&lt;span style=&quot;background-color: transparent; color: light-dark(rgb(0, 0, 0), rgb(255, 255, 255));&quot;&gt;&lt;div style=&quot;text-align: left;&quot;&gt;&lt;span style=&quot;background-color: transparent; color: light-dark(rgb(0, 0, 0), rgb(255, 255, 255));&quot;&gt;Mailing Address&lt;/span&gt;&lt;/div&gt;&lt;/span&gt;&lt;span style=&quot;background-color: transparent; color: light-dark(rgb(0, 0, 0), rgb(255, 255, 255));&quot;&gt;&lt;div style=&quot;text-align: left;&quot;&gt;&lt;span style=&quot;background-color: transparent; color: light-dark(rgb(0, 0, 0), rgb(255, 255, 255));&quot;&gt;City&lt;/span&gt;&lt;/div&gt;&lt;/span&gt;&lt;span style=&quot;background-color: transparent; color: light-dark(rgb(0, 0, 0), rgb(255, 255, 255));&quot;&gt;&lt;div style=&quot;text-align: left;&quot;&gt;&lt;span style=&quot;background-color: transparent; color: light-dark(rgb(0, 0, 0), rgb(255, 255, 255));&quot;&gt;Country&lt;/span&gt;&lt;/div&gt;&lt;/span&gt;&lt;span style=&quot;background-color: transparent; color: light-dark(rgb(0, 0, 0), rgb(255, 255, 255));&quot;&gt;&lt;div style=&quot;text-align: left;&quot;&gt;&lt;span style=&quot;background-color: transparent; color: light-dark(rgb(0, 0, 0), rgb(255, 255, 255));&quot;&gt;Zip Code&lt;/span&gt;&lt;/div&gt;&lt;/span&gt;&lt;span style=&quot;background-color: transparent; color: light-dark(rgb(0, 0, 0), rgb(255, 255, 255));&quot;&gt;&lt;div style=&quot;text-align: left;&quot;&gt;&lt;span style=&quot;background-color: transparent; color: light-dark(rgb(0, 0, 0), rgb(255, 255, 255));&quot;&gt;Phone Number&lt;/span&gt;&lt;/div&gt;&lt;/span&gt;&lt;span style=&quot;background-color: transparent; color: light-dark(rgb(0, 0, 0), rgb(255, 255, 255));&quot;&gt;&lt;div style=&quot;text-align: left;&quot;&gt;&lt;span style=&quot;background-color: transparent; color: light-dark(rgb(0, 0, 0), rgb(255, 255, 255));&quot;&gt;Company Email&lt;/span&gt;&lt;/div&gt;&lt;div style=&quot;text-align: left;&quot;&gt;&lt;br&gt;&lt;/div&gt;&lt;/span&gt;&lt;span style=&quot;background-color: transparent; color: light-dark(rgb(0, 0, 0), rgb(255, 255, 255));&quot;&gt;&lt;div style=&quot;text-align: left;&quot;&gt;&lt;br&gt;&lt;/div&gt;&lt;/span&gt;" style="text;strokeColor=none;fillColor=none;html=1;whiteSpace=wrap;verticalAlign=middle;overflow=hidden;align=center;" parent="1" vertex="1">
          <mxGeometry x="1577.5" y="-980" width="135" height="300" as="geometry" />
        </mxCell>
        <mxCell id="lvwvD485uQR9sfOQSoXQ-2" value="Enter[rose&amp;nbsp;&lt;div&gt;Unique User Link&lt;/div&gt;" style="swimlane;fontStyle=0;childLayout=stackLayout;horizontal=1;startSize=30;horizontalStack=0;resizeParent=1;resizeParentMax=0;resizeLast=0;collapsible=1;marginBottom=0;whiteSpace=wrap;html=1;" parent="1" vertex="1">
          <mxGeometry x="-480" y="-80" width="140" height="90" as="geometry" />
        </mxCell>
        <mxCell id="lvwvD485uQR9sfOQSoXQ-4" value="&lt;div&gt;User&amp;nbsp;&lt;/div&gt;Password&lt;div&gt;Forgot Password&lt;/div&gt;" style="text;strokeColor=none;fillColor=none;align=left;verticalAlign=middle;spacingLeft=4;spacingRight=4;overflow=hidden;points=[[0,0.5],[1,0.5]];portConstraint=eastwest;rotatable=0;whiteSpace=wrap;html=1;" parent="lvwvD485uQR9sfOQSoXQ-2" vertex="1">
          <mxGeometry y="30" width="140" height="60" as="geometry" />
        </mxCell>
        <mxCell id="lvwvD485uQR9sfOQSoXQ-5" value="" style="swimlane;startSize=0;" parent="1" vertex="1">
          <mxGeometry x="-310" y="-640" width="310" height="520" as="geometry">
            <mxRectangle x="-320" y="-640" width="50" height="40" as="alternateBounds" />
          </mxGeometry>
        </mxCell>
        <mxCell id="lvwvD485uQR9sfOQSoXQ-6" value="MOAQA" style="rounded=1;whiteSpace=wrap;html=1;" parent="lvwvD485uQR9sfOQSoXQ-5" vertex="1">
          <mxGeometry width="90" height="40" as="geometry" />
        </mxCell>
        <mxCell id="lvwvD485uQR9sfOQSoXQ-7" value="Super Admin Dashboard" style="rounded=1;whiteSpace=wrap;html=1;" parent="lvwvD485uQR9sfOQSoXQ-5" vertex="1">
          <mxGeometry x="100" width="150" height="40" as="geometry" />
        </mxCell>
        <mxCell id="lvwvD485uQR9sfOQSoXQ-8" value="" style="ellipse;shape=doubleEllipse;whiteSpace=wrap;html=1;aspect=fixed;" parent="lvwvD485uQR9sfOQSoXQ-5" vertex="1">
          <mxGeometry x="260" width="40" height="40" as="geometry" />
        </mxCell>
        <mxCell id="lvwvD485uQR9sfOQSoXQ-9" value="Dashboard" style="rounded=1;whiteSpace=wrap;html=1;fillColor=light-dark(#FFFFFF,#006600);" parent="lvwvD485uQR9sfOQSoXQ-5" vertex="1">
          <mxGeometry y="50" width="90" height="30" as="geometry" />
        </mxCell>
        <mxCell id="lvwvD485uQR9sfOQSoXQ-10" value="Products" style="rounded=1;whiteSpace=wrap;html=1;" parent="lvwvD485uQR9sfOQSoXQ-5" vertex="1">
          <mxGeometry y="90" width="90" height="30" as="geometry" />
        </mxCell>
        <mxCell id="lvwvD485uQR9sfOQSoXQ-11" value="Services" style="rounded=1;whiteSpace=wrap;html=1;" parent="lvwvD485uQR9sfOQSoXQ-5" vertex="1">
          <mxGeometry y="130" width="90" height="30" as="geometry" />
        </mxCell>
        <mxCell id="lvwvD485uQR9sfOQSoXQ-12" value="Enterprise" style="rounded=1;whiteSpace=wrap;html=1;" parent="lvwvD485uQR9sfOQSoXQ-5" vertex="1">
          <mxGeometry y="170" width="90" height="30" as="geometry" />
        </mxCell>
        <mxCell id="lvwvD485uQR9sfOQSoXQ-13" value="Quotations" style="rounded=1;whiteSpace=wrap;html=1;" parent="lvwvD485uQR9sfOQSoXQ-5" vertex="1">
          <mxGeometry y="210" width="90" height="30" as="geometry" />
        </mxCell>
        <mxCell id="lvwvD485uQR9sfOQSoXQ-14" value="Invoices" style="rounded=1;whiteSpace=wrap;html=1;" parent="lvwvD485uQR9sfOQSoXQ-5" vertex="1">
          <mxGeometry y="250" width="90" height="30" as="geometry" />
        </mxCell>
        <mxCell id="lvwvD485uQR9sfOQSoXQ-15" value="Reports" style="rounded=1;whiteSpace=wrap;html=1;" parent="lvwvD485uQR9sfOQSoXQ-5" vertex="1">
          <mxGeometry y="290" width="90" height="30" as="geometry" />
        </mxCell>
        <mxCell id="lvwvD485uQR9sfOQSoXQ-16" value="Expenses" style="rounded=1;whiteSpace=wrap;html=1;" parent="lvwvD485uQR9sfOQSoXQ-5" vertex="1">
          <mxGeometry y="330" width="90" height="30" as="geometry" />
        </mxCell>
        <mxCell id="lvwvD485uQR9sfOQSoXQ-17" value="Receipts" style="rounded=1;whiteSpace=wrap;html=1;" parent="lvwvD485uQR9sfOQSoXQ-5" vertex="1">
          <mxGeometry y="370" width="90" height="30" as="geometry" />
        </mxCell>
        <mxCell id="lvwvD485uQR9sfOQSoXQ-18" value="Complaints" style="rounded=1;whiteSpace=wrap;html=1;" parent="lvwvD485uQR9sfOQSoXQ-5" vertex="1">
          <mxGeometry y="410" width="90" height="30" as="geometry" />
        </mxCell>
        <mxCell id="lvwvD485uQR9sfOQSoXQ-43" value="&lt;div&gt;Company&lt;/div&gt;Profile&lt;div&gt;Help&lt;/div&gt;&lt;div&gt;Privacy&lt;br&gt;&lt;div&gt;Setting&lt;/div&gt;&lt;div&gt;LogOut&lt;/div&gt;&lt;div&gt;&lt;br&gt;&lt;/div&gt;&lt;/div&gt;" style="whiteSpace=wrap;html=1;" parent="1" vertex="1">
          <mxGeometry x="310" y="-80" width="120" height="110" as="geometry" />
        </mxCell>
        <mxCell id="lvwvD485uQR9sfOQSoXQ-44" value="" style="edgeStyle=orthogonalEdgeStyle;rounded=0;orthogonalLoop=1;jettySize=auto;html=1;" parent="1" source="rJ09bXh6NYC6wMTabAv8-47" target="lvwvD485uQR9sfOQSoXQ-43" edge="1">
          <mxGeometry relative="1" as="geometry" />
        </mxCell>
        <mxCell id="xeaUYaUfG0aIDbgO8eIN-11" value="N" style="swimlane;startSize=0;" parent="1" vertex="1">
          <mxGeometry x="450" y="-80" width="590" height="480" as="geometry">
            <mxRectangle x="-320" y="-640" width="50" height="40" as="alternateBounds" />
          </mxGeometry>
        </mxCell>
        <mxCell id="xeaUYaUfG0aIDbgO8eIN-12" value="MOAQA" style="rounded=1;whiteSpace=wrap;html=1;" parent="xeaUYaUfG0aIDbgO8eIN-11" vertex="1">
          <mxGeometry width="90" height="40" as="geometry" />
        </mxCell>
        <mxCell id="xeaUYaUfG0aIDbgO8eIN-13" value="Enterprise Name" style="rounded=1;whiteSpace=wrap;html=1;" parent="xeaUYaUfG0aIDbgO8eIN-11" vertex="1">
          <mxGeometry x="100" width="320" height="40" as="geometry" />
        </mxCell>
        <mxCell id="xeaUYaUfG0aIDbgO8eIN-14" value="" style="ellipse;shape=doubleEllipse;whiteSpace=wrap;html=1;aspect=fixed;" parent="xeaUYaUfG0aIDbgO8eIN-11" vertex="1">
          <mxGeometry x="540" y="10" width="40" height="40" as="geometry" />
        </mxCell>
        <mxCell id="xeaUYaUfG0aIDbgO8eIN-15" value="Dashboard" style="rounded=1;whiteSpace=wrap;html=1;fillColor=light-dark(#FFFFFF,transparent);" parent="xeaUYaUfG0aIDbgO8eIN-11" vertex="1">
          <mxGeometry y="50" width="90" height="30" as="geometry" />
        </mxCell>
        <mxCell id="xeaUYaUfG0aIDbgO8eIN-16" value="Products" style="rounded=1;whiteSpace=wrap;html=1;fillColor=light-dark(#FFFFFF,#006600);" parent="xeaUYaUfG0aIDbgO8eIN-11" vertex="1">
          <mxGeometry y="90" width="90" height="30" as="geometry" />
        </mxCell>
        <mxCell id="xeaUYaUfG0aIDbgO8eIN-17" value="Services" style="rounded=1;whiteSpace=wrap;html=1;" parent="xeaUYaUfG0aIDbgO8eIN-11" vertex="1">
          <mxGeometry y="130" width="90" height="30" as="geometry" />
        </mxCell>
        <mxCell id="xeaUYaUfG0aIDbgO8eIN-18" value="Profile" style="rounded=1;whiteSpace=wrap;html=1;" parent="xeaUYaUfG0aIDbgO8eIN-11" vertex="1">
          <mxGeometry y="170" width="90" height="30" as="geometry" />
        </mxCell>
        <mxCell id="xeaUYaUfG0aIDbgO8eIN-19" value="Quotations" style="rounded=1;whiteSpace=wrap;html=1;" parent="xeaUYaUfG0aIDbgO8eIN-11" vertex="1">
          <mxGeometry y="210" width="90" height="30" as="geometry" />
        </mxCell>
        <mxCell id="xeaUYaUfG0aIDbgO8eIN-20" value="Invoices" style="rounded=1;whiteSpace=wrap;html=1;" parent="xeaUYaUfG0aIDbgO8eIN-11" vertex="1">
          <mxGeometry y="250" width="90" height="30" as="geometry" />
        </mxCell>
        <mxCell id="xeaUYaUfG0aIDbgO8eIN-21" value="Reports" style="rounded=1;whiteSpace=wrap;html=1;" parent="xeaUYaUfG0aIDbgO8eIN-11" vertex="1">
          <mxGeometry y="290" width="90" height="30" as="geometry" />
        </mxCell>
        <mxCell id="xeaUYaUfG0aIDbgO8eIN-22" value="Create Ticket" style="rounded=1;whiteSpace=wrap;html=1;" parent="xeaUYaUfG0aIDbgO8eIN-11" vertex="1">
          <mxGeometry y="330" width="90" height="30" as="geometry" />
        </mxCell>
        <mxCell id="xeaUYaUfG0aIDbgO8eIN-23" value="CRM" style="rounded=1;whiteSpace=wrap;html=1;" parent="xeaUYaUfG0aIDbgO8eIN-11" vertex="1">
          <mxGeometry x="100" y="50" width="80" height="30" as="geometry" />
        </mxCell>
        <mxCell id="xeaUYaUfG0aIDbgO8eIN-24" value="HRMS" style="rounded=1;whiteSpace=wrap;html=1;" parent="xeaUYaUfG0aIDbgO8eIN-11" vertex="1">
          <mxGeometry x="190" y="50" width="80" height="30" as="geometry" />
        </mxCell>
        <mxCell id="xeaUYaUfG0aIDbgO8eIN-25" value="Job Portal" style="rounded=1;whiteSpace=wrap;html=1;" parent="xeaUYaUfG0aIDbgO8eIN-11" vertex="1">
          <mxGeometry x="280" y="50" width="80" height="30" as="geometry" />
        </mxCell>
        <mxCell id="xeaUYaUfG0aIDbgO8eIN-26" value="Job Board" style="rounded=1;whiteSpace=wrap;html=1;" parent="xeaUYaUfG0aIDbgO8eIN-11" vertex="1">
          <mxGeometry x="370" y="50" width="80" height="30" as="geometry" />
        </mxCell>
        <mxCell id="xeaUYaUfG0aIDbgO8eIN-27" value="Project Management" style="rounded=1;whiteSpace=wrap;html=1;" parent="xeaUYaUfG0aIDbgO8eIN-11" vertex="1">
          <mxGeometry x="460" y="50" width="80" height="30" as="geometry" />
        </mxCell>
        <mxCell id="xeaUYaUfG0aIDbgO8eIN-28" value="Notifications" style="rounded=1;whiteSpace=wrap;html=1;" parent="xeaUYaUfG0aIDbgO8eIN-11" vertex="1">
          <mxGeometry x="450" y="100" width="120" height="310" as="geometry" />
        </mxCell>
        <mxCell id="xeaUYaUfG0aIDbgO8eIN-35" value="" style="html=1;verticalLabelPosition=bottom;align=center;labelBackgroundColor=#ffffff;verticalAlign=top;strokeWidth=2;strokeColor=#0080F0;shadow=0;dashed=0;shape=mxgraph.ios7.icons.bell;" parent="xeaUYaUfG0aIDbgO8eIN-11" vertex="1">
          <mxGeometry x="510" y="16.899999999999977" width="24" height="23.099999999999998" as="geometry" />
        </mxCell>
        <mxCell id="xeaUYaUfG0aIDbgO8eIN-36" value="ID Product Start Date End Data Add Products" style="swimlane;whiteSpace=wrap;html=1;" parent="xeaUYaUfG0aIDbgO8eIN-11" vertex="1">
          <mxGeometry x="100" y="100" width="340" height="200" as="geometry" />
        </mxCell>
        <mxCell id="xeaUYaUfG0aIDbgO8eIN-190" value="Add Users" style="rounded=1;whiteSpace=wrap;html=1;" parent="xeaUYaUfG0aIDbgO8eIN-11" vertex="1">
          <mxGeometry y="370" width="90" height="30" as="geometry" />
        </mxCell>
        <mxCell id="lxkWE_nYF12pFrZx-rZn-31" value="Settings" style="rounded=1;whiteSpace=wrap;html=1;" vertex="1" parent="xeaUYaUfG0aIDbgO8eIN-11">
          <mxGeometry y="410" width="90" height="30" as="geometry" />
        </mxCell>
        <mxCell id="QYLtIBHe6K4uLPgKfc74-92" value="Each Line item should have a separate page when created or for CRUD" style="rounded=1;whiteSpace=wrap;html=1;" vertex="1" parent="xeaUYaUfG0aIDbgO8eIN-11">
          <mxGeometry x="100" y="315" width="330" height="60" as="geometry" />
        </mxCell>
        <mxCell id="xeaUYaUfG0aIDbgO8eIN-37" value="N" style="swimlane;startSize=0;" parent="1" vertex="1">
          <mxGeometry x="1090" y="-80" width="590" height="480" as="geometry">
            <mxRectangle x="-320" y="-640" width="50" height="40" as="alternateBounds" />
          </mxGeometry>
        </mxCell>
        <mxCell id="xeaUYaUfG0aIDbgO8eIN-38" value="MOAQA" style="rounded=1;whiteSpace=wrap;html=1;" parent="xeaUYaUfG0aIDbgO8eIN-37" vertex="1">
          <mxGeometry width="90" height="40" as="geometry" />
        </mxCell>
        <mxCell id="xeaUYaUfG0aIDbgO8eIN-39" value="Enterprise Name" style="rounded=1;whiteSpace=wrap;html=1;" parent="xeaUYaUfG0aIDbgO8eIN-37" vertex="1">
          <mxGeometry x="100" width="320" height="40" as="geometry" />
        </mxCell>
        <mxCell id="xeaUYaUfG0aIDbgO8eIN-40" value="" style="ellipse;shape=doubleEllipse;whiteSpace=wrap;html=1;aspect=fixed;" parent="xeaUYaUfG0aIDbgO8eIN-37" vertex="1">
          <mxGeometry x="540" y="10" width="40" height="40" as="geometry" />
        </mxCell>
        <mxCell id="xeaUYaUfG0aIDbgO8eIN-41" value="Dashboard" style="rounded=1;whiteSpace=wrap;html=1;fillColor=light-dark(#FFFFFF,transparent);" parent="xeaUYaUfG0aIDbgO8eIN-37" vertex="1">
          <mxGeometry y="50" width="90" height="30" as="geometry" />
        </mxCell>
        <mxCell id="xeaUYaUfG0aIDbgO8eIN-42" value="Products" style="rounded=1;whiteSpace=wrap;html=1;" parent="xeaUYaUfG0aIDbgO8eIN-37" vertex="1">
          <mxGeometry y="90" width="90" height="30" as="geometry" />
        </mxCell>
        <mxCell id="xeaUYaUfG0aIDbgO8eIN-43" value="Services" style="rounded=1;whiteSpace=wrap;html=1;fillColor=light-dark(#FFFFFF,#006600);" parent="xeaUYaUfG0aIDbgO8eIN-37" vertex="1">
          <mxGeometry y="130" width="90" height="30" as="geometry" />
        </mxCell>
        <mxCell id="xeaUYaUfG0aIDbgO8eIN-44" value="Profile" style="rounded=1;whiteSpace=wrap;html=1;" parent="xeaUYaUfG0aIDbgO8eIN-37" vertex="1">
          <mxGeometry y="170" width="90" height="30" as="geometry" />
        </mxCell>
        <mxCell id="xeaUYaUfG0aIDbgO8eIN-45" value="Quotations" style="rounded=1;whiteSpace=wrap;html=1;" parent="xeaUYaUfG0aIDbgO8eIN-37" vertex="1">
          <mxGeometry y="210" width="90" height="30" as="geometry" />
        </mxCell>
        <mxCell id="xeaUYaUfG0aIDbgO8eIN-46" value="Invoices" style="rounded=1;whiteSpace=wrap;html=1;" parent="xeaUYaUfG0aIDbgO8eIN-37" vertex="1">
          <mxGeometry y="250" width="90" height="30" as="geometry" />
        </mxCell>
        <mxCell id="xeaUYaUfG0aIDbgO8eIN-47" value="Reports" style="rounded=1;whiteSpace=wrap;html=1;" parent="xeaUYaUfG0aIDbgO8eIN-37" vertex="1">
          <mxGeometry y="290" width="90" height="30" as="geometry" />
        </mxCell>
        <mxCell id="xeaUYaUfG0aIDbgO8eIN-48" value="Create Ticket" style="rounded=1;whiteSpace=wrap;html=1;" parent="xeaUYaUfG0aIDbgO8eIN-37" vertex="1">
          <mxGeometry y="330" width="90" height="30" as="geometry" />
        </mxCell>
        <mxCell id="xeaUYaUfG0aIDbgO8eIN-49" value="CRM" style="rounded=1;whiteSpace=wrap;html=1;" parent="xeaUYaUfG0aIDbgO8eIN-37" vertex="1">
          <mxGeometry x="100" y="50" width="80" height="30" as="geometry" />
        </mxCell>
        <mxCell id="xeaUYaUfG0aIDbgO8eIN-50" value="HRMS" style="rounded=1;whiteSpace=wrap;html=1;" parent="xeaUYaUfG0aIDbgO8eIN-37" vertex="1">
          <mxGeometry x="190" y="50" width="80" height="30" as="geometry" />
        </mxCell>
        <mxCell id="xeaUYaUfG0aIDbgO8eIN-51" value="Job Portal" style="rounded=1;whiteSpace=wrap;html=1;" parent="xeaUYaUfG0aIDbgO8eIN-37" vertex="1">
          <mxGeometry x="280" y="50" width="80" height="30" as="geometry" />
        </mxCell>
        <mxCell id="xeaUYaUfG0aIDbgO8eIN-52" value="Job Board" style="rounded=1;whiteSpace=wrap;html=1;" parent="xeaUYaUfG0aIDbgO8eIN-37" vertex="1">
          <mxGeometry x="370" y="50" width="80" height="30" as="geometry" />
        </mxCell>
        <mxCell id="xeaUYaUfG0aIDbgO8eIN-53" value="Project Management" style="rounded=1;whiteSpace=wrap;html=1;" parent="xeaUYaUfG0aIDbgO8eIN-37" vertex="1">
          <mxGeometry x="460" y="50" width="80" height="30" as="geometry" />
        </mxCell>
        <mxCell id="xeaUYaUfG0aIDbgO8eIN-54" value="Notifications" style="rounded=1;whiteSpace=wrap;html=1;" parent="xeaUYaUfG0aIDbgO8eIN-37" vertex="1">
          <mxGeometry x="450" y="100" width="120" height="310" as="geometry" />
        </mxCell>
        <mxCell id="xeaUYaUfG0aIDbgO8eIN-55" value="" style="html=1;verticalLabelPosition=bottom;align=center;labelBackgroundColor=#ffffff;verticalAlign=top;strokeWidth=2;strokeColor=#0080F0;shadow=0;dashed=0;shape=mxgraph.ios7.icons.bell;" parent="xeaUYaUfG0aIDbgO8eIN-37" vertex="1">
          <mxGeometry x="510" y="16.899999999999977" width="24" height="23.099999999999998" as="geometry" />
        </mxCell>
        <mxCell id="xeaUYaUfG0aIDbgO8eIN-56" value="ID Services Start Date End Data Add Service" style="swimlane;whiteSpace=wrap;html=1;" parent="xeaUYaUfG0aIDbgO8eIN-37" vertex="1">
          <mxGeometry x="100" y="100" width="340" height="200" as="geometry" />
        </mxCell>
        <mxCell id="xeaUYaUfG0aIDbgO8eIN-191" value="Add Users" style="rounded=1;whiteSpace=wrap;html=1;" parent="xeaUYaUfG0aIDbgO8eIN-37" vertex="1">
          <mxGeometry y="370" width="90" height="30" as="geometry" />
        </mxCell>
        <mxCell id="lxkWE_nYF12pFrZx-rZn-32" value="Settings" style="rounded=1;whiteSpace=wrap;html=1;" vertex="1" parent="xeaUYaUfG0aIDbgO8eIN-37">
          <mxGeometry y="410" width="90" height="30" as="geometry" />
        </mxCell>
        <mxCell id="QYLtIBHe6K4uLPgKfc74-93" value="Each Line item should have a separate page when created or for CRUD" style="rounded=1;whiteSpace=wrap;html=1;" vertex="1" parent="xeaUYaUfG0aIDbgO8eIN-37">
          <mxGeometry x="100" y="310" width="330" height="60" as="geometry" />
        </mxCell>
        <mxCell id="xeaUYaUfG0aIDbgO8eIN-57" value="s" style="swimlane;startSize=0;" parent="1" vertex="1">
          <mxGeometry x="2340" y="-60" width="590" height="480" as="geometry">
            <mxRectangle x="-320" y="-640" width="50" height="40" as="alternateBounds" />
          </mxGeometry>
        </mxCell>
        <mxCell id="xeaUYaUfG0aIDbgO8eIN-58" value="MOAQA" style="rounded=1;whiteSpace=wrap;html=1;" parent="xeaUYaUfG0aIDbgO8eIN-57" vertex="1">
          <mxGeometry width="90" height="40" as="geometry" />
        </mxCell>
        <mxCell id="xeaUYaUfG0aIDbgO8eIN-59" value="Enterprise Name" style="rounded=1;whiteSpace=wrap;html=1;" parent="xeaUYaUfG0aIDbgO8eIN-57" vertex="1">
          <mxGeometry x="100" width="320" height="40" as="geometry" />
        </mxCell>
        <mxCell id="xeaUYaUfG0aIDbgO8eIN-60" value="" style="ellipse;shape=doubleEllipse;whiteSpace=wrap;html=1;aspect=fixed;" parent="xeaUYaUfG0aIDbgO8eIN-57" vertex="1">
          <mxGeometry x="540" y="10" width="40" height="40" as="geometry" />
        </mxCell>
        <mxCell id="xeaUYaUfG0aIDbgO8eIN-61" value="Dashboard" style="rounded=1;whiteSpace=wrap;html=1;fillColor=light-dark(#FFFFFF,transparent);" parent="xeaUYaUfG0aIDbgO8eIN-57" vertex="1">
          <mxGeometry y="50" width="90" height="30" as="geometry" />
        </mxCell>
        <mxCell id="xeaUYaUfG0aIDbgO8eIN-62" value="Products" style="rounded=1;whiteSpace=wrap;html=1;" parent="xeaUYaUfG0aIDbgO8eIN-57" vertex="1">
          <mxGeometry y="90" width="90" height="30" as="geometry" />
        </mxCell>
        <mxCell id="xeaUYaUfG0aIDbgO8eIN-63" value="Services" style="rounded=1;whiteSpace=wrap;html=1;fillColor=light-dark(#FFFFFF,transparent);" parent="xeaUYaUfG0aIDbgO8eIN-57" vertex="1">
          <mxGeometry y="130" width="90" height="30" as="geometry" />
        </mxCell>
        <mxCell id="xeaUYaUfG0aIDbgO8eIN-64" value="Profile" style="rounded=1;whiteSpace=wrap;html=1;fillColor=light-dark(#FFFFFF,transparent);" parent="xeaUYaUfG0aIDbgO8eIN-57" vertex="1">
          <mxGeometry y="170" width="90" height="30" as="geometry" />
        </mxCell>
        <mxCell id="xeaUYaUfG0aIDbgO8eIN-65" value="Quotations" style="rounded=1;whiteSpace=wrap;html=1;fillColor=light-dark(#FFFFFF,#006600);" parent="xeaUYaUfG0aIDbgO8eIN-57" vertex="1">
          <mxGeometry y="210" width="90" height="30" as="geometry" />
        </mxCell>
        <mxCell id="xeaUYaUfG0aIDbgO8eIN-66" value="Invoices" style="rounded=1;whiteSpace=wrap;html=1;" parent="xeaUYaUfG0aIDbgO8eIN-57" vertex="1">
          <mxGeometry y="250" width="90" height="30" as="geometry" />
        </mxCell>
        <mxCell id="xeaUYaUfG0aIDbgO8eIN-67" value="Reports" style="rounded=1;whiteSpace=wrap;html=1;" parent="xeaUYaUfG0aIDbgO8eIN-57" vertex="1">
          <mxGeometry y="290" width="90" height="30" as="geometry" />
        </mxCell>
        <mxCell id="xeaUYaUfG0aIDbgO8eIN-68" value="Create Ticket" style="rounded=1;whiteSpace=wrap;html=1;" parent="xeaUYaUfG0aIDbgO8eIN-57" vertex="1">
          <mxGeometry y="330" width="90" height="30" as="geometry" />
        </mxCell>
        <mxCell id="xeaUYaUfG0aIDbgO8eIN-69" value="CRM" style="rounded=1;whiteSpace=wrap;html=1;" parent="xeaUYaUfG0aIDbgO8eIN-57" vertex="1">
          <mxGeometry x="100" y="50" width="80" height="30" as="geometry" />
        </mxCell>
        <mxCell id="xeaUYaUfG0aIDbgO8eIN-70" value="HRMS" style="rounded=1;whiteSpace=wrap;html=1;" parent="xeaUYaUfG0aIDbgO8eIN-57" vertex="1">
          <mxGeometry x="190" y="50" width="80" height="30" as="geometry" />
        </mxCell>
        <mxCell id="xeaUYaUfG0aIDbgO8eIN-71" value="Job Portal" style="rounded=1;whiteSpace=wrap;html=1;" parent="xeaUYaUfG0aIDbgO8eIN-57" vertex="1">
          <mxGeometry x="280" y="50" width="80" height="30" as="geometry" />
        </mxCell>
        <mxCell id="xeaUYaUfG0aIDbgO8eIN-72" value="Job Board" style="rounded=1;whiteSpace=wrap;html=1;" parent="xeaUYaUfG0aIDbgO8eIN-57" vertex="1">
          <mxGeometry x="370" y="50" width="80" height="30" as="geometry" />
        </mxCell>
        <mxCell id="xeaUYaUfG0aIDbgO8eIN-73" value="Project Management" style="rounded=1;whiteSpace=wrap;html=1;" parent="xeaUYaUfG0aIDbgO8eIN-57" vertex="1">
          <mxGeometry x="460" y="50" width="80" height="30" as="geometry" />
        </mxCell>
        <mxCell id="xeaUYaUfG0aIDbgO8eIN-74" value="Notifications" style="rounded=1;whiteSpace=wrap;html=1;" parent="xeaUYaUfG0aIDbgO8eIN-57" vertex="1">
          <mxGeometry x="450" y="100" width="120" height="310" as="geometry" />
        </mxCell>
        <mxCell id="xeaUYaUfG0aIDbgO8eIN-75" value="" style="html=1;verticalLabelPosition=bottom;align=center;labelBackgroundColor=#ffffff;verticalAlign=top;strokeWidth=2;strokeColor=#0080F0;shadow=0;dashed=0;shape=mxgraph.ios7.icons.bell;" parent="xeaUYaUfG0aIDbgO8eIN-57" vertex="1">
          <mxGeometry x="510" y="16.899999999999977" width="24" height="23.099999999999998" as="geometry" />
        </mxCell>
        <mxCell id="xeaUYaUfG0aIDbgO8eIN-81" value="Quotation" style="swimlane;whiteSpace=wrap;html=1;" parent="xeaUYaUfG0aIDbgO8eIN-57" vertex="1">
          <mxGeometry x="110" y="100" width="320" height="310" as="geometry" />
        </mxCell>
        <mxCell id="xeaUYaUfG0aIDbgO8eIN-82" value="List of Quotations provided by Super Admin to Enterprise individually and view quotations.&amp;nbsp;" style="rounded=1;whiteSpace=wrap;html=1;" parent="xeaUYaUfG0aIDbgO8eIN-81" vertex="1">
          <mxGeometry x="10" y="30" width="300" height="270" as="geometry" />
        </mxCell>
        <mxCell id="xeaUYaUfG0aIDbgO8eIN-193" value="Add Users" style="rounded=1;whiteSpace=wrap;html=1;" parent="xeaUYaUfG0aIDbgO8eIN-57" vertex="1">
          <mxGeometry y="370" width="90" height="30" as="geometry" />
        </mxCell>
        <mxCell id="lxkWE_nYF12pFrZx-rZn-34" value="Settings" style="rounded=1;whiteSpace=wrap;html=1;" vertex="1" parent="xeaUYaUfG0aIDbgO8eIN-57">
          <mxGeometry y="410" width="90" height="30" as="geometry" />
        </mxCell>
        <mxCell id="QYLtIBHe6K4uLPgKfc74-95" value="Each Line item should have a separate page when created or for CRUD" style="rounded=1;whiteSpace=wrap;html=1;" vertex="1" parent="xeaUYaUfG0aIDbgO8eIN-57">
          <mxGeometry x="105" y="410" width="330" height="60" as="geometry" />
        </mxCell>
        <mxCell id="xeaUYaUfG0aIDbgO8eIN-104" value="s" style="swimlane;startSize=0;" parent="1" vertex="1">
          <mxGeometry x="1730" y="-60" width="590" height="480" as="geometry">
            <mxRectangle x="-320" y="-640" width="50" height="40" as="alternateBounds" />
          </mxGeometry>
        </mxCell>
        <mxCell id="xeaUYaUfG0aIDbgO8eIN-105" value="MOAQA" style="rounded=1;whiteSpace=wrap;html=1;" parent="xeaUYaUfG0aIDbgO8eIN-104" vertex="1">
          <mxGeometry width="90" height="40" as="geometry" />
        </mxCell>
        <mxCell id="xeaUYaUfG0aIDbgO8eIN-106" value="Enterprise Name" style="rounded=1;whiteSpace=wrap;html=1;" parent="xeaUYaUfG0aIDbgO8eIN-104" vertex="1">
          <mxGeometry x="100" width="320" height="40" as="geometry" />
        </mxCell>
        <mxCell id="xeaUYaUfG0aIDbgO8eIN-107" value="" style="ellipse;shape=doubleEllipse;whiteSpace=wrap;html=1;aspect=fixed;" parent="xeaUYaUfG0aIDbgO8eIN-104" vertex="1">
          <mxGeometry x="540" y="10" width="40" height="40" as="geometry" />
        </mxCell>
        <mxCell id="xeaUYaUfG0aIDbgO8eIN-108" value="Dashboard" style="rounded=1;whiteSpace=wrap;html=1;fillColor=light-dark(#FFFFFF,transparent);" parent="xeaUYaUfG0aIDbgO8eIN-104" vertex="1">
          <mxGeometry y="50" width="90" height="30" as="geometry" />
        </mxCell>
        <mxCell id="xeaUYaUfG0aIDbgO8eIN-109" value="Products" style="rounded=1;whiteSpace=wrap;html=1;" parent="xeaUYaUfG0aIDbgO8eIN-104" vertex="1">
          <mxGeometry y="90" width="90" height="30" as="geometry" />
        </mxCell>
        <mxCell id="xeaUYaUfG0aIDbgO8eIN-110" value="Services" style="rounded=1;whiteSpace=wrap;html=1;fillColor=light-dark(#FFFFFF,transparent);" parent="xeaUYaUfG0aIDbgO8eIN-104" vertex="1">
          <mxGeometry y="130" width="90" height="30" as="geometry" />
        </mxCell>
        <mxCell id="xeaUYaUfG0aIDbgO8eIN-111" value="Profile" style="rounded=1;whiteSpace=wrap;html=1;fillColor=light-dark(#FFFFFF,#006600);" parent="xeaUYaUfG0aIDbgO8eIN-104" vertex="1">
          <mxGeometry y="170" width="90" height="30" as="geometry" />
        </mxCell>
        <mxCell id="xeaUYaUfG0aIDbgO8eIN-112" value="Quotations" style="rounded=1;whiteSpace=wrap;html=1;" parent="xeaUYaUfG0aIDbgO8eIN-104" vertex="1">
          <mxGeometry y="210" width="90" height="30" as="geometry" />
        </mxCell>
        <mxCell id="xeaUYaUfG0aIDbgO8eIN-113" value="Invoices" style="rounded=1;whiteSpace=wrap;html=1;" parent="xeaUYaUfG0aIDbgO8eIN-104" vertex="1">
          <mxGeometry y="250" width="90" height="30" as="geometry" />
        </mxCell>
        <mxCell id="xeaUYaUfG0aIDbgO8eIN-114" value="Reports" style="rounded=1;whiteSpace=wrap;html=1;" parent="xeaUYaUfG0aIDbgO8eIN-104" vertex="1">
          <mxGeometry y="290" width="90" height="30" as="geometry" />
        </mxCell>
        <mxCell id="xeaUYaUfG0aIDbgO8eIN-115" value="Create Ticket" style="rounded=1;whiteSpace=wrap;html=1;" parent="xeaUYaUfG0aIDbgO8eIN-104" vertex="1">
          <mxGeometry y="330" width="90" height="30" as="geometry" />
        </mxCell>
        <mxCell id="xeaUYaUfG0aIDbgO8eIN-116" value="CRM" style="rounded=1;whiteSpace=wrap;html=1;" parent="xeaUYaUfG0aIDbgO8eIN-104" vertex="1">
          <mxGeometry x="100" y="50" width="80" height="30" as="geometry" />
        </mxCell>
        <mxCell id="xeaUYaUfG0aIDbgO8eIN-117" value="HRMS" style="rounded=1;whiteSpace=wrap;html=1;" parent="xeaUYaUfG0aIDbgO8eIN-104" vertex="1">
          <mxGeometry x="190" y="50" width="80" height="30" as="geometry" />
        </mxCell>
        <mxCell id="xeaUYaUfG0aIDbgO8eIN-118" value="Job Portal" style="rounded=1;whiteSpace=wrap;html=1;" parent="xeaUYaUfG0aIDbgO8eIN-104" vertex="1">
          <mxGeometry x="280" y="50" width="80" height="30" as="geometry" />
        </mxCell>
        <mxCell id="xeaUYaUfG0aIDbgO8eIN-119" value="Job Board" style="rounded=1;whiteSpace=wrap;html=1;" parent="xeaUYaUfG0aIDbgO8eIN-104" vertex="1">
          <mxGeometry x="370" y="50" width="80" height="30" as="geometry" />
        </mxCell>
        <mxCell id="xeaUYaUfG0aIDbgO8eIN-120" value="Project Management" style="rounded=1;whiteSpace=wrap;html=1;" parent="xeaUYaUfG0aIDbgO8eIN-104" vertex="1">
          <mxGeometry x="460" y="50" width="80" height="30" as="geometry" />
        </mxCell>
        <mxCell id="xeaUYaUfG0aIDbgO8eIN-121" value="Notifications" style="rounded=1;whiteSpace=wrap;html=1;" parent="xeaUYaUfG0aIDbgO8eIN-104" vertex="1">
          <mxGeometry x="450" y="100" width="120" height="310" as="geometry" />
        </mxCell>
        <mxCell id="xeaUYaUfG0aIDbgO8eIN-122" value="" style="html=1;verticalLabelPosition=bottom;align=center;labelBackgroundColor=#ffffff;verticalAlign=top;strokeWidth=2;strokeColor=#0080F0;shadow=0;dashed=0;shape=mxgraph.ios7.icons.bell;" parent="xeaUYaUfG0aIDbgO8eIN-104" vertex="1">
          <mxGeometry x="510" y="16.899999999999977" width="24" height="23.099999999999998" as="geometry" />
        </mxCell>
        <mxCell id="xeaUYaUfG0aIDbgO8eIN-123" value="Edit Profile" style="swimlane;whiteSpace=wrap;html=1;" parent="xeaUYaUfG0aIDbgO8eIN-104" vertex="1">
          <mxGeometry x="110" y="100" width="320" height="310" as="geometry" />
        </mxCell>
        <mxCell id="xeaUYaUfG0aIDbgO8eIN-124" value="&#xa;&lt;span style=&quot;forced-color-adjust: none; box-shadow: none !important; color: light-dark(rgb(0, 0, 0), rgb(255, 255, 255)); font-family: Helvetica; font-size: 12px; font-style: normal; font-variant-ligatures: normal; font-variant-caps: normal; font-weight: 400; letter-spacing: normal; orphans: 2; text-align: center; text-indent: 0px; text-transform: none; widows: 2; word-spacing: 0px; -webkit-text-stroke-width: 0px; white-space: normal; background-color: transparent; text-decoration-thickness: initial; text-decoration-style: initial; text-decoration-color: initial;&quot;&gt;&lt;div style=&quot;forced-color-adjust: none; box-shadow: none !important; text-align: left;&quot;&gt;&lt;span style=&quot;forced-color-adjust: none; box-shadow: none !important; background-color: transparent; color: light-dark(rgb(0, 0, 0), rgb(255, 255, 255));&quot;&gt;Logo&lt;/span&gt;&lt;/div&gt;&lt;/span&gt;&lt;span style=&quot;forced-color-adjust: none; box-shadow: none !important; color: light-dark(rgb(0, 0, 0), rgb(255, 255, 255)); font-family: Helvetica; font-size: 12px; font-style: normal; font-variant-ligatures: normal; font-variant-caps: normal; font-weight: 400; letter-spacing: normal; orphans: 2; text-align: center; text-indent: 0px; text-transform: none; widows: 2; word-spacing: 0px; -webkit-text-stroke-width: 0px; white-space: normal; background-color: transparent; text-decoration-thickness: initial; text-decoration-style: initial; text-decoration-color: initial;&quot;&gt;&lt;div style=&quot;forced-color-adjust: none; box-shadow: none !important; text-align: left;&quot;&gt;&lt;span style=&quot;forced-color-adjust: none; box-shadow: none !important; background-color: transparent; color: light-dark(rgb(0, 0, 0), rgb(255, 255, 255));&quot;&gt;Address&lt;/span&gt;&lt;/div&gt;&lt;/span&gt;&lt;span style=&quot;forced-color-adjust: none; box-shadow: none !important; color: light-dark(rgb(0, 0, 0), rgb(255, 255, 255)); font-family: Helvetica; font-size: 12px; font-style: normal; font-variant-ligatures: normal; font-variant-caps: normal; font-weight: 400; letter-spacing: normal; orphans: 2; text-align: center; text-indent: 0px; text-transform: none; widows: 2; word-spacing: 0px; -webkit-text-stroke-width: 0px; white-space: normal; background-color: transparent; text-decoration-thickness: initial; text-decoration-style: initial; text-decoration-color: initial;&quot;&gt;&lt;div style=&quot;forced-color-adjust: none; box-shadow: none !important; text-align: left;&quot;&gt;&lt;span style=&quot;forced-color-adjust: none; box-shadow: none !important; background-color: transparent; color: light-dark(rgb(0, 0, 0), rgb(255, 255, 255));&quot;&gt;Mailing Address&lt;/span&gt;&lt;/div&gt;&lt;/span&gt;&lt;span style=&quot;forced-color-adjust: none; box-shadow: none !important; color: light-dark(rgb(0, 0, 0), rgb(255, 255, 255)); font-family: Helvetica; font-size: 12px; font-style: normal; font-variant-ligatures: normal; font-variant-caps: normal; font-weight: 400; letter-spacing: normal; orphans: 2; text-align: center; text-indent: 0px; text-transform: none; widows: 2; word-spacing: 0px; -webkit-text-stroke-width: 0px; white-space: normal; background-color: transparent; text-decoration-thickness: initial; text-decoration-style: initial; text-decoration-color: initial;&quot;&gt;&lt;div style=&quot;forced-color-adjust: none; box-shadow: none !important; text-align: left;&quot;&gt;&lt;span style=&quot;forced-color-adjust: none; box-shadow: none !important; background-color: transparent; color: light-dark(rgb(0, 0, 0), rgb(255, 255, 255));&quot;&gt;City&lt;/span&gt;&lt;/div&gt;&lt;/span&gt;&lt;span style=&quot;forced-color-adjust: none; box-shadow: none !important; color: light-dark(rgb(0, 0, 0), rgb(255, 255, 255)); font-family: Helvetica; font-size: 12px; font-style: normal; font-variant-ligatures: normal; font-variant-caps: normal; font-weight: 400; letter-spacing: normal; orphans: 2; text-align: center; text-indent: 0px; text-transform: none; widows: 2; word-spacing: 0px; -webkit-text-stroke-width: 0px; white-space: normal; background-color: transparent; text-decoration-thickness: initial; text-decoration-style: initial; text-decoration-color: initial;&quot;&gt;&lt;div style=&quot;forced-color-adjust: none; box-shadow: none !important; text-align: left;&quot;&gt;&lt;span style=&quot;forced-color-adjust: none; box-shadow: none !important; background-color: transparent; color: light-dark(rgb(0, 0, 0), rgb(255, 255, 255));&quot;&gt;Country&lt;/span&gt;&lt;/div&gt;&lt;/span&gt;&lt;span style=&quot;forced-color-adjust: none; box-shadow: none !important; color: light-dark(rgb(0, 0, 0), rgb(255, 255, 255)); font-family: Helvetica; font-size: 12px; font-style: normal; font-variant-ligatures: normal; font-variant-caps: normal; font-weight: 400; letter-spacing: normal; orphans: 2; text-align: center; text-indent: 0px; text-transform: none; widows: 2; word-spacing: 0px; -webkit-text-stroke-width: 0px; white-space: normal; background-color: transparent; text-decoration-thickness: initial; text-decoration-style: initial; text-decoration-color: initial;&quot;&gt;&lt;div style=&quot;forced-color-adjust: none; box-shadow: none !important; text-align: left;&quot;&gt;&lt;span style=&quot;forced-color-adjust: none; box-shadow: none !important; background-color: transparent; color: light-dark(rgb(0, 0, 0), rgb(255, 255, 255));&quot;&gt;Zip Code&lt;/span&gt;&lt;/div&gt;&lt;/span&gt;&lt;span style=&quot;forced-color-adjust: none; box-shadow: none !important; color: light-dark(rgb(0, 0, 0), rgb(255, 255, 255)); font-family: Helvetica; font-size: 12px; font-style: normal; font-variant-ligatures: normal; font-variant-caps: normal; font-weight: 400; letter-spacing: normal; orphans: 2; text-align: center; text-indent: 0px; text-transform: none; widows: 2; word-spacing: 0px; -webkit-text-stroke-width: 0px; white-space: normal; background-color: transparent; text-decoration-thickness: initial; text-decoration-style: initial; text-decoration-color: initial;&quot;&gt;&lt;div style=&quot;forced-color-adjust: none; box-shadow: none !important; text-align: left;&quot;&gt;&lt;span style=&quot;forced-color-adjust: none; box-shadow: none !important; background-color: transparent; color: light-dark(rgb(0, 0, 0), rgb(255, 255, 255));&quot;&gt;Phone Number&lt;/span&gt;&lt;/div&gt;&lt;/span&gt;&lt;span style=&quot;forced-color-adjust: none; box-shadow: none !important; color: light-dark(rgb(0, 0, 0), rgb(255, 255, 255)); font-family: Helvetica; font-size: 12px; font-style: normal; font-variant-ligatures: normal; font-variant-caps: normal; font-weight: 400; letter-spacing: normal; orphans: 2; text-align: center; text-indent: 0px; text-transform: none; widows: 2; word-spacing: 0px; -webkit-text-stroke-width: 0px; white-space: normal; background-color: transparent; text-decoration-thickness: initial; text-decoration-style: initial; text-decoration-color: initial;&quot;&gt;&lt;div style=&quot;forced-color-adjust: none; box-shadow: none !important; text-align: left;&quot;&gt;&lt;span style=&quot;forced-color-adjust: none; box-shadow: none !important; background-color: transparent; color: light-dark(rgb(0, 0, 0), rgb(255, 255, 255));&quot;&gt;Company Email&lt;/span&gt;&lt;/div&gt;&lt;/span&gt;&lt;span style=&quot;forced-color-adjust: none; box-shadow: none !important; color: light-dark(rgb(0, 0, 0), rgb(255, 255, 255)); font-family: Helvetica; font-size: 12px; font-style: normal; font-variant-ligatures: normal; font-variant-caps: normal; font-weight: 400; letter-spacing: normal; orphans: 2; text-align: center; text-indent: 0px; text-transform: none; widows: 2; word-spacing: 0px; -webkit-text-stroke-width: 0px; white-space: normal; background-color: transparent; text-decoration-thickness: initial; text-decoration-style: initial; text-decoration-color: initial;&quot;&gt;&lt;div style=&quot;forced-color-adjust: none; box-shadow: none !important; text-align: left;&quot;&gt;&lt;span style=&quot;forced-color-adjust: none; box-shadow: none !important; background-color: transparent; color: light-dark(rgb(0, 0, 0), rgb(255, 255, 255));&quot;&gt;User&lt;/span&gt;&lt;/div&gt;&lt;/span&gt;&lt;span style=&quot;forced-color-adjust: none; box-shadow: none !important; color: light-dark(rgb(0, 0, 0), rgb(255, 255, 255)); font-family: Helvetica; font-size: 12px; font-style: normal; font-variant-ligatures: normal; font-variant-caps: normal; font-weight: 400; letter-spacing: normal; orphans: 2; text-align: center; text-indent: 0px; text-transform: none; widows: 2; word-spacing: 0px; -webkit-text-stroke-width: 0px; white-space: normal; background-color: transparent; text-decoration-thickness: initial; text-decoration-style: initial; text-decoration-color: initial;&quot;&gt;&lt;div style=&quot;forced-color-adjust: none; box-shadow: none !important; text-align: left;&quot;&gt;&lt;span style=&quot;forced-color-adjust: none; box-shadow: none !important; background-color: transparent; color: light-dark(rgb(0, 0, 0), rgb(255, 255, 255));&quot;&gt;Password&lt;/span&gt;&lt;/div&gt;&lt;/span&gt;&lt;span style=&quot;forced-color-adjust: none; box-shadow: none !important; color: light-dark(rgb(0, 0, 0), rgb(255, 255, 255)); font-family: Helvetica; font-size: 12px; font-style: normal; font-variant-ligatures: normal; font-variant-caps: normal; font-weight: 400; letter-spacing: normal; orphans: 2; text-align: center; text-indent: 0px; text-transform: none; widows: 2; word-spacing: 0px; -webkit-text-stroke-width: 0px; white-space: normal; background-color: transparent; text-decoration-thickness: initial; text-decoration-style: initial; text-decoration-color: initial;&quot;&gt;&lt;div style=&quot;forced-color-adjust: none; box-shadow: none !important; text-align: left;&quot;&gt;&lt;span style=&quot;forced-color-adjust: none; box-shadow: none !important; background-color: transparent; color: light-dark(rgb(0, 0, 0), rgb(255, 255, 255));&quot;&gt;Link to Login&lt;/span&gt;&lt;/div&gt;&lt;/span&gt;&lt;span style=&quot;forced-color-adjust: none; box-shadow: none !important; color: light-dark(rgb(0, 0, 0), rgb(255, 255, 255)); font-family: Helvetica; font-size: 12px; font-style: normal; font-variant-ligatures: normal; font-variant-caps: normal; font-weight: 400; letter-spacing: normal; orphans: 2; text-align: center; text-indent: 0px; text-transform: none; widows: 2; word-spacing: 0px; -webkit-text-stroke-width: 0px; white-space: normal; background-color: transparent; text-decoration-thickness: initial; text-decoration-style: initial; text-decoration-color: initial;&quot;&gt;&lt;div style=&quot;forced-color-adjust: none; box-shadow: none !important; text-align: left;&quot;&gt;&lt;span style=&quot;forced-color-adjust: none; box-shadow: none !important; background-color: transparent; color: light-dark(rgb(0, 0, 0), rgb(255, 255, 255));&quot;&gt;Industry&lt;/span&gt;&lt;/div&gt;&lt;/span&gt;&lt;span style=&quot;forced-color-adjust: none; box-shadow: none !important; color: light-dark(rgb(0, 0, 0), rgb(255, 255, 255)); font-family: Helvetica; font-size: 12px; font-style: normal; font-variant-ligatures: normal; font-variant-caps: normal; font-weight: 400; letter-spacing: normal; orphans: 2; text-align: center; text-indent: 0px; text-transform: none; widows: 2; word-spacing: 0px; -webkit-text-stroke-width: 0px; white-space: normal; background-color: transparent; text-decoration-thickness: initial; text-decoration-style: initial; text-decoration-color: initial;&quot;&gt;&lt;div style=&quot;forced-color-adjust: none; box-shadow: none !important; text-align: left;&quot;&gt;&lt;span style=&quot;forced-color-adjust: none; box-shadow: none !important; background-color: transparent; color: light-dark(rgb(0, 0, 0), rgb(255, 255, 255));&quot;&gt;Business&lt;/span&gt;&lt;/div&gt;&lt;/span&gt;&#xa;&#xa;" style="rounded=1;whiteSpace=wrap;html=1;" parent="xeaUYaUfG0aIDbgO8eIN-123" vertex="1">
          <mxGeometry x="10" y="30" width="300" height="270" as="geometry" />
        </mxCell>
        <mxCell id="xeaUYaUfG0aIDbgO8eIN-192" value="Add Users" style="rounded=1;whiteSpace=wrap;html=1;" parent="xeaUYaUfG0aIDbgO8eIN-104" vertex="1">
          <mxGeometry y="370" width="90" height="30" as="geometry" />
        </mxCell>
        <mxCell id="lxkWE_nYF12pFrZx-rZn-33" value="Settings" style="rounded=1;whiteSpace=wrap;html=1;" vertex="1" parent="xeaUYaUfG0aIDbgO8eIN-104">
          <mxGeometry y="410" width="90" height="30" as="geometry" />
        </mxCell>
        <mxCell id="QYLtIBHe6K4uLPgKfc74-94" value="Each Line item should have a separate page when created or for CRUD" style="rounded=1;whiteSpace=wrap;html=1;" vertex="1" parent="xeaUYaUfG0aIDbgO8eIN-104">
          <mxGeometry x="120" y="410" width="330" height="60" as="geometry" />
        </mxCell>
        <mxCell id="xeaUYaUfG0aIDbgO8eIN-125" value="s" style="swimlane;startSize=0;" parent="1" vertex="1">
          <mxGeometry x="2970" y="-60" width="590" height="480" as="geometry">
            <mxRectangle x="-320" y="-640" width="50" height="40" as="alternateBounds" />
          </mxGeometry>
        </mxCell>
        <mxCell id="xeaUYaUfG0aIDbgO8eIN-126" value="MOAQA" style="rounded=1;whiteSpace=wrap;html=1;" parent="xeaUYaUfG0aIDbgO8eIN-125" vertex="1">
          <mxGeometry width="90" height="40" as="geometry" />
        </mxCell>
        <mxCell id="xeaUYaUfG0aIDbgO8eIN-127" value="Enterprise Name" style="rounded=1;whiteSpace=wrap;html=1;" parent="xeaUYaUfG0aIDbgO8eIN-125" vertex="1">
          <mxGeometry x="100" width="320" height="40" as="geometry" />
        </mxCell>
        <mxCell id="xeaUYaUfG0aIDbgO8eIN-128" value="" style="ellipse;shape=doubleEllipse;whiteSpace=wrap;html=1;aspect=fixed;" parent="xeaUYaUfG0aIDbgO8eIN-125" vertex="1">
          <mxGeometry x="540" y="10" width="40" height="40" as="geometry" />
        </mxCell>
        <mxCell id="xeaUYaUfG0aIDbgO8eIN-129" value="Dashboard" style="rounded=1;whiteSpace=wrap;html=1;fillColor=light-dark(#FFFFFF,transparent);" parent="xeaUYaUfG0aIDbgO8eIN-125" vertex="1">
          <mxGeometry y="50" width="90" height="30" as="geometry" />
        </mxCell>
        <mxCell id="xeaUYaUfG0aIDbgO8eIN-130" value="Products" style="rounded=1;whiteSpace=wrap;html=1;" parent="xeaUYaUfG0aIDbgO8eIN-125" vertex="1">
          <mxGeometry y="90" width="90" height="30" as="geometry" />
        </mxCell>
        <mxCell id="xeaUYaUfG0aIDbgO8eIN-131" value="Services" style="rounded=1;whiteSpace=wrap;html=1;fillColor=light-dark(#FFFFFF,transparent);" parent="xeaUYaUfG0aIDbgO8eIN-125" vertex="1">
          <mxGeometry y="130" width="90" height="30" as="geometry" />
        </mxCell>
        <mxCell id="xeaUYaUfG0aIDbgO8eIN-132" value="Profile" style="rounded=1;whiteSpace=wrap;html=1;fillColor=light-dark(#FFFFFF,transparent);" parent="xeaUYaUfG0aIDbgO8eIN-125" vertex="1">
          <mxGeometry y="170" width="90" height="30" as="geometry" />
        </mxCell>
        <mxCell id="xeaUYaUfG0aIDbgO8eIN-133" value="Quotations" style="rounded=1;whiteSpace=wrap;html=1;fillColor=light-dark(#FFFFFF,transparent);" parent="xeaUYaUfG0aIDbgO8eIN-125" vertex="1">
          <mxGeometry y="210" width="90" height="30" as="geometry" />
        </mxCell>
        <mxCell id="xeaUYaUfG0aIDbgO8eIN-134" value="Invoices" style="rounded=1;whiteSpace=wrap;html=1;fillColor=light-dark(#FFFFFF,#006600);" parent="xeaUYaUfG0aIDbgO8eIN-125" vertex="1">
          <mxGeometry y="250" width="90" height="30" as="geometry" />
        </mxCell>
        <mxCell id="xeaUYaUfG0aIDbgO8eIN-135" value="Reports" style="rounded=1;whiteSpace=wrap;html=1;" parent="xeaUYaUfG0aIDbgO8eIN-125" vertex="1">
          <mxGeometry y="290" width="90" height="30" as="geometry" />
        </mxCell>
        <mxCell id="xeaUYaUfG0aIDbgO8eIN-136" value="Create Ticket" style="rounded=1;whiteSpace=wrap;html=1;" parent="xeaUYaUfG0aIDbgO8eIN-125" vertex="1">
          <mxGeometry y="330" width="90" height="30" as="geometry" />
        </mxCell>
        <mxCell id="xeaUYaUfG0aIDbgO8eIN-137" value="CRM" style="rounded=1;whiteSpace=wrap;html=1;" parent="xeaUYaUfG0aIDbgO8eIN-125" vertex="1">
          <mxGeometry x="100" y="50" width="80" height="30" as="geometry" />
        </mxCell>
        <mxCell id="xeaUYaUfG0aIDbgO8eIN-138" value="HRMS" style="rounded=1;whiteSpace=wrap;html=1;" parent="xeaUYaUfG0aIDbgO8eIN-125" vertex="1">
          <mxGeometry x="190" y="50" width="80" height="30" as="geometry" />
        </mxCell>
        <mxCell id="xeaUYaUfG0aIDbgO8eIN-139" value="Job Portal" style="rounded=1;whiteSpace=wrap;html=1;" parent="xeaUYaUfG0aIDbgO8eIN-125" vertex="1">
          <mxGeometry x="280" y="50" width="80" height="30" as="geometry" />
        </mxCell>
        <mxCell id="xeaUYaUfG0aIDbgO8eIN-140" value="Job Board" style="rounded=1;whiteSpace=wrap;html=1;" parent="xeaUYaUfG0aIDbgO8eIN-125" vertex="1">
          <mxGeometry x="370" y="50" width="80" height="30" as="geometry" />
        </mxCell>
        <mxCell id="xeaUYaUfG0aIDbgO8eIN-141" value="Project Management" style="rounded=1;whiteSpace=wrap;html=1;" parent="xeaUYaUfG0aIDbgO8eIN-125" vertex="1">
          <mxGeometry x="460" y="50" width="80" height="30" as="geometry" />
        </mxCell>
        <mxCell id="xeaUYaUfG0aIDbgO8eIN-142" value="Notifications" style="rounded=1;whiteSpace=wrap;html=1;" parent="xeaUYaUfG0aIDbgO8eIN-125" vertex="1">
          <mxGeometry x="450" y="100" width="120" height="310" as="geometry" />
        </mxCell>
        <mxCell id="xeaUYaUfG0aIDbgO8eIN-143" value="" style="html=1;verticalLabelPosition=bottom;align=center;labelBackgroundColor=#ffffff;verticalAlign=top;strokeWidth=2;strokeColor=#0080F0;shadow=0;dashed=0;shape=mxgraph.ios7.icons.bell;" parent="xeaUYaUfG0aIDbgO8eIN-125" vertex="1">
          <mxGeometry x="510" y="16.899999999999977" width="24" height="23.099999999999998" as="geometry" />
        </mxCell>
        <mxCell id="xeaUYaUfG0aIDbgO8eIN-144" value="Invoices" style="swimlane;whiteSpace=wrap;html=1;startSize=23;" parent="xeaUYaUfG0aIDbgO8eIN-125" vertex="1">
          <mxGeometry x="110" y="100" width="320" height="310" as="geometry" />
        </mxCell>
        <mxCell id="xeaUYaUfG0aIDbgO8eIN-145" value="List of Invoice with paid date, Due Date, View invoices and payment of invoices." style="rounded=1;whiteSpace=wrap;html=1;" parent="xeaUYaUfG0aIDbgO8eIN-144" vertex="1">
          <mxGeometry x="10" y="30" width="300" height="270" as="geometry" />
        </mxCell>
        <mxCell id="xeaUYaUfG0aIDbgO8eIN-194" value="Add Users" style="rounded=1;whiteSpace=wrap;html=1;" parent="xeaUYaUfG0aIDbgO8eIN-125" vertex="1">
          <mxGeometry y="370" width="90" height="30" as="geometry" />
        </mxCell>
        <mxCell id="lxkWE_nYF12pFrZx-rZn-35" value="Settings" style="rounded=1;whiteSpace=wrap;html=1;" vertex="1" parent="xeaUYaUfG0aIDbgO8eIN-125">
          <mxGeometry y="410" width="90" height="30" as="geometry" />
        </mxCell>
        <mxCell id="QYLtIBHe6K4uLPgKfc74-120" value="Each Line item should have a separate page when created or for CRUD" style="rounded=1;whiteSpace=wrap;html=1;" vertex="1" parent="xeaUYaUfG0aIDbgO8eIN-125">
          <mxGeometry x="110" y="410" width="330" height="60" as="geometry" />
        </mxCell>
        <mxCell id="xeaUYaUfG0aIDbgO8eIN-146" value="s" style="swimlane;startSize=0;" parent="1" vertex="1">
          <mxGeometry x="3590" y="-60" width="590" height="480" as="geometry">
            <mxRectangle x="-320" y="-640" width="50" height="40" as="alternateBounds" />
          </mxGeometry>
        </mxCell>
        <mxCell id="xeaUYaUfG0aIDbgO8eIN-147" value="MOAQA" style="rounded=1;whiteSpace=wrap;html=1;" parent="xeaUYaUfG0aIDbgO8eIN-146" vertex="1">
          <mxGeometry width="90" height="40" as="geometry" />
        </mxCell>
        <mxCell id="xeaUYaUfG0aIDbgO8eIN-148" value="Enterprise Name" style="rounded=1;whiteSpace=wrap;html=1;" parent="xeaUYaUfG0aIDbgO8eIN-146" vertex="1">
          <mxGeometry x="100" width="320" height="40" as="geometry" />
        </mxCell>
        <mxCell id="xeaUYaUfG0aIDbgO8eIN-149" value="" style="ellipse;shape=doubleEllipse;whiteSpace=wrap;html=1;aspect=fixed;" parent="xeaUYaUfG0aIDbgO8eIN-146" vertex="1">
          <mxGeometry x="540" y="10" width="40" height="40" as="geometry" />
        </mxCell>
        <mxCell id="xeaUYaUfG0aIDbgO8eIN-150" value="Dashboard" style="rounded=1;whiteSpace=wrap;html=1;fillColor=light-dark(#FFFFFF,transparent);" parent="xeaUYaUfG0aIDbgO8eIN-146" vertex="1">
          <mxGeometry y="50" width="90" height="30" as="geometry" />
        </mxCell>
        <mxCell id="xeaUYaUfG0aIDbgO8eIN-151" value="Products" style="rounded=1;whiteSpace=wrap;html=1;" parent="xeaUYaUfG0aIDbgO8eIN-146" vertex="1">
          <mxGeometry y="90" width="90" height="30" as="geometry" />
        </mxCell>
        <mxCell id="xeaUYaUfG0aIDbgO8eIN-152" value="Services" style="rounded=1;whiteSpace=wrap;html=1;fillColor=light-dark(#FFFFFF,transparent);" parent="xeaUYaUfG0aIDbgO8eIN-146" vertex="1">
          <mxGeometry y="130" width="90" height="30" as="geometry" />
        </mxCell>
        <mxCell id="xeaUYaUfG0aIDbgO8eIN-153" value="Profile" style="rounded=1;whiteSpace=wrap;html=1;fillColor=light-dark(#FFFFFF,transparent);" parent="xeaUYaUfG0aIDbgO8eIN-146" vertex="1">
          <mxGeometry y="170" width="90" height="30" as="geometry" />
        </mxCell>
        <mxCell id="xeaUYaUfG0aIDbgO8eIN-154" value="Quotations" style="rounded=1;whiteSpace=wrap;html=1;fillColor=light-dark(#FFFFFF,transparent);" parent="xeaUYaUfG0aIDbgO8eIN-146" vertex="1">
          <mxGeometry y="210" width="90" height="30" as="geometry" />
        </mxCell>
        <mxCell id="xeaUYaUfG0aIDbgO8eIN-155" value="Invoices" style="rounded=1;whiteSpace=wrap;html=1;fillColor=light-dark(#FFFFFF,transparent);" parent="xeaUYaUfG0aIDbgO8eIN-146" vertex="1">
          <mxGeometry y="250" width="90" height="30" as="geometry" />
        </mxCell>
        <mxCell id="xeaUYaUfG0aIDbgO8eIN-156" value="Reports" style="rounded=1;whiteSpace=wrap;html=1;fillColor=light-dark(#FFFFFF,#006600);" parent="xeaUYaUfG0aIDbgO8eIN-146" vertex="1">
          <mxGeometry y="290" width="90" height="30" as="geometry" />
        </mxCell>
        <mxCell id="xeaUYaUfG0aIDbgO8eIN-157" value="Create Ticket" style="rounded=1;whiteSpace=wrap;html=1;" parent="xeaUYaUfG0aIDbgO8eIN-146" vertex="1">
          <mxGeometry y="330" width="90" height="30" as="geometry" />
        </mxCell>
        <mxCell id="xeaUYaUfG0aIDbgO8eIN-158" value="CRM" style="rounded=1;whiteSpace=wrap;html=1;" parent="xeaUYaUfG0aIDbgO8eIN-146" vertex="1">
          <mxGeometry x="100" y="50" width="80" height="30" as="geometry" />
        </mxCell>
        <mxCell id="xeaUYaUfG0aIDbgO8eIN-159" value="HRMS" style="rounded=1;whiteSpace=wrap;html=1;" parent="xeaUYaUfG0aIDbgO8eIN-146" vertex="1">
          <mxGeometry x="190" y="50" width="80" height="30" as="geometry" />
        </mxCell>
        <mxCell id="xeaUYaUfG0aIDbgO8eIN-160" value="Job Portal" style="rounded=1;whiteSpace=wrap;html=1;" parent="xeaUYaUfG0aIDbgO8eIN-146" vertex="1">
          <mxGeometry x="280" y="50" width="80" height="30" as="geometry" />
        </mxCell>
        <mxCell id="xeaUYaUfG0aIDbgO8eIN-161" value="Job Board" style="rounded=1;whiteSpace=wrap;html=1;" parent="xeaUYaUfG0aIDbgO8eIN-146" vertex="1">
          <mxGeometry x="370" y="50" width="80" height="30" as="geometry" />
        </mxCell>
        <mxCell id="xeaUYaUfG0aIDbgO8eIN-162" value="Project Management" style="rounded=1;whiteSpace=wrap;html=1;" parent="xeaUYaUfG0aIDbgO8eIN-146" vertex="1">
          <mxGeometry x="460" y="50" width="80" height="30" as="geometry" />
        </mxCell>
        <mxCell id="xeaUYaUfG0aIDbgO8eIN-163" value="Notifications" style="rounded=1;whiteSpace=wrap;html=1;" parent="xeaUYaUfG0aIDbgO8eIN-146" vertex="1">
          <mxGeometry x="450" y="100" width="120" height="310" as="geometry" />
        </mxCell>
        <mxCell id="xeaUYaUfG0aIDbgO8eIN-164" value="" style="html=1;verticalLabelPosition=bottom;align=center;labelBackgroundColor=#ffffff;verticalAlign=top;strokeWidth=2;strokeColor=#0080F0;shadow=0;dashed=0;shape=mxgraph.ios7.icons.bell;" parent="xeaUYaUfG0aIDbgO8eIN-146" vertex="1">
          <mxGeometry x="510" y="16.899999999999977" width="24" height="23.099999999999998" as="geometry" />
        </mxCell>
        <mxCell id="xeaUYaUfG0aIDbgO8eIN-165" value="Invoices" style="swimlane;whiteSpace=wrap;html=1;startSize=23;" parent="xeaUYaUfG0aIDbgO8eIN-146" vertex="1">
          <mxGeometry x="110" y="100" width="320" height="310" as="geometry" />
        </mxCell>
        <mxCell id="xeaUYaUfG0aIDbgO8eIN-166" value="Analytics with Multiple Product Reports and Analytics.&lt;div&gt;Product- Date Start- Date End- Analytics-&lt;/div&gt;" style="rounded=1;whiteSpace=wrap;html=1;" parent="xeaUYaUfG0aIDbgO8eIN-165" vertex="1">
          <mxGeometry x="10" y="30" width="300" height="270" as="geometry" />
        </mxCell>
        <mxCell id="xeaUYaUfG0aIDbgO8eIN-195" value="Add Users" style="rounded=1;whiteSpace=wrap;html=1;" parent="xeaUYaUfG0aIDbgO8eIN-146" vertex="1">
          <mxGeometry y="370" width="90" height="30" as="geometry" />
        </mxCell>
        <mxCell id="lxkWE_nYF12pFrZx-rZn-36" value="Settings" style="rounded=1;whiteSpace=wrap;html=1;" vertex="1" parent="xeaUYaUfG0aIDbgO8eIN-146">
          <mxGeometry y="410" width="90" height="30" as="geometry" />
        </mxCell>
        <mxCell id="QYLtIBHe6K4uLPgKfc74-121" value="Each Line item should have a separate page when created or for CRUD" style="rounded=1;whiteSpace=wrap;html=1;" vertex="1" parent="xeaUYaUfG0aIDbgO8eIN-146">
          <mxGeometry x="120" y="410" width="330" height="60" as="geometry" />
        </mxCell>
        <mxCell id="xeaUYaUfG0aIDbgO8eIN-167" value="s" style="swimlane;startSize=0;" parent="1" vertex="1">
          <mxGeometry x="4220" y="-60" width="590" height="480" as="geometry">
            <mxRectangle x="-320" y="-640" width="50" height="40" as="alternateBounds" />
          </mxGeometry>
        </mxCell>
        <mxCell id="xeaUYaUfG0aIDbgO8eIN-168" value="MOAQA" style="rounded=1;whiteSpace=wrap;html=1;" parent="xeaUYaUfG0aIDbgO8eIN-167" vertex="1">
          <mxGeometry width="90" height="40" as="geometry" />
        </mxCell>
        <mxCell id="xeaUYaUfG0aIDbgO8eIN-169" value="Enterprise Name" style="rounded=1;whiteSpace=wrap;html=1;" parent="xeaUYaUfG0aIDbgO8eIN-167" vertex="1">
          <mxGeometry x="100" width="320" height="40" as="geometry" />
        </mxCell>
        <mxCell id="xeaUYaUfG0aIDbgO8eIN-170" value="" style="ellipse;shape=doubleEllipse;whiteSpace=wrap;html=1;aspect=fixed;" parent="xeaUYaUfG0aIDbgO8eIN-167" vertex="1">
          <mxGeometry x="540" y="10" width="40" height="40" as="geometry" />
        </mxCell>
        <mxCell id="xeaUYaUfG0aIDbgO8eIN-171" value="Dashboard" style="rounded=1;whiteSpace=wrap;html=1;fillColor=light-dark(#FFFFFF,transparent);" parent="xeaUYaUfG0aIDbgO8eIN-167" vertex="1">
          <mxGeometry y="50" width="90" height="30" as="geometry" />
        </mxCell>
        <mxCell id="xeaUYaUfG0aIDbgO8eIN-172" value="Products" style="rounded=1;whiteSpace=wrap;html=1;" parent="xeaUYaUfG0aIDbgO8eIN-167" vertex="1">
          <mxGeometry y="90" width="90" height="30" as="geometry" />
        </mxCell>
        <mxCell id="xeaUYaUfG0aIDbgO8eIN-173" value="Services" style="rounded=1;whiteSpace=wrap;html=1;fillColor=light-dark(#FFFFFF,transparent);" parent="xeaUYaUfG0aIDbgO8eIN-167" vertex="1">
          <mxGeometry y="130" width="90" height="30" as="geometry" />
        </mxCell>
        <mxCell id="xeaUYaUfG0aIDbgO8eIN-174" value="Profile" style="rounded=1;whiteSpace=wrap;html=1;fillColor=light-dark(#FFFFFF,transparent);" parent="xeaUYaUfG0aIDbgO8eIN-167" vertex="1">
          <mxGeometry y="170" width="90" height="30" as="geometry" />
        </mxCell>
        <mxCell id="xeaUYaUfG0aIDbgO8eIN-175" value="Quotations" style="rounded=1;whiteSpace=wrap;html=1;fillColor=light-dark(#FFFFFF,transparent);" parent="xeaUYaUfG0aIDbgO8eIN-167" vertex="1">
          <mxGeometry y="210" width="90" height="30" as="geometry" />
        </mxCell>
        <mxCell id="xeaUYaUfG0aIDbgO8eIN-176" value="Invoices" style="rounded=1;whiteSpace=wrap;html=1;fillColor=light-dark(#FFFFFF,transparent);" parent="xeaUYaUfG0aIDbgO8eIN-167" vertex="1">
          <mxGeometry y="250" width="90" height="30" as="geometry" />
        </mxCell>
        <mxCell id="xeaUYaUfG0aIDbgO8eIN-177" value="Reports" style="rounded=1;whiteSpace=wrap;html=1;fillColor=light-dark(#FFFFFF,transparent);" parent="xeaUYaUfG0aIDbgO8eIN-167" vertex="1">
          <mxGeometry y="290" width="90" height="30" as="geometry" />
        </mxCell>
        <mxCell id="xeaUYaUfG0aIDbgO8eIN-178" value="Create Ticket" style="rounded=1;whiteSpace=wrap;html=1;fillColor=light-dark(#FFFFFF,#006600);" parent="xeaUYaUfG0aIDbgO8eIN-167" vertex="1">
          <mxGeometry y="330" width="90" height="30" as="geometry" />
        </mxCell>
        <mxCell id="xeaUYaUfG0aIDbgO8eIN-179" value="CRM" style="rounded=1;whiteSpace=wrap;html=1;" parent="xeaUYaUfG0aIDbgO8eIN-167" vertex="1">
          <mxGeometry x="100" y="50" width="80" height="30" as="geometry" />
        </mxCell>
        <mxCell id="xeaUYaUfG0aIDbgO8eIN-180" value="HRMS" style="rounded=1;whiteSpace=wrap;html=1;" parent="xeaUYaUfG0aIDbgO8eIN-167" vertex="1">
          <mxGeometry x="190" y="50" width="80" height="30" as="geometry" />
        </mxCell>
        <mxCell id="xeaUYaUfG0aIDbgO8eIN-181" value="Job Portal" style="rounded=1;whiteSpace=wrap;html=1;" parent="xeaUYaUfG0aIDbgO8eIN-167" vertex="1">
          <mxGeometry x="280" y="50" width="80" height="30" as="geometry" />
        </mxCell>
        <mxCell id="xeaUYaUfG0aIDbgO8eIN-182" value="Job Board" style="rounded=1;whiteSpace=wrap;html=1;" parent="xeaUYaUfG0aIDbgO8eIN-167" vertex="1">
          <mxGeometry x="370" y="50" width="80" height="30" as="geometry" />
        </mxCell>
        <mxCell id="xeaUYaUfG0aIDbgO8eIN-183" value="Project Management" style="rounded=1;whiteSpace=wrap;html=1;" parent="xeaUYaUfG0aIDbgO8eIN-167" vertex="1">
          <mxGeometry x="460" y="50" width="80" height="30" as="geometry" />
        </mxCell>
        <mxCell id="xeaUYaUfG0aIDbgO8eIN-184" value="Notifications" style="rounded=1;whiteSpace=wrap;html=1;" parent="xeaUYaUfG0aIDbgO8eIN-167" vertex="1">
          <mxGeometry x="450" y="100" width="120" height="310" as="geometry" />
        </mxCell>
        <mxCell id="xeaUYaUfG0aIDbgO8eIN-185" value="" style="html=1;verticalLabelPosition=bottom;align=center;labelBackgroundColor=#ffffff;verticalAlign=top;strokeWidth=2;strokeColor=#0080F0;shadow=0;dashed=0;shape=mxgraph.ios7.icons.bell;" parent="xeaUYaUfG0aIDbgO8eIN-167" vertex="1">
          <mxGeometry x="510" y="16.899999999999977" width="24" height="23.099999999999998" as="geometry" />
        </mxCell>
        <mxCell id="xeaUYaUfG0aIDbgO8eIN-186" value="Invoices" style="swimlane;whiteSpace=wrap;html=1;startSize=23;" parent="xeaUYaUfG0aIDbgO8eIN-167" vertex="1">
          <mxGeometry x="110" y="100" width="320" height="310" as="geometry" />
        </mxCell>
        <mxCell id="xeaUYaUfG0aIDbgO8eIN-187" value="Name:&amp;nbsp;&lt;span style=&quot;white-space: pre;&quot;&gt;&#x9;&lt;/span&gt;&lt;span style=&quot;white-space: pre;&quot;&gt;&#x9;&lt;/span&gt;Email:&lt;div&gt;Subject Issue:&amp;nbsp;&lt;span style=&quot;white-space: pre;&quot;&gt;&#x9;&lt;/span&gt;Deparrtment:&amp;nbsp;&lt;/div&gt;&lt;div&gt;Related Products/Service:&lt;/div&gt;&lt;div&gt;Priority:&lt;/div&gt;&lt;div&gt;Message with Tet Box&lt;/div&gt;&lt;div&gt;Attachments&lt;/div&gt;&lt;div&gt;Submit or Cancel&lt;/div&gt;" style="rounded=1;whiteSpace=wrap;html=1;" parent="xeaUYaUfG0aIDbgO8eIN-186" vertex="1">
          <mxGeometry x="10" y="30" width="300" height="270" as="geometry" />
        </mxCell>
        <mxCell id="xeaUYaUfG0aIDbgO8eIN-196" value="Add Users" style="rounded=1;whiteSpace=wrap;html=1;" parent="xeaUYaUfG0aIDbgO8eIN-167" vertex="1">
          <mxGeometry y="370" width="90" height="30" as="geometry" />
        </mxCell>
        <mxCell id="lxkWE_nYF12pFrZx-rZn-37" value="Settings" style="rounded=1;whiteSpace=wrap;html=1;" vertex="1" parent="xeaUYaUfG0aIDbgO8eIN-167">
          <mxGeometry y="410" width="90" height="30" as="geometry" />
        </mxCell>
        <mxCell id="QYLtIBHe6K4uLPgKfc74-146" value="Each Line item should have a separate page when created or for CRUD" style="rounded=1;whiteSpace=wrap;html=1;" vertex="1" parent="xeaUYaUfG0aIDbgO8eIN-167">
          <mxGeometry x="110" y="410" width="330" height="60" as="geometry" />
        </mxCell>
        <mxCell id="xeaUYaUfG0aIDbgO8eIN-188" value="Ticket No:&amp;nbsp;&lt;div&gt;Time&lt;/div&gt;&lt;div&gt;Date&lt;br&gt;&lt;div&gt;Subject:&amp;nbsp;&lt;/div&gt;&lt;div&gt;Related Product or Services:&amp;nbsp;&lt;/div&gt;&lt;div&gt;Status:&amp;nbsp;&lt;/div&gt;&lt;div&gt;Time and Date&lt;/div&gt;&lt;div&gt;Time to complete&lt;/div&gt;&lt;div&gt;&lt;br&gt;&lt;/div&gt;&lt;div&gt;&lt;br&gt;&lt;/div&gt;&lt;/div&gt;" style="rounded=1;whiteSpace=wrap;html=1;" parent="1" vertex="1">
          <mxGeometry x="3030" y="-560" width="190" height="360" as="geometry" />
        </mxCell>
        <mxCell id="lxkWE_nYF12pFrZx-rZn-1" value="N" style="swimlane;startSize=0;" vertex="1" parent="1">
          <mxGeometry x="-320" y="480" width="590" height="550" as="geometry">
            <mxRectangle x="-320" y="-640" width="50" height="40" as="alternateBounds" />
          </mxGeometry>
        </mxCell>
        <mxCell id="lxkWE_nYF12pFrZx-rZn-2" value="MOAQA" style="rounded=1;whiteSpace=wrap;html=1;" vertex="1" parent="lxkWE_nYF12pFrZx-rZn-1">
          <mxGeometry width="90" height="40" as="geometry" />
        </mxCell>
        <mxCell id="lxkWE_nYF12pFrZx-rZn-3" value="Enterprise Name" style="rounded=1;whiteSpace=wrap;html=1;" vertex="1" parent="lxkWE_nYF12pFrZx-rZn-1">
          <mxGeometry x="310" width="160" height="40" as="geometry" />
        </mxCell>
        <mxCell id="lxkWE_nYF12pFrZx-rZn-4" value="" style="ellipse;shape=doubleEllipse;whiteSpace=wrap;html=1;aspect=fixed;" vertex="1" parent="lxkWE_nYF12pFrZx-rZn-1">
          <mxGeometry x="540" y="10" width="40" height="40" as="geometry" />
        </mxCell>
        <mxCell id="lxkWE_nYF12pFrZx-rZn-5" value="Dashboard" style="rounded=1;whiteSpace=wrap;html=1;fillColor=light-dark(#FFFFFF,#336600);" vertex="1" parent="lxkWE_nYF12pFrZx-rZn-1">
          <mxGeometry y="50" width="90" height="30" as="geometry" />
        </mxCell>
        <mxCell id="lxkWE_nYF12pFrZx-rZn-6" value="Products" style="rounded=1;whiteSpace=wrap;html=1;" vertex="1" parent="lxkWE_nYF12pFrZx-rZn-1">
          <mxGeometry y="90" width="90" height="30" as="geometry" />
        </mxCell>
        <mxCell id="lxkWE_nYF12pFrZx-rZn-7" value="Services" style="rounded=1;whiteSpace=wrap;html=1;" vertex="1" parent="lxkWE_nYF12pFrZx-rZn-1">
          <mxGeometry y="130" width="90" height="30" as="geometry" />
        </mxCell>
        <mxCell id="lxkWE_nYF12pFrZx-rZn-8" value="Leads" style="rounded=1;whiteSpace=wrap;html=1;" vertex="1" parent="lxkWE_nYF12pFrZx-rZn-1">
          <mxGeometry y="170" width="90" height="30" as="geometry" />
        </mxCell>
        <mxCell id="lxkWE_nYF12pFrZx-rZn-9" value="Quotations" style="rounded=1;whiteSpace=wrap;html=1;" vertex="1" parent="lxkWE_nYF12pFrZx-rZn-1">
          <mxGeometry y="210" width="90" height="30" as="geometry" />
        </mxCell>
        <mxCell id="lxkWE_nYF12pFrZx-rZn-10" value="Invoices" style="rounded=1;whiteSpace=wrap;html=1;" vertex="1" parent="lxkWE_nYF12pFrZx-rZn-1">
          <mxGeometry y="250" width="90" height="30" as="geometry" />
        </mxCell>
        <mxCell id="lxkWE_nYF12pFrZx-rZn-11" value="Reports" style="rounded=1;whiteSpace=wrap;html=1;" vertex="1" parent="lxkWE_nYF12pFrZx-rZn-1">
          <mxGeometry y="290" width="90" height="30" as="geometry" />
        </mxCell>
        <mxCell id="lxkWE_nYF12pFrZx-rZn-12" value="Create Ticket" style="rounded=1;whiteSpace=wrap;html=1;" vertex="1" parent="lxkWE_nYF12pFrZx-rZn-1">
          <mxGeometry y="330" width="90" height="30" as="geometry" />
        </mxCell>
        <mxCell id="lxkWE_nYF12pFrZx-rZn-13" value="CRM" style="rounded=1;whiteSpace=wrap;html=1;fillColor=light-dark(#FFFFFF,#006600);" vertex="1" parent="lxkWE_nYF12pFrZx-rZn-1">
          <mxGeometry x="100" y="50" width="80" height="30" as="geometry" />
        </mxCell>
        <mxCell id="lxkWE_nYF12pFrZx-rZn-14" value="HRMS" style="rounded=1;whiteSpace=wrap;html=1;" vertex="1" parent="lxkWE_nYF12pFrZx-rZn-1">
          <mxGeometry x="190" y="50" width="80" height="30" as="geometry" />
        </mxCell>
        <mxCell id="lxkWE_nYF12pFrZx-rZn-15" value="Job Portal" style="rounded=1;whiteSpace=wrap;html=1;" vertex="1" parent="lxkWE_nYF12pFrZx-rZn-1">
          <mxGeometry x="280" y="50" width="80" height="30" as="geometry" />
        </mxCell>
        <mxCell id="lxkWE_nYF12pFrZx-rZn-16" value="Job Board" style="rounded=1;whiteSpace=wrap;html=1;" vertex="1" parent="lxkWE_nYF12pFrZx-rZn-1">
          <mxGeometry x="370" y="50" width="80" height="30" as="geometry" />
        </mxCell>
        <mxCell id="lxkWE_nYF12pFrZx-rZn-17" value="Project Management" style="rounded=1;whiteSpace=wrap;html=1;" vertex="1" parent="lxkWE_nYF12pFrZx-rZn-1">
          <mxGeometry x="460" y="50" width="80" height="30" as="geometry" />
        </mxCell>
        <mxCell id="lxkWE_nYF12pFrZx-rZn-18" value="Notifications" style="rounded=1;whiteSpace=wrap;html=1;" vertex="1" parent="lxkWE_nYF12pFrZx-rZn-1">
          <mxGeometry x="450" y="100" width="120" height="310" as="geometry" />
        </mxCell>
        <mxCell id="lxkWE_nYF12pFrZx-rZn-19" value="Products" style="rounded=1;whiteSpace=wrap;html=1;" vertex="1" parent="lxkWE_nYF12pFrZx-rZn-1">
          <mxGeometry x="110" y="100" width="120" height="60" as="geometry" />
        </mxCell>
        <mxCell id="lxkWE_nYF12pFrZx-rZn-20" value="Services" style="rounded=1;whiteSpace=wrap;html=1;" vertex="1" parent="lxkWE_nYF12pFrZx-rZn-1">
          <mxGeometry x="250" y="100" width="120" height="60" as="geometry" />
        </mxCell>
        <mxCell id="lxkWE_nYF12pFrZx-rZn-21" value="Quotations" style="rounded=1;whiteSpace=wrap;html=1;" vertex="1" parent="lxkWE_nYF12pFrZx-rZn-1">
          <mxGeometry x="110" y="170" width="120" height="60" as="geometry" />
        </mxCell>
        <mxCell id="lxkWE_nYF12pFrZx-rZn-22" value="Invoices" style="rounded=1;whiteSpace=wrap;html=1;" vertex="1" parent="lxkWE_nYF12pFrZx-rZn-1">
          <mxGeometry x="250" y="170" width="120" height="60" as="geometry" />
        </mxCell>
        <mxCell id="lxkWE_nYF12pFrZx-rZn-23" value="Reports and Analytics" style="rounded=1;whiteSpace=wrap;html=1;" vertex="1" parent="lxkWE_nYF12pFrZx-rZn-1">
          <mxGeometry x="110" y="245" width="120" height="60" as="geometry" />
        </mxCell>
        <mxCell id="lxkWE_nYF12pFrZx-rZn-24" value="Complains/Help" style="rounded=1;whiteSpace=wrap;html=1;" vertex="1" parent="lxkWE_nYF12pFrZx-rZn-1">
          <mxGeometry x="250" y="245" width="120" height="60" as="geometry" />
        </mxCell>
        <mxCell id="lxkWE_nYF12pFrZx-rZn-25" value="" style="html=1;verticalLabelPosition=bottom;align=center;labelBackgroundColor=#ffffff;verticalAlign=top;strokeWidth=2;strokeColor=#0080F0;shadow=0;dashed=0;shape=mxgraph.ios7.icons.bell;" vertex="1" parent="lxkWE_nYF12pFrZx-rZn-1">
          <mxGeometry x="510" y="16.899999999999977" width="24" height="23.099999999999998" as="geometry" />
        </mxCell>
        <mxCell id="lxkWE_nYF12pFrZx-rZn-27" value="CRM" style="rounded=1;whiteSpace=wrap;html=1;" vertex="1" parent="lxkWE_nYF12pFrZx-rZn-1">
          <mxGeometry x="130" width="160" height="40" as="geometry" />
        </mxCell>
        <mxCell id="QYLtIBHe6K4uLPgKfc74-1" value="Users" style="rounded=1;whiteSpace=wrap;html=1;" vertex="1" parent="lxkWE_nYF12pFrZx-rZn-1">
          <mxGeometry y="370" width="90" height="30" as="geometry" />
        </mxCell>
        <mxCell id="QYLtIBHe6K4uLPgKfc74-2" value="Customers&lt;span style=&quot;color: rgba(0, 0, 0, 0); font-family: monospace; font-size: 0px; text-align: start; text-wrap-mode: nowrap;&quot;&gt;%3CmxGraphModel%3E%3Croot%3E%3CmxCell%20id%3D%220%22%2F%3E%3CmxCell%20id%3D%221%22%20parent%3D%220%22%2F%3E%3CmxCell%20id%3D%222%22%20value%3D%22Leads%22%20style%3D%22rounded%3D1%3BwhiteSpace%3Dwrap%3Bhtml%3D1%3B%22%20vertex%3D%221%22%20parent%3D%221%22%3E%3CmxGeometry%20x%3D%22-320%22%20y%3D%22850%22%20width%3D%2290%22%20height%3D%2230%22%20as%3D%22geometry%22%2F%3E%3C%2FmxCell%3E%3C%2Froot%3E%3C%2FmxGraphModel%3E&lt;/span&gt;" style="rounded=1;whiteSpace=wrap;html=1;" vertex="1" parent="lxkWE_nYF12pFrZx-rZn-1">
          <mxGeometry y="410" width="90" height="30" as="geometry" />
        </mxCell>
        <mxCell id="QYLtIBHe6K4uLPgKfc74-3" value="Sales" style="rounded=1;whiteSpace=wrap;html=1;" vertex="1" parent="lxkWE_nYF12pFrZx-rZn-1">
          <mxGeometry y="450" width="90" height="30" as="geometry" />
        </mxCell>
        <mxCell id="QYLtIBHe6K4uLPgKfc74-4" value="Customers" style="rounded=1;whiteSpace=wrap;html=1;" vertex="1" parent="lxkWE_nYF12pFrZx-rZn-1">
          <mxGeometry x="110" y="315" width="120" height="60" as="geometry" />
        </mxCell>
        <mxCell id="QYLtIBHe6K4uLPgKfc74-35" value="Sales" style="rounded=1;whiteSpace=wrap;html=1;" vertex="1" parent="lxkWE_nYF12pFrZx-rZn-1">
          <mxGeometry x="250" y="315" width="120" height="60" as="geometry" />
        </mxCell>
        <mxCell id="lxkWE_nYF12pFrZx-rZn-39" value="s" style="swimlane;startSize=0;" vertex="1" parent="1">
          <mxGeometry x="5460" y="-60" width="590" height="480" as="geometry">
            <mxRectangle x="-320" y="-640" width="50" height="40" as="alternateBounds" />
          </mxGeometry>
        </mxCell>
        <mxCell id="lxkWE_nYF12pFrZx-rZn-40" value="MOAQA" style="rounded=1;whiteSpace=wrap;html=1;" vertex="1" parent="lxkWE_nYF12pFrZx-rZn-39">
          <mxGeometry width="90" height="40" as="geometry" />
        </mxCell>
        <mxCell id="lxkWE_nYF12pFrZx-rZn-41" value="Enterprise Name" style="rounded=1;whiteSpace=wrap;html=1;" vertex="1" parent="lxkWE_nYF12pFrZx-rZn-39">
          <mxGeometry x="100" width="320" height="40" as="geometry" />
        </mxCell>
        <mxCell id="lxkWE_nYF12pFrZx-rZn-42" value="" style="ellipse;shape=doubleEllipse;whiteSpace=wrap;html=1;aspect=fixed;" vertex="1" parent="lxkWE_nYF12pFrZx-rZn-39">
          <mxGeometry x="540" y="10" width="40" height="40" as="geometry" />
        </mxCell>
        <mxCell id="lxkWE_nYF12pFrZx-rZn-43" value="Dashboard" style="rounded=1;whiteSpace=wrap;html=1;fillColor=light-dark(#FFFFFF,transparent);" vertex="1" parent="lxkWE_nYF12pFrZx-rZn-39">
          <mxGeometry y="50" width="90" height="30" as="geometry" />
        </mxCell>
        <mxCell id="lxkWE_nYF12pFrZx-rZn-44" value="Products" style="rounded=1;whiteSpace=wrap;html=1;" vertex="1" parent="lxkWE_nYF12pFrZx-rZn-39">
          <mxGeometry y="90" width="90" height="30" as="geometry" />
        </mxCell>
        <mxCell id="lxkWE_nYF12pFrZx-rZn-45" value="Services" style="rounded=1;whiteSpace=wrap;html=1;fillColor=light-dark(#FFFFFF,transparent);" vertex="1" parent="lxkWE_nYF12pFrZx-rZn-39">
          <mxGeometry y="130" width="90" height="30" as="geometry" />
        </mxCell>
        <mxCell id="lxkWE_nYF12pFrZx-rZn-46" value="Profile" style="rounded=1;whiteSpace=wrap;html=1;fillColor=light-dark(#FFFFFF,transparent);" vertex="1" parent="lxkWE_nYF12pFrZx-rZn-39">
          <mxGeometry y="170" width="90" height="30" as="geometry" />
        </mxCell>
        <mxCell id="lxkWE_nYF12pFrZx-rZn-47" value="Quotations" style="rounded=1;whiteSpace=wrap;html=1;fillColor=light-dark(#FFFFFF,transparent);" vertex="1" parent="lxkWE_nYF12pFrZx-rZn-39">
          <mxGeometry y="210" width="90" height="30" as="geometry" />
        </mxCell>
        <mxCell id="lxkWE_nYF12pFrZx-rZn-48" value="Invoices" style="rounded=1;whiteSpace=wrap;html=1;fillColor=light-dark(#FFFFFF,transparent);" vertex="1" parent="lxkWE_nYF12pFrZx-rZn-39">
          <mxGeometry y="250" width="90" height="30" as="geometry" />
        </mxCell>
        <mxCell id="lxkWE_nYF12pFrZx-rZn-49" value="Reports" style="rounded=1;whiteSpace=wrap;html=1;fillColor=light-dark(#FFFFFF,transparent);" vertex="1" parent="lxkWE_nYF12pFrZx-rZn-39">
          <mxGeometry y="290" width="90" height="30" as="geometry" />
        </mxCell>
        <mxCell id="lxkWE_nYF12pFrZx-rZn-50" value="Create Ticket" style="rounded=1;whiteSpace=wrap;html=1;fillColor=light-dark(#FFFFFF,transparent);" vertex="1" parent="lxkWE_nYF12pFrZx-rZn-39">
          <mxGeometry y="330" width="90" height="30" as="geometry" />
        </mxCell>
        <mxCell id="lxkWE_nYF12pFrZx-rZn-51" value="CRM" style="rounded=1;whiteSpace=wrap;html=1;" vertex="1" parent="lxkWE_nYF12pFrZx-rZn-39">
          <mxGeometry x="100" y="50" width="80" height="30" as="geometry" />
        </mxCell>
        <mxCell id="lxkWE_nYF12pFrZx-rZn-52" value="HRMS" style="rounded=1;whiteSpace=wrap;html=1;" vertex="1" parent="lxkWE_nYF12pFrZx-rZn-39">
          <mxGeometry x="190" y="50" width="80" height="30" as="geometry" />
        </mxCell>
        <mxCell id="lxkWE_nYF12pFrZx-rZn-53" value="Job Portal" style="rounded=1;whiteSpace=wrap;html=1;" vertex="1" parent="lxkWE_nYF12pFrZx-rZn-39">
          <mxGeometry x="280" y="50" width="80" height="30" as="geometry" />
        </mxCell>
        <mxCell id="lxkWE_nYF12pFrZx-rZn-54" value="Job Board" style="rounded=1;whiteSpace=wrap;html=1;" vertex="1" parent="lxkWE_nYF12pFrZx-rZn-39">
          <mxGeometry x="370" y="50" width="80" height="30" as="geometry" />
        </mxCell>
        <mxCell id="lxkWE_nYF12pFrZx-rZn-55" value="Project Management" style="rounded=1;whiteSpace=wrap;html=1;" vertex="1" parent="lxkWE_nYF12pFrZx-rZn-39">
          <mxGeometry x="460" y="50" width="80" height="30" as="geometry" />
        </mxCell>
        <mxCell id="lxkWE_nYF12pFrZx-rZn-56" value="Notifications" style="rounded=1;whiteSpace=wrap;html=1;" vertex="1" parent="lxkWE_nYF12pFrZx-rZn-39">
          <mxGeometry x="450" y="100" width="120" height="310" as="geometry" />
        </mxCell>
        <mxCell id="lxkWE_nYF12pFrZx-rZn-57" value="" style="html=1;verticalLabelPosition=bottom;align=center;labelBackgroundColor=#ffffff;verticalAlign=top;strokeWidth=2;strokeColor=#0080F0;shadow=0;dashed=0;shape=mxgraph.ios7.icons.bell;" vertex="1" parent="lxkWE_nYF12pFrZx-rZn-39">
          <mxGeometry x="510" y="16.899999999999977" width="24" height="23.099999999999998" as="geometry" />
        </mxCell>
        <mxCell id="lxkWE_nYF12pFrZx-rZn-58" value="Invoices" style="swimlane;whiteSpace=wrap;html=1;startSize=23;" vertex="1" parent="lxkWE_nYF12pFrZx-rZn-39">
          <mxGeometry x="110" y="100" width="320" height="310" as="geometry" />
        </mxCell>
        <mxCell id="lxkWE_nYF12pFrZx-rZn-59" value="Time Zone:&lt;div&gt;Currency:&lt;/div&gt;&lt;div&gt;Location:&lt;/div&gt;&lt;div&gt;&lt;br&gt;&lt;/div&gt;" style="rounded=1;whiteSpace=wrap;html=1;" vertex="1" parent="lxkWE_nYF12pFrZx-rZn-58">
          <mxGeometry x="10" y="30" width="300" height="270" as="geometry" />
        </mxCell>
        <mxCell id="lxkWE_nYF12pFrZx-rZn-60" value="Add Users" style="rounded=1;whiteSpace=wrap;html=1;fillColor=light-dark(#FFFFFF,transparent);" vertex="1" parent="lxkWE_nYF12pFrZx-rZn-39">
          <mxGeometry y="370" width="90" height="30" as="geometry" />
        </mxCell>
        <mxCell id="lxkWE_nYF12pFrZx-rZn-61" value="Settings" style="rounded=1;whiteSpace=wrap;html=1;fillColor=light-dark(#FFFFFF,#006600);" vertex="1" parent="lxkWE_nYF12pFrZx-rZn-39">
          <mxGeometry y="410" width="90" height="30" as="geometry" />
        </mxCell>
        <mxCell id="QYLtIBHe6K4uLPgKfc74-195" value="Each Line item should have a separate page when created or for CRUD" style="rounded=1;whiteSpace=wrap;html=1;" vertex="1" parent="lxkWE_nYF12pFrZx-rZn-39">
          <mxGeometry x="110" y="420" width="330" height="60" as="geometry" />
        </mxCell>
        <mxCell id="QYLtIBHe6K4uLPgKfc74-37" value="N" style="swimlane;startSize=0;" vertex="1" parent="1">
          <mxGeometry x="310" y="480" width="590" height="550" as="geometry">
            <mxRectangle x="-320" y="-640" width="50" height="40" as="alternateBounds" />
          </mxGeometry>
        </mxCell>
        <mxCell id="QYLtIBHe6K4uLPgKfc74-38" value="MOAQA" style="rounded=1;whiteSpace=wrap;html=1;" vertex="1" parent="QYLtIBHe6K4uLPgKfc74-37">
          <mxGeometry width="90" height="40" as="geometry" />
        </mxCell>
        <mxCell id="QYLtIBHe6K4uLPgKfc74-39" value="Enterprise Name" style="rounded=1;whiteSpace=wrap;html=1;" vertex="1" parent="QYLtIBHe6K4uLPgKfc74-37">
          <mxGeometry x="310" width="160" height="40" as="geometry" />
        </mxCell>
        <mxCell id="QYLtIBHe6K4uLPgKfc74-40" value="" style="ellipse;shape=doubleEllipse;whiteSpace=wrap;html=1;aspect=fixed;" vertex="1" parent="QYLtIBHe6K4uLPgKfc74-37">
          <mxGeometry x="540" y="10" width="40" height="40" as="geometry" />
        </mxCell>
        <mxCell id="QYLtIBHe6K4uLPgKfc74-42" value="Products" style="rounded=1;whiteSpace=wrap;html=1;fillColor=light-dark(#FFFFFF,#006600);" vertex="1" parent="QYLtIBHe6K4uLPgKfc74-37">
          <mxGeometry y="90" width="90" height="30" as="geometry" />
        </mxCell>
        <mxCell id="QYLtIBHe6K4uLPgKfc74-43" value="Services" style="rounded=1;whiteSpace=wrap;html=1;" vertex="1" parent="QYLtIBHe6K4uLPgKfc74-37">
          <mxGeometry y="130" width="90" height="30" as="geometry" />
        </mxCell>
        <mxCell id="QYLtIBHe6K4uLPgKfc74-44" value="Leads" style="rounded=1;whiteSpace=wrap;html=1;" vertex="1" parent="QYLtIBHe6K4uLPgKfc74-37">
          <mxGeometry y="170" width="90" height="30" as="geometry" />
        </mxCell>
        <mxCell id="QYLtIBHe6K4uLPgKfc74-45" value="Quotations" style="rounded=1;whiteSpace=wrap;html=1;" vertex="1" parent="QYLtIBHe6K4uLPgKfc74-37">
          <mxGeometry y="210" width="90" height="30" as="geometry" />
        </mxCell>
        <mxCell id="QYLtIBHe6K4uLPgKfc74-46" value="Invoices" style="rounded=1;whiteSpace=wrap;html=1;" vertex="1" parent="QYLtIBHe6K4uLPgKfc74-37">
          <mxGeometry y="250" width="90" height="30" as="geometry" />
        </mxCell>
        <mxCell id="QYLtIBHe6K4uLPgKfc74-47" value="Reports" style="rounded=1;whiteSpace=wrap;html=1;" vertex="1" parent="QYLtIBHe6K4uLPgKfc74-37">
          <mxGeometry y="290" width="90" height="30" as="geometry" />
        </mxCell>
        <mxCell id="QYLtIBHe6K4uLPgKfc74-48" value="Create Ticket" style="rounded=1;whiteSpace=wrap;html=1;" vertex="1" parent="QYLtIBHe6K4uLPgKfc74-37">
          <mxGeometry y="330" width="90" height="30" as="geometry" />
        </mxCell>
        <mxCell id="QYLtIBHe6K4uLPgKfc74-49" value="CRM" style="rounded=1;whiteSpace=wrap;html=1;fillColor=light-dark(#FFFFFF,#006600);" vertex="1" parent="QYLtIBHe6K4uLPgKfc74-37">
          <mxGeometry x="100" y="50" width="80" height="30" as="geometry" />
        </mxCell>
        <mxCell id="QYLtIBHe6K4uLPgKfc74-50" value="HRMS" style="rounded=1;whiteSpace=wrap;html=1;" vertex="1" parent="QYLtIBHe6K4uLPgKfc74-37">
          <mxGeometry x="190" y="50" width="80" height="30" as="geometry" />
        </mxCell>
        <mxCell id="QYLtIBHe6K4uLPgKfc74-51" value="Job Portal" style="rounded=1;whiteSpace=wrap;html=1;" vertex="1" parent="QYLtIBHe6K4uLPgKfc74-37">
          <mxGeometry x="280" y="50" width="80" height="30" as="geometry" />
        </mxCell>
        <mxCell id="QYLtIBHe6K4uLPgKfc74-52" value="Job Board" style="rounded=1;whiteSpace=wrap;html=1;" vertex="1" parent="QYLtIBHe6K4uLPgKfc74-37">
          <mxGeometry x="370" y="50" width="80" height="30" as="geometry" />
        </mxCell>
        <mxCell id="QYLtIBHe6K4uLPgKfc74-53" value="Project Management" style="rounded=1;whiteSpace=wrap;html=1;" vertex="1" parent="QYLtIBHe6K4uLPgKfc74-37">
          <mxGeometry x="460" y="50" width="80" height="30" as="geometry" />
        </mxCell>
        <mxCell id="QYLtIBHe6K4uLPgKfc74-54" value="Filters" style="rounded=1;whiteSpace=wrap;html=1;" vertex="1" parent="QYLtIBHe6K4uLPgKfc74-37">
          <mxGeometry x="450" y="100" width="120" height="310" as="geometry" />
        </mxCell>
        <mxCell id="QYLtIBHe6K4uLPgKfc74-61" value="" style="html=1;verticalLabelPosition=bottom;align=center;labelBackgroundColor=#ffffff;verticalAlign=top;strokeWidth=2;strokeColor=#0080F0;shadow=0;dashed=0;shape=mxgraph.ios7.icons.bell;" vertex="1" parent="QYLtIBHe6K4uLPgKfc74-37">
          <mxGeometry x="510" y="16.899999999999977" width="24" height="23.099999999999998" as="geometry" />
        </mxCell>
        <mxCell id="QYLtIBHe6K4uLPgKfc74-62" value="CRM" style="rounded=1;whiteSpace=wrap;html=1;" vertex="1" parent="QYLtIBHe6K4uLPgKfc74-37">
          <mxGeometry x="130" width="160" height="40" as="geometry" />
        </mxCell>
        <mxCell id="QYLtIBHe6K4uLPgKfc74-63" value="Users" style="rounded=1;whiteSpace=wrap;html=1;" vertex="1" parent="QYLtIBHe6K4uLPgKfc74-37">
          <mxGeometry y="370" width="90" height="30" as="geometry" />
        </mxCell>
        <mxCell id="QYLtIBHe6K4uLPgKfc74-64" value="Customers&lt;span style=&quot;color: rgba(0, 0, 0, 0); font-family: monospace; font-size: 0px; text-align: start; text-wrap-mode: nowrap;&quot;&gt;%3CmxGraphModel%3E%3Croot%3E%3CmxCell%20id%3D%220%22%2F%3E%3CmxCell%20id%3D%221%22%20parent%3D%220%22%2F%3E%3CmxCell%20id%3D%222%22%20value%3D%22Leads%22%20style%3D%22rounded%3D1%3BwhiteSpace%3Dwrap%3Bhtml%3D1%3B%22%20vertex%3D%221%22%20parent%3D%221%22%3E%3CmxGeometry%20x%3D%22-320%22%20y%3D%22850%22%20width%3D%2290%22%20height%3D%2230%22%20as%3D%22geometry%22%2F%3E%3C%2FmxCell%3E%3C%2Froot%3E%3C%2FmxGraphModel%3E&lt;/span&gt;" style="rounded=1;whiteSpace=wrap;html=1;" vertex="1" parent="QYLtIBHe6K4uLPgKfc74-37">
          <mxGeometry y="410" width="90" height="30" as="geometry" />
        </mxCell>
        <mxCell id="QYLtIBHe6K4uLPgKfc74-65" value="Sales" style="rounded=1;whiteSpace=wrap;html=1;" vertex="1" parent="QYLtIBHe6K4uLPgKfc74-37">
          <mxGeometry y="450" width="90" height="30" as="geometry" />
        </mxCell>
        <mxCell id="QYLtIBHe6K4uLPgKfc74-41" value="Dashboard" style="rounded=1;whiteSpace=wrap;html=1;fillColor=light-dark(#FFFFFF,transparent);" vertex="1" parent="QYLtIBHe6K4uLPgKfc74-37">
          <mxGeometry y="50" width="90" height="30" as="geometry" />
        </mxCell>
        <mxCell id="QYLtIBHe6K4uLPgKfc74-199" value="Note: Each product should be listed in line with Product name, Category price and Crud button with addition product page" style="rounded=1;whiteSpace=wrap;html=1;" vertex="1" parent="QYLtIBHe6K4uLPgKfc74-37">
          <mxGeometry x="120" y="470" width="330" height="60" as="geometry" />
        </mxCell>
        <mxCell id="QYLtIBHe6K4uLPgKfc74-68" value="&lt;br&gt;&lt;br&gt;&lt;table style=&quot;border-collapse:&lt;br/&gt; collapse;width:48pt&quot; width=&quot;64&quot; cellspacing=&quot;0&quot; cellpadding=&quot;0&quot; border=&quot;0&quot;&gt; &lt;colgroup&gt;&lt;col style=&quot;width:48pt&quot; width=&quot;64&quot;&gt;&lt;/colgroup&gt; &lt;tbody&gt;&lt;tr style=&quot;height:14.4pt&quot; height=&quot;19&quot;&gt;  &lt;td style=&quot;height:14.4pt;width:48pt&quot; width=&quot;64&quot; height=&quot;19&quot;&gt;product_id (PK)&lt;/td&gt; &lt;/tr&gt; &lt;tr style=&quot;height:14.4pt&quot; height=&quot;19&quot;&gt;  &lt;td style=&quot;height:14.4pt&quot; height=&quot;19&quot;&gt;name&lt;br&gt;Pictures&lt;/td&gt; &lt;/tr&gt; &lt;tr style=&quot;height:14.4pt&quot; height=&quot;19&quot;&gt;  &lt;td style=&quot;height:14.4pt&quot; height=&quot;19&quot;&gt;description&lt;/td&gt; &lt;/tr&gt; &lt;tr style=&quot;height:14.4pt&quot; height=&quot;19&quot;&gt;  &lt;td style=&quot;height:14.4pt&quot; height=&quot;19&quot;&gt;brand_id (FK)&lt;/td&gt; &lt;/tr&gt; &lt;tr style=&quot;height:14.4pt&quot; height=&quot;19&quot;&gt;  &lt;td style=&quot;height:14.4pt&quot; height=&quot;19&quot;&gt;category_id (FK)&lt;/td&gt; &lt;/tr&gt; &lt;tr style=&quot;height:14.4pt&quot; height=&quot;19&quot;&gt;  &lt;td style=&quot;height:14.4pt&quot; height=&quot;19&quot;&gt;unit_id (FK)&lt;/td&gt; &lt;/tr&gt; &lt;tr style=&quot;height:14.4pt&quot; height=&quot;19&quot;&gt;  &lt;td style=&quot;height:14.4pt&quot; height=&quot;19&quot;&gt;base_price&lt;/td&gt; &lt;/tr&gt; &lt;tr style=&quot;height:14.4pt&quot; height=&quot;19&quot;&gt;  &lt;td style=&quot;height:14.4pt&quot; height=&quot;19&quot;&gt;SKU&lt;/td&gt; &lt;/tr&gt; &lt;tr style=&quot;height:14.4pt&quot; height=&quot;19&quot;&gt;  &lt;td style=&quot;height:14.4pt&quot; height=&quot;19&quot;&gt;status (active/inactive)&lt;/td&gt; &lt;/tr&gt; &lt;tr style=&quot;height:14.4pt&quot; height=&quot;19&quot;&gt;  &lt;td style=&quot;height:14.4pt&quot; height=&quot;19&quot;&gt;created_at, updated_at&lt;/td&gt; &lt;/tr&gt;&lt;/tbody&gt;&lt;/table&gt;&lt;br&gt;&lt;br&gt;&lt;br&gt;&lt;div&gt;&lt;br/&gt;&lt;/div&gt;" style="rounded=1;whiteSpace=wrap;html=1;" vertex="1" parent="1">
          <mxGeometry x="450" y="610" width="280" height="340" as="geometry" />
        </mxCell>
        <mxCell id="QYLtIBHe6K4uLPgKfc74-69" value="N" style="swimlane;startSize=0;" vertex="1" parent="1">
          <mxGeometry x="920" y="480" width="590" height="550" as="geometry">
            <mxRectangle x="-320" y="-640" width="50" height="40" as="alternateBounds" />
          </mxGeometry>
        </mxCell>
        <mxCell id="QYLtIBHe6K4uLPgKfc74-70" value="MOAQA" style="rounded=1;whiteSpace=wrap;html=1;" vertex="1" parent="QYLtIBHe6K4uLPgKfc74-69">
          <mxGeometry width="90" height="40" as="geometry" />
        </mxCell>
        <mxCell id="QYLtIBHe6K4uLPgKfc74-71" value="Enterprise Name" style="rounded=1;whiteSpace=wrap;html=1;" vertex="1" parent="QYLtIBHe6K4uLPgKfc74-69">
          <mxGeometry x="310" width="160" height="40" as="geometry" />
        </mxCell>
        <mxCell id="QYLtIBHe6K4uLPgKfc74-72" value="" style="ellipse;shape=doubleEllipse;whiteSpace=wrap;html=1;aspect=fixed;" vertex="1" parent="QYLtIBHe6K4uLPgKfc74-69">
          <mxGeometry x="540" y="10" width="40" height="40" as="geometry" />
        </mxCell>
        <mxCell id="QYLtIBHe6K4uLPgKfc74-73" value="Products" style="rounded=1;whiteSpace=wrap;html=1;fillColor=light-dark(#FFFFFF,transparent);" vertex="1" parent="QYLtIBHe6K4uLPgKfc74-69">
          <mxGeometry y="90" width="90" height="30" as="geometry" />
        </mxCell>
        <mxCell id="QYLtIBHe6K4uLPgKfc74-74" value="Services" style="rounded=1;whiteSpace=wrap;html=1;fillColor=light-dark(#FFFFFF,#006600);" vertex="1" parent="QYLtIBHe6K4uLPgKfc74-69">
          <mxGeometry y="130" width="90" height="30" as="geometry" />
        </mxCell>
        <mxCell id="QYLtIBHe6K4uLPgKfc74-75" value="Leads" style="rounded=1;whiteSpace=wrap;html=1;" vertex="1" parent="QYLtIBHe6K4uLPgKfc74-69">
          <mxGeometry y="170" width="90" height="30" as="geometry" />
        </mxCell>
        <mxCell id="QYLtIBHe6K4uLPgKfc74-76" value="Quotations" style="rounded=1;whiteSpace=wrap;html=1;" vertex="1" parent="QYLtIBHe6K4uLPgKfc74-69">
          <mxGeometry y="210" width="90" height="30" as="geometry" />
        </mxCell>
        <mxCell id="QYLtIBHe6K4uLPgKfc74-77" value="Invoices" style="rounded=1;whiteSpace=wrap;html=1;" vertex="1" parent="QYLtIBHe6K4uLPgKfc74-69">
          <mxGeometry y="250" width="90" height="30" as="geometry" />
        </mxCell>
        <mxCell id="QYLtIBHe6K4uLPgKfc74-78" value="Reports" style="rounded=1;whiteSpace=wrap;html=1;" vertex="1" parent="QYLtIBHe6K4uLPgKfc74-69">
          <mxGeometry y="290" width="90" height="30" as="geometry" />
        </mxCell>
        <mxCell id="QYLtIBHe6K4uLPgKfc74-79" value="Create Ticket" style="rounded=1;whiteSpace=wrap;html=1;" vertex="1" parent="QYLtIBHe6K4uLPgKfc74-69">
          <mxGeometry y="330" width="90" height="30" as="geometry" />
        </mxCell>
        <mxCell id="QYLtIBHe6K4uLPgKfc74-80" value="CRM" style="rounded=1;whiteSpace=wrap;html=1;fillColor=light-dark(#FFFFFF,#006600);" vertex="1" parent="QYLtIBHe6K4uLPgKfc74-69">
          <mxGeometry x="100" y="50" width="80" height="30" as="geometry" />
        </mxCell>
        <mxCell id="QYLtIBHe6K4uLPgKfc74-81" value="HRMS" style="rounded=1;whiteSpace=wrap;html=1;" vertex="1" parent="QYLtIBHe6K4uLPgKfc74-69">
          <mxGeometry x="190" y="50" width="80" height="30" as="geometry" />
        </mxCell>
        <mxCell id="QYLtIBHe6K4uLPgKfc74-82" value="Job Portal" style="rounded=1;whiteSpace=wrap;html=1;" vertex="1" parent="QYLtIBHe6K4uLPgKfc74-69">
          <mxGeometry x="280" y="50" width="80" height="30" as="geometry" />
        </mxCell>
        <mxCell id="QYLtIBHe6K4uLPgKfc74-83" value="Job Board" style="rounded=1;whiteSpace=wrap;html=1;" vertex="1" parent="QYLtIBHe6K4uLPgKfc74-69">
          <mxGeometry x="370" y="50" width="80" height="30" as="geometry" />
        </mxCell>
        <mxCell id="QYLtIBHe6K4uLPgKfc74-84" value="Project Management" style="rounded=1;whiteSpace=wrap;html=1;" vertex="1" parent="QYLtIBHe6K4uLPgKfc74-69">
          <mxGeometry x="460" y="50" width="80" height="30" as="geometry" />
        </mxCell>
        <mxCell id="QYLtIBHe6K4uLPgKfc74-85" value="Notifications" style="rounded=1;whiteSpace=wrap;html=1;" vertex="1" parent="QYLtIBHe6K4uLPgKfc74-69">
          <mxGeometry x="450" y="100" width="120" height="310" as="geometry" />
        </mxCell>
        <mxCell id="QYLtIBHe6K4uLPgKfc74-86" value="" style="html=1;verticalLabelPosition=bottom;align=center;labelBackgroundColor=#ffffff;verticalAlign=top;strokeWidth=2;strokeColor=#0080F0;shadow=0;dashed=0;shape=mxgraph.ios7.icons.bell;" vertex="1" parent="QYLtIBHe6K4uLPgKfc74-69">
          <mxGeometry x="510" y="16.899999999999977" width="24" height="23.099999999999998" as="geometry" />
        </mxCell>
        <mxCell id="QYLtIBHe6K4uLPgKfc74-87" value="CRM" style="rounded=1;whiteSpace=wrap;html=1;" vertex="1" parent="QYLtIBHe6K4uLPgKfc74-69">
          <mxGeometry x="130" width="160" height="40" as="geometry" />
        </mxCell>
        <mxCell id="QYLtIBHe6K4uLPgKfc74-88" value="Users" style="rounded=1;whiteSpace=wrap;html=1;" vertex="1" parent="QYLtIBHe6K4uLPgKfc74-69">
          <mxGeometry y="370" width="90" height="30" as="geometry" />
        </mxCell>
        <mxCell id="QYLtIBHe6K4uLPgKfc74-89" value="Customers&lt;span style=&quot;color: rgba(0, 0, 0, 0); font-family: monospace; font-size: 0px; text-align: start; text-wrap-mode: nowrap;&quot;&gt;%3CmxGraphModel%3E%3Croot%3E%3CmxCell%20id%3D%220%22%2F%3E%3CmxCell%20id%3D%221%22%20parent%3D%220%22%2F%3E%3CmxCell%20id%3D%222%22%20value%3D%22Leads%22%20style%3D%22rounded%3D1%3BwhiteSpace%3Dwrap%3Bhtml%3D1%3B%22%20vertex%3D%221%22%20parent%3D%221%22%3E%3CmxGeometry%20x%3D%22-320%22%20y%3D%22850%22%20width%3D%2290%22%20height%3D%2230%22%20as%3D%22geometry%22%2F%3E%3C%2FmxCell%3E%3C%2Froot%3E%3C%2FmxGraphModel%3E&lt;/span&gt;" style="rounded=1;whiteSpace=wrap;html=1;" vertex="1" parent="QYLtIBHe6K4uLPgKfc74-69">
          <mxGeometry y="410" width="90" height="30" as="geometry" />
        </mxCell>
        <mxCell id="QYLtIBHe6K4uLPgKfc74-90" value="Sales" style="rounded=1;whiteSpace=wrap;html=1;" vertex="1" parent="QYLtIBHe6K4uLPgKfc74-69">
          <mxGeometry y="450" width="90" height="30" as="geometry" />
        </mxCell>
        <mxCell id="QYLtIBHe6K4uLPgKfc74-91" value="Dashboard" style="rounded=1;whiteSpace=wrap;html=1;fillColor=light-dark(#FFFFFF,transparent);" vertex="1" parent="QYLtIBHe6K4uLPgKfc74-69">
          <mxGeometry y="50" width="90" height="30" as="geometry" />
        </mxCell>
        <mxCell id="QYLtIBHe6K4uLPgKfc74-198" value="&lt;div&gt;&lt;br&gt;&lt;table style=&quot;border-collapse:&lt;br/&gt; collapse;width:48pt&quot; width=&quot;64&quot; cellspacing=&quot;0&quot; cellpadding=&quot;0&quot; border=&quot;0&quot;&gt; &lt;colgroup&gt;&lt;col style=&quot;width:48pt&quot; width=&quot;64&quot;&gt;&lt;/colgroup&gt; &lt;tbody&gt;&lt;tr style=&quot;height:14.4pt&quot; height=&quot;19&quot;&gt;  &lt;td style=&quot;height:14.4pt;width:48pt&quot; width=&quot;64&quot; height=&quot;19&quot;&gt;service_id (PK)&lt;/td&gt; &lt;/tr&gt; &lt;tr style=&quot;height:14.4pt&quot; height=&quot;19&quot;&gt;  &lt;td style=&quot;height:14.4pt&quot; height=&quot;19&quot;&gt;name&lt;br&gt;Picture&lt;/td&gt; &lt;/tr&gt; &lt;tr style=&quot;height:14.4pt&quot; height=&quot;19&quot;&gt;  &lt;td style=&quot;height:14.4pt&quot; height=&quot;19&quot;&gt;description&lt;/td&gt; &lt;/tr&gt; &lt;tr style=&quot;height:14.4pt&quot; height=&quot;19&quot;&gt;  &lt;td style=&quot;height:14.4pt&quot; height=&quot;19&quot;&gt;category_id (FK)&lt;/td&gt; &lt;/tr&gt; &lt;tr style=&quot;height:14.4pt&quot; height=&quot;19&quot;&gt;  &lt;td style=&quot;height:14.4pt&quot; height=&quot;19&quot;&gt;rate&lt;/td&gt; &lt;/tr&gt; &lt;tr style=&quot;height:14.4pt&quot; height=&quot;19&quot;&gt;  &lt;td style=&quot;height:14.4pt&quot; height=&quot;19&quot;&gt;billing_type (hourly, fixed,&lt;br&gt;  subscription)&lt;/td&gt; &lt;/tr&gt; &lt;tr style=&quot;height:14.4pt&quot; height=&quot;19&quot;&gt;  &lt;td style=&quot;height:14.4pt&quot; height=&quot;19&quot;&gt;duration&lt;/td&gt; &lt;/tr&gt; &lt;tr style=&quot;height:14.4pt&quot; height=&quot;19&quot;&gt;  &lt;td style=&quot;height:14.4pt&quot; height=&quot;19&quot;&gt;status, created_at&lt;/td&gt; &lt;/tr&gt;&lt;/tbody&gt;&lt;/table&gt;&lt;br&gt;&lt;br&gt;&lt;div&gt;&lt;br&gt;&lt;/div&gt;&lt;/div&gt;" style="rounded=1;whiteSpace=wrap;html=1;" vertex="1" parent="QYLtIBHe6K4uLPgKfc74-69">
          <mxGeometry x="120" y="120" width="280" height="340" as="geometry" />
        </mxCell>
        <mxCell id="QYLtIBHe6K4uLPgKfc74-200" value="Note: Each Service should be listed in line with Product name, Category price and Crud button with addition product page" style="rounded=1;whiteSpace=wrap;html=1;" vertex="1" parent="QYLtIBHe6K4uLPgKfc74-69">
          <mxGeometry x="110" y="480" width="330" height="60" as="geometry" />
        </mxCell>
        <mxCell id="QYLtIBHe6K4uLPgKfc74-172" value="s" style="swimlane;startSize=0;" vertex="1" parent="1">
          <mxGeometry x="4850" y="-60" width="590" height="480" as="geometry">
            <mxRectangle x="-320" y="-640" width="50" height="40" as="alternateBounds" />
          </mxGeometry>
        </mxCell>
        <mxCell id="QYLtIBHe6K4uLPgKfc74-173" value="MOAQA" style="rounded=1;whiteSpace=wrap;html=1;" vertex="1" parent="QYLtIBHe6K4uLPgKfc74-172">
          <mxGeometry width="90" height="40" as="geometry" />
        </mxCell>
        <mxCell id="QYLtIBHe6K4uLPgKfc74-174" value="Enterprise Name" style="rounded=1;whiteSpace=wrap;html=1;" vertex="1" parent="QYLtIBHe6K4uLPgKfc74-172">
          <mxGeometry x="100" width="320" height="40" as="geometry" />
        </mxCell>
        <mxCell id="QYLtIBHe6K4uLPgKfc74-175" value="" style="ellipse;shape=doubleEllipse;whiteSpace=wrap;html=1;aspect=fixed;" vertex="1" parent="QYLtIBHe6K4uLPgKfc74-172">
          <mxGeometry x="540" y="10" width="40" height="40" as="geometry" />
        </mxCell>
        <mxCell id="QYLtIBHe6K4uLPgKfc74-176" value="Dashboard" style="rounded=1;whiteSpace=wrap;html=1;fillColor=light-dark(#FFFFFF,transparent);" vertex="1" parent="QYLtIBHe6K4uLPgKfc74-172">
          <mxGeometry y="50" width="90" height="30" as="geometry" />
        </mxCell>
        <mxCell id="QYLtIBHe6K4uLPgKfc74-177" value="Products" style="rounded=1;whiteSpace=wrap;html=1;" vertex="1" parent="QYLtIBHe6K4uLPgKfc74-172">
          <mxGeometry y="90" width="90" height="30" as="geometry" />
        </mxCell>
        <mxCell id="QYLtIBHe6K4uLPgKfc74-178" value="Services" style="rounded=1;whiteSpace=wrap;html=1;fillColor=light-dark(#FFFFFF,transparent);" vertex="1" parent="QYLtIBHe6K4uLPgKfc74-172">
          <mxGeometry y="130" width="90" height="30" as="geometry" />
        </mxCell>
        <mxCell id="QYLtIBHe6K4uLPgKfc74-179" value="Profile" style="rounded=1;whiteSpace=wrap;html=1;fillColor=light-dark(#FFFFFF,transparent);" vertex="1" parent="QYLtIBHe6K4uLPgKfc74-172">
          <mxGeometry y="170" width="90" height="30" as="geometry" />
        </mxCell>
        <mxCell id="QYLtIBHe6K4uLPgKfc74-180" value="Quotations" style="rounded=1;whiteSpace=wrap;html=1;fillColor=light-dark(#FFFFFF,transparent);" vertex="1" parent="QYLtIBHe6K4uLPgKfc74-172">
          <mxGeometry y="210" width="90" height="30" as="geometry" />
        </mxCell>
        <mxCell id="QYLtIBHe6K4uLPgKfc74-181" value="Invoices" style="rounded=1;whiteSpace=wrap;html=1;fillColor=light-dark(#FFFFFF,transparent);" vertex="1" parent="QYLtIBHe6K4uLPgKfc74-172">
          <mxGeometry y="250" width="90" height="30" as="geometry" />
        </mxCell>
        <mxCell id="QYLtIBHe6K4uLPgKfc74-182" value="Reports" style="rounded=1;whiteSpace=wrap;html=1;fillColor=light-dark(#FFFFFF,transparent);" vertex="1" parent="QYLtIBHe6K4uLPgKfc74-172">
          <mxGeometry y="290" width="90" height="30" as="geometry" />
        </mxCell>
        <mxCell id="QYLtIBHe6K4uLPgKfc74-183" value="Create Ticket" style="rounded=1;whiteSpace=wrap;html=1;fillColor=light-dark(#FFFFFF,transparent);" vertex="1" parent="QYLtIBHe6K4uLPgKfc74-172">
          <mxGeometry y="330" width="90" height="30" as="geometry" />
        </mxCell>
        <mxCell id="QYLtIBHe6K4uLPgKfc74-184" value="CRM" style="rounded=1;whiteSpace=wrap;html=1;" vertex="1" parent="QYLtIBHe6K4uLPgKfc74-172">
          <mxGeometry x="100" y="50" width="80" height="30" as="geometry" />
        </mxCell>
        <mxCell id="QYLtIBHe6K4uLPgKfc74-185" value="HRMS" style="rounded=1;whiteSpace=wrap;html=1;" vertex="1" parent="QYLtIBHe6K4uLPgKfc74-172">
          <mxGeometry x="190" y="50" width="80" height="30" as="geometry" />
        </mxCell>
        <mxCell id="QYLtIBHe6K4uLPgKfc74-186" value="Job Portal" style="rounded=1;whiteSpace=wrap;html=1;" vertex="1" parent="QYLtIBHe6K4uLPgKfc74-172">
          <mxGeometry x="280" y="50" width="80" height="30" as="geometry" />
        </mxCell>
        <mxCell id="QYLtIBHe6K4uLPgKfc74-187" value="Job Board" style="rounded=1;whiteSpace=wrap;html=1;" vertex="1" parent="QYLtIBHe6K4uLPgKfc74-172">
          <mxGeometry x="370" y="50" width="80" height="30" as="geometry" />
        </mxCell>
        <mxCell id="QYLtIBHe6K4uLPgKfc74-188" value="Project Management" style="rounded=1;whiteSpace=wrap;html=1;" vertex="1" parent="QYLtIBHe6K4uLPgKfc74-172">
          <mxGeometry x="460" y="50" width="80" height="30" as="geometry" />
        </mxCell>
        <mxCell id="QYLtIBHe6K4uLPgKfc74-189" value="Notifications" style="rounded=1;whiteSpace=wrap;html=1;" vertex="1" parent="QYLtIBHe6K4uLPgKfc74-172">
          <mxGeometry x="450" y="100" width="120" height="310" as="geometry" />
        </mxCell>
        <mxCell id="QYLtIBHe6K4uLPgKfc74-190" value="" style="html=1;verticalLabelPosition=bottom;align=center;labelBackgroundColor=#ffffff;verticalAlign=top;strokeWidth=2;strokeColor=#0080F0;shadow=0;dashed=0;shape=mxgraph.ios7.icons.bell;" vertex="1" parent="QYLtIBHe6K4uLPgKfc74-172">
          <mxGeometry x="510" y="16.899999999999977" width="24" height="23.099999999999998" as="geometry" />
        </mxCell>
        <mxCell id="QYLtIBHe6K4uLPgKfc74-191" value="Invoices" style="swimlane;whiteSpace=wrap;html=1;startSize=23;" vertex="1" parent="QYLtIBHe6K4uLPgKfc74-172">
          <mxGeometry x="110" y="100" width="320" height="310" as="geometry" />
        </mxCell>
        <mxCell id="QYLtIBHe6K4uLPgKfc74-192" value="First Name: Last Name: CNIC,: Department: Reporting:&amp;nbsp;&lt;div&gt;Phone #: Joining Date:&amp;nbsp;&lt;/div&gt;" style="rounded=1;whiteSpace=wrap;html=1;" vertex="1" parent="QYLtIBHe6K4uLPgKfc74-191">
          <mxGeometry x="10" y="30" width="300" height="270" as="geometry" />
        </mxCell>
        <mxCell id="QYLtIBHe6K4uLPgKfc74-193" value="Add Users" style="rounded=1;whiteSpace=wrap;html=1;fillColor=light-dark(#FFFFFF,#006600);" vertex="1" parent="QYLtIBHe6K4uLPgKfc74-172">
          <mxGeometry y="370" width="90" height="30" as="geometry" />
        </mxCell>
        <mxCell id="QYLtIBHe6K4uLPgKfc74-194" value="Settings" style="rounded=1;whiteSpace=wrap;html=1;" vertex="1" parent="QYLtIBHe6K4uLPgKfc74-172">
          <mxGeometry y="410" width="90" height="30" as="geometry" />
        </mxCell>
        <mxCell id="QYLtIBHe6K4uLPgKfc74-197" value="Each Line item should have a separate page when created or for CRUD" style="rounded=1;whiteSpace=wrap;html=1;" vertex="1" parent="QYLtIBHe6K4uLPgKfc74-172">
          <mxGeometry x="110" y="410" width="330" height="60" as="geometry" />
        </mxCell>
        <mxCell id="QYLtIBHe6K4uLPgKfc74-201" value="N" style="swimlane;startSize=0;" vertex="1" parent="1">
          <mxGeometry x="1550" y="490" width="590" height="550" as="geometry">
            <mxRectangle x="-320" y="-640" width="50" height="40" as="alternateBounds" />
          </mxGeometry>
        </mxCell>
        <mxCell id="QYLtIBHe6K4uLPgKfc74-202" value="MOAQA" style="rounded=1;whiteSpace=wrap;html=1;" vertex="1" parent="QYLtIBHe6K4uLPgKfc74-201">
          <mxGeometry width="90" height="40" as="geometry" />
        </mxCell>
        <mxCell id="QYLtIBHe6K4uLPgKfc74-203" value="Enterprise Name" style="rounded=1;whiteSpace=wrap;html=1;" vertex="1" parent="QYLtIBHe6K4uLPgKfc74-201">
          <mxGeometry x="310" width="160" height="40" as="geometry" />
        </mxCell>
        <mxCell id="QYLtIBHe6K4uLPgKfc74-204" value="" style="ellipse;shape=doubleEllipse;whiteSpace=wrap;html=1;aspect=fixed;" vertex="1" parent="QYLtIBHe6K4uLPgKfc74-201">
          <mxGeometry x="540" y="10" width="40" height="40" as="geometry" />
        </mxCell>
        <mxCell id="QYLtIBHe6K4uLPgKfc74-205" value="Products" style="rounded=1;whiteSpace=wrap;html=1;fillColor=light-dark(#FFFFFF,transparent);" vertex="1" parent="QYLtIBHe6K4uLPgKfc74-201">
          <mxGeometry y="90" width="90" height="30" as="geometry" />
        </mxCell>
        <mxCell id="QYLtIBHe6K4uLPgKfc74-206" value="Services" style="rounded=1;whiteSpace=wrap;html=1;fillColor=light-dark(#FFFFFF,transparent);" vertex="1" parent="QYLtIBHe6K4uLPgKfc74-201">
          <mxGeometry y="130" width="90" height="30" as="geometry" />
        </mxCell>
        <mxCell id="QYLtIBHe6K4uLPgKfc74-207" value="Leads" style="rounded=1;whiteSpace=wrap;html=1;fillColor=light-dark(#FFFFFF,#006600);" vertex="1" parent="QYLtIBHe6K4uLPgKfc74-201">
          <mxGeometry y="170" width="90" height="30" as="geometry" />
        </mxCell>
        <mxCell id="QYLtIBHe6K4uLPgKfc74-208" value="Quotations" style="rounded=1;whiteSpace=wrap;html=1;" vertex="1" parent="QYLtIBHe6K4uLPgKfc74-201">
          <mxGeometry y="210" width="90" height="30" as="geometry" />
        </mxCell>
        <mxCell id="QYLtIBHe6K4uLPgKfc74-209" value="Invoices" style="rounded=1;whiteSpace=wrap;html=1;" vertex="1" parent="QYLtIBHe6K4uLPgKfc74-201">
          <mxGeometry y="250" width="90" height="30" as="geometry" />
        </mxCell>
        <mxCell id="QYLtIBHe6K4uLPgKfc74-210" value="Reports" style="rounded=1;whiteSpace=wrap;html=1;" vertex="1" parent="QYLtIBHe6K4uLPgKfc74-201">
          <mxGeometry y="290" width="90" height="30" as="geometry" />
        </mxCell>
        <mxCell id="QYLtIBHe6K4uLPgKfc74-211" value="Create Ticket" style="rounded=1;whiteSpace=wrap;html=1;" vertex="1" parent="QYLtIBHe6K4uLPgKfc74-201">
          <mxGeometry y="330" width="90" height="30" as="geometry" />
        </mxCell>
        <mxCell id="QYLtIBHe6K4uLPgKfc74-212" value="CRM" style="rounded=1;whiteSpace=wrap;html=1;fillColor=light-dark(#FFFFFF,#006600);" vertex="1" parent="QYLtIBHe6K4uLPgKfc74-201">
          <mxGeometry x="100" y="50" width="80" height="30" as="geometry" />
        </mxCell>
        <mxCell id="QYLtIBHe6K4uLPgKfc74-213" value="HRMS" style="rounded=1;whiteSpace=wrap;html=1;" vertex="1" parent="QYLtIBHe6K4uLPgKfc74-201">
          <mxGeometry x="190" y="50" width="80" height="30" as="geometry" />
        </mxCell>
        <mxCell id="QYLtIBHe6K4uLPgKfc74-214" value="Job Portal" style="rounded=1;whiteSpace=wrap;html=1;" vertex="1" parent="QYLtIBHe6K4uLPgKfc74-201">
          <mxGeometry x="280" y="50" width="80" height="30" as="geometry" />
        </mxCell>
        <mxCell id="QYLtIBHe6K4uLPgKfc74-215" value="Job Board" style="rounded=1;whiteSpace=wrap;html=1;" vertex="1" parent="QYLtIBHe6K4uLPgKfc74-201">
          <mxGeometry x="370" y="50" width="80" height="30" as="geometry" />
        </mxCell>
        <mxCell id="QYLtIBHe6K4uLPgKfc74-216" value="Project Management" style="rounded=1;whiteSpace=wrap;html=1;" vertex="1" parent="QYLtIBHe6K4uLPgKfc74-201">
          <mxGeometry x="460" y="50" width="80" height="30" as="geometry" />
        </mxCell>
        <mxCell id="QYLtIBHe6K4uLPgKfc74-218" value="" style="html=1;verticalLabelPosition=bottom;align=center;labelBackgroundColor=#ffffff;verticalAlign=top;strokeWidth=2;strokeColor=#0080F0;shadow=0;dashed=0;shape=mxgraph.ios7.icons.bell;" vertex="1" parent="QYLtIBHe6K4uLPgKfc74-201">
          <mxGeometry x="510" y="16.899999999999977" width="24" height="23.099999999999998" as="geometry" />
        </mxCell>
        <mxCell id="QYLtIBHe6K4uLPgKfc74-219" value="CRM" style="rounded=1;whiteSpace=wrap;html=1;" vertex="1" parent="QYLtIBHe6K4uLPgKfc74-201">
          <mxGeometry x="130" width="160" height="40" as="geometry" />
        </mxCell>
        <mxCell id="QYLtIBHe6K4uLPgKfc74-220" value="Users" style="rounded=1;whiteSpace=wrap;html=1;" vertex="1" parent="QYLtIBHe6K4uLPgKfc74-201">
          <mxGeometry y="370" width="90" height="30" as="geometry" />
        </mxCell>
        <mxCell id="QYLtIBHe6K4uLPgKfc74-221" value="Customers&lt;span style=&quot;color: rgba(0, 0, 0, 0); font-family: monospace; font-size: 0px; text-align: start; text-wrap-mode: nowrap;&quot;&gt;%3CmxGraphModel%3E%3Croot%3E%3CmxCell%20id%3D%220%22%2F%3E%3CmxCell%20id%3D%221%22%20parent%3D%220%22%2F%3E%3CmxCell%20id%3D%222%22%20value%3D%22Leads%22%20style%3D%22rounded%3D1%3BwhiteSpace%3Dwrap%3Bhtml%3D1%3B%22%20vertex%3D%221%22%20parent%3D%221%22%3E%3CmxGeometry%20x%3D%22-320%22%20y%3D%22850%22%20width%3D%2290%22%20height%3D%2230%22%20as%3D%22geometry%22%2F%3E%3C%2FmxCell%3E%3C%2Froot%3E%3C%2FmxGraphModel%3E&lt;/span&gt;" style="rounded=1;whiteSpace=wrap;html=1;" vertex="1" parent="QYLtIBHe6K4uLPgKfc74-201">
          <mxGeometry y="410" width="90" height="30" as="geometry" />
        </mxCell>
        <mxCell id="QYLtIBHe6K4uLPgKfc74-222" value="Sales" style="rounded=1;whiteSpace=wrap;html=1;" vertex="1" parent="QYLtIBHe6K4uLPgKfc74-201">
          <mxGeometry y="450" width="90" height="30" as="geometry" />
        </mxCell>
        <mxCell id="QYLtIBHe6K4uLPgKfc74-223" value="Dashboard" style="rounded=1;whiteSpace=wrap;html=1;fillColor=light-dark(#FFFFFF,transparent);" vertex="1" parent="QYLtIBHe6K4uLPgKfc74-201">
          <mxGeometry y="50" width="90" height="30" as="geometry" />
        </mxCell>
        <mxCell id="QYLtIBHe6K4uLPgKfc74-224" value="&lt;div&gt;&lt;br&gt;&lt;br&gt;&lt;table style=&quot;border-collapse:&lt;br/&gt; collapse;width:48pt&quot; width=&quot;64&quot; cellspacing=&quot;0&quot; cellpadding=&quot;0&quot; border=&quot;0&quot;&gt; &lt;colgroup&gt;&lt;col style=&quot;width:48pt&quot; width=&quot;64&quot;&gt;&lt;/colgroup&gt; &lt;tbody&gt;&lt;tr style=&quot;height:15.0pt&quot; height=&quot;20&quot;&gt;  &lt;td style=&quot;height:15.0pt;width:48pt&quot; width=&quot;64&quot; class=&quot;xl63&quot; height=&quot;20&quot;&gt;lead_id (PK)&amp;nbsp;&lt;/td&gt; &lt;/tr&gt; &lt;tr style=&quot;height:15.0pt&quot; height=&quot;20&quot;&gt;  &lt;td style=&quot;height:15.0pt&quot; class=&quot;xl63&quot; height=&quot;20&quot;&gt;full_name&lt;/td&gt; &lt;/tr&gt; &lt;tr style=&quot;height:15.0pt&quot; height=&quot;20&quot;&gt;  &lt;td style=&quot;height:15.0pt&quot; class=&quot;xl63&quot; height=&quot;20&quot;&gt;email&lt;/td&gt; &lt;/tr&gt; &lt;tr style=&quot;height:15.0pt&quot; height=&quot;20&quot;&gt;  &lt;td style=&quot;height:15.0pt&quot; class=&quot;xl63&quot; height=&quot;20&quot;&gt;phone&lt;/td&gt; &lt;/tr&gt; &lt;tr style=&quot;height:15.0pt&quot; height=&quot;20&quot;&gt;  &lt;td style=&quot;height:15.0pt&quot; class=&quot;xl63&quot; height=&quot;20&quot;&gt;company_name&lt;/td&gt; &lt;/tr&gt; &lt;tr style=&quot;height:15.0pt&quot; height=&quot;20&quot;&gt;  &lt;td style=&quot;height:15.0pt&quot; class=&quot;xl63&quot; height=&quot;20&quot;&gt;job_title&lt;/td&gt; &lt;/tr&gt; &lt;tr style=&quot;height:15.0pt&quot; height=&quot;20&quot;&gt;  &lt;td style=&quot;height:15.0pt&quot; class=&quot;xl63&quot; height=&quot;20&quot;&gt;lead_source&lt;font class=&quot;font0&quot;&gt;&lt;br&gt;  (e.g., Web Form, Event, Referral)&lt;/font&gt;&lt;/td&gt; &lt;/tr&gt; &lt;tr style=&quot;height:15.0pt&quot; height=&quot;20&quot;&gt;  &lt;td style=&quot;height:15.0pt&quot; class=&quot;xl63&quot; height=&quot;20&quot;&gt;lead_stage&lt;font class=&quot;font0&quot;&gt;&lt;br&gt;  (Cold, Warm, Hot)&lt;/font&gt;&lt;/td&gt; &lt;/tr&gt; &lt;tr style=&quot;height:15.0pt&quot; height=&quot;20&quot;&gt;  &lt;td style=&quot;height:15.0pt&quot; class=&quot;xl63&quot; height=&quot;20&quot;&gt;lead_score&lt;font class=&quot;font0&quot;&gt;&lt;br&gt;  (numeric, based on interaction)&lt;/font&gt;&lt;/td&gt; &lt;/tr&gt; &lt;tr style=&quot;height:15.0pt&quot; height=&quot;20&quot;&gt;  &lt;td style=&quot;height:15.0pt&quot; class=&quot;xl63&quot; height=&quot;20&quot;&gt;interested_in&lt;font class=&quot;font0&quot;&gt; (Product/Service Category)&lt;/font&gt;&lt;/td&gt; &lt;/tr&gt; &lt;tr style=&quot;height:15.0pt&quot; height=&quot;20&quot;&gt;  &lt;td style=&quot;height:15.0pt&quot; class=&quot;xl63&quot; height=&quot;20&quot;&gt;assigned_to (FK)&amp;nbsp;&lt;font class=&quot;font0&quot;&gt;– CRM user/sales rep&lt;/font&gt;&lt;/td&gt; &lt;/tr&gt; &lt;tr style=&quot;height:15.0pt&quot; height=&quot;20&quot;&gt;  &lt;td style=&quot;height:15.0pt&quot; class=&quot;xl63&quot; height=&quot;20&quot;&gt;created_at&lt;font class=&quot;font0&quot;&gt;,&lt;br&gt;  &lt;/font&gt;&lt;font class=&quot;font5&quot;&gt;last_contacted_at&lt;/font&gt;&lt;font class=&quot;font0&quot;&gt;, &lt;/font&gt;&lt;font class=&quot;font5&quot;&gt;status (active/inactive)&lt;/font&gt;&lt;/td&gt; &lt;/tr&gt;&lt;/tbody&gt;&lt;/table&gt;&lt;div&gt;&lt;br&gt;&lt;/div&gt;&lt;/div&gt;" style="rounded=1;whiteSpace=wrap;html=1;" vertex="1" parent="QYLtIBHe6K4uLPgKfc74-201">
          <mxGeometry x="120" y="90" width="320" height="370" as="geometry" />
        </mxCell>
        <mxCell id="QYLtIBHe6K4uLPgKfc74-225" value="Note: Each Service should be listed in line with Product name, Category price and Crud button with addition product page" style="rounded=1;whiteSpace=wrap;html=1;" vertex="1" parent="QYLtIBHe6K4uLPgKfc74-201">
          <mxGeometry x="110" y="480" width="330" height="60" as="geometry" />
        </mxCell>
        <mxCell id="QYLtIBHe6K4uLPgKfc74-226" value="Cold Leads" style="rounded=1;whiteSpace=wrap;html=1;" vertex="1" parent="QYLtIBHe6K4uLPgKfc74-201">
          <mxGeometry x="458" y="170" width="120" height="60" as="geometry" />
        </mxCell>
        <mxCell id="QYLtIBHe6K4uLPgKfc74-227" value="Dead Lead" style="rounded=1;whiteSpace=wrap;html=1;" vertex="1" parent="QYLtIBHe6K4uLPgKfc74-201">
          <mxGeometry x="460" y="240" width="120" height="60" as="geometry" />
        </mxCell>
        <mxCell id="QYLtIBHe6K4uLPgKfc74-228" value="Warm Leads" style="rounded=1;whiteSpace=wrap;html=1;" vertex="1" parent="QYLtIBHe6K4uLPgKfc74-201">
          <mxGeometry x="460" y="310" width="120" height="60" as="geometry" />
        </mxCell>
        <mxCell id="QYLtIBHe6K4uLPgKfc74-229" value="Customers" style="rounded=1;whiteSpace=wrap;html=1;" vertex="1" parent="QYLtIBHe6K4uLPgKfc74-201">
          <mxGeometry x="460" y="380" width="120" height="60" as="geometry" />
        </mxCell>
        <mxCell id="QYLtIBHe6K4uLPgKfc74-230" value="Add Leads" style="rounded=1;whiteSpace=wrap;html=1;" vertex="1" parent="QYLtIBHe6K4uLPgKfc74-201">
          <mxGeometry x="458" y="100" width="120" height="60" as="geometry" />
        </mxCell>
        <mxCell id="QYLtIBHe6K4uLPgKfc74-231" value="N" style="swimlane;startSize=0;" vertex="1" parent="1">
          <mxGeometry x="2160" y="490" width="590" height="550" as="geometry">
            <mxRectangle x="-320" y="-640" width="50" height="40" as="alternateBounds" />
          </mxGeometry>
        </mxCell>
        <mxCell id="QYLtIBHe6K4uLPgKfc74-232" value="MOAQA" style="rounded=1;whiteSpace=wrap;html=1;" vertex="1" parent="QYLtIBHe6K4uLPgKfc74-231">
          <mxGeometry width="90" height="40" as="geometry" />
        </mxCell>
        <mxCell id="QYLtIBHe6K4uLPgKfc74-233" value="Enterprise Name" style="rounded=1;whiteSpace=wrap;html=1;" vertex="1" parent="QYLtIBHe6K4uLPgKfc74-231">
          <mxGeometry x="310" width="160" height="40" as="geometry" />
        </mxCell>
        <mxCell id="QYLtIBHe6K4uLPgKfc74-234" value="" style="ellipse;shape=doubleEllipse;whiteSpace=wrap;html=1;aspect=fixed;" vertex="1" parent="QYLtIBHe6K4uLPgKfc74-231">
          <mxGeometry x="540" y="10" width="40" height="40" as="geometry" />
        </mxCell>
        <mxCell id="QYLtIBHe6K4uLPgKfc74-235" value="Products" style="rounded=1;whiteSpace=wrap;html=1;fillColor=light-dark(#FFFFFF,transparent);" vertex="1" parent="QYLtIBHe6K4uLPgKfc74-231">
          <mxGeometry y="90" width="90" height="30" as="geometry" />
        </mxCell>
        <mxCell id="QYLtIBHe6K4uLPgKfc74-236" value="Services" style="rounded=1;whiteSpace=wrap;html=1;fillColor=light-dark(#FFFFFF,transparent);" vertex="1" parent="QYLtIBHe6K4uLPgKfc74-231">
          <mxGeometry y="130" width="90" height="30" as="geometry" />
        </mxCell>
        <mxCell id="QYLtIBHe6K4uLPgKfc74-237" value="Leads" style="rounded=1;whiteSpace=wrap;html=1;fillColor=light-dark(#FFFFFF,#006600);" vertex="1" parent="QYLtIBHe6K4uLPgKfc74-231">
          <mxGeometry y="170" width="90" height="30" as="geometry" />
        </mxCell>
        <mxCell id="QYLtIBHe6K4uLPgKfc74-238" value="Quotations" style="rounded=1;whiteSpace=wrap;html=1;" vertex="1" parent="QYLtIBHe6K4uLPgKfc74-231">
          <mxGeometry y="210" width="90" height="30" as="geometry" />
        </mxCell>
        <mxCell id="QYLtIBHe6K4uLPgKfc74-239" value="Invoices" style="rounded=1;whiteSpace=wrap;html=1;" vertex="1" parent="QYLtIBHe6K4uLPgKfc74-231">
          <mxGeometry y="250" width="90" height="30" as="geometry" />
        </mxCell>
        <mxCell id="QYLtIBHe6K4uLPgKfc74-240" value="Reports" style="rounded=1;whiteSpace=wrap;html=1;" vertex="1" parent="QYLtIBHe6K4uLPgKfc74-231">
          <mxGeometry y="290" width="90" height="30" as="geometry" />
        </mxCell>
        <mxCell id="QYLtIBHe6K4uLPgKfc74-241" value="Create Ticket" style="rounded=1;whiteSpace=wrap;html=1;" vertex="1" parent="QYLtIBHe6K4uLPgKfc74-231">
          <mxGeometry y="330" width="90" height="30" as="geometry" />
        </mxCell>
        <mxCell id="QYLtIBHe6K4uLPgKfc74-242" value="CRM" style="rounded=1;whiteSpace=wrap;html=1;fillColor=light-dark(#FFFFFF,#006600);" vertex="1" parent="QYLtIBHe6K4uLPgKfc74-231">
          <mxGeometry x="100" y="50" width="80" height="30" as="geometry" />
        </mxCell>
        <mxCell id="QYLtIBHe6K4uLPgKfc74-243" value="HRMS" style="rounded=1;whiteSpace=wrap;html=1;" vertex="1" parent="QYLtIBHe6K4uLPgKfc74-231">
          <mxGeometry x="190" y="50" width="80" height="30" as="geometry" />
        </mxCell>
        <mxCell id="QYLtIBHe6K4uLPgKfc74-244" value="Job Portal" style="rounded=1;whiteSpace=wrap;html=1;" vertex="1" parent="QYLtIBHe6K4uLPgKfc74-231">
          <mxGeometry x="280" y="50" width="80" height="30" as="geometry" />
        </mxCell>
        <mxCell id="QYLtIBHe6K4uLPgKfc74-245" value="Job Board" style="rounded=1;whiteSpace=wrap;html=1;" vertex="1" parent="QYLtIBHe6K4uLPgKfc74-231">
          <mxGeometry x="370" y="50" width="80" height="30" as="geometry" />
        </mxCell>
        <mxCell id="QYLtIBHe6K4uLPgKfc74-246" value="Project Management" style="rounded=1;whiteSpace=wrap;html=1;" vertex="1" parent="QYLtIBHe6K4uLPgKfc74-231">
          <mxGeometry x="460" y="50" width="80" height="30" as="geometry" />
        </mxCell>
        <mxCell id="QYLtIBHe6K4uLPgKfc74-247" value="" style="html=1;verticalLabelPosition=bottom;align=center;labelBackgroundColor=#ffffff;verticalAlign=top;strokeWidth=2;strokeColor=#0080F0;shadow=0;dashed=0;shape=mxgraph.ios7.icons.bell;" vertex="1" parent="QYLtIBHe6K4uLPgKfc74-231">
          <mxGeometry x="510" y="16.899999999999977" width="24" height="23.099999999999998" as="geometry" />
        </mxCell>
        <mxCell id="QYLtIBHe6K4uLPgKfc74-248" value="CRM" style="rounded=1;whiteSpace=wrap;html=1;" vertex="1" parent="QYLtIBHe6K4uLPgKfc74-231">
          <mxGeometry x="130" width="160" height="40" as="geometry" />
        </mxCell>
        <mxCell id="QYLtIBHe6K4uLPgKfc74-249" value="Users" style="rounded=1;whiteSpace=wrap;html=1;" vertex="1" parent="QYLtIBHe6K4uLPgKfc74-231">
          <mxGeometry y="370" width="90" height="30" as="geometry" />
        </mxCell>
        <mxCell id="QYLtIBHe6K4uLPgKfc74-250" value="Customers&lt;span style=&quot;color: rgba(0, 0, 0, 0); font-family: monospace; font-size: 0px; text-align: start; text-wrap-mode: nowrap;&quot;&gt;%3CmxGraphModel%3E%3Croot%3E%3CmxCell%20id%3D%220%22%2F%3E%3CmxCell%20id%3D%221%22%20parent%3D%220%22%2F%3E%3CmxCell%20id%3D%222%22%20value%3D%22Leads%22%20style%3D%22rounded%3D1%3BwhiteSpace%3Dwrap%3Bhtml%3D1%3B%22%20vertex%3D%221%22%20parent%3D%221%22%3E%3CmxGeometry%20x%3D%22-320%22%20y%3D%22850%22%20width%3D%2290%22%20height%3D%2230%22%20as%3D%22geometry%22%2F%3E%3C%2FmxCell%3E%3C%2Froot%3E%3C%2FmxGraphModel%3E&lt;/span&gt;" style="rounded=1;whiteSpace=wrap;html=1;" vertex="1" parent="QYLtIBHe6K4uLPgKfc74-231">
          <mxGeometry y="410" width="90" height="30" as="geometry" />
        </mxCell>
        <mxCell id="QYLtIBHe6K4uLPgKfc74-251" value="Sales" style="rounded=1;whiteSpace=wrap;html=1;" vertex="1" parent="QYLtIBHe6K4uLPgKfc74-231">
          <mxGeometry y="450" width="90" height="30" as="geometry" />
        </mxCell>
        <mxCell id="QYLtIBHe6K4uLPgKfc74-252" value="Dashboard" style="rounded=1;whiteSpace=wrap;html=1;fillColor=light-dark(#FFFFFF,transparent);" vertex="1" parent="QYLtIBHe6K4uLPgKfc74-231">
          <mxGeometry y="50" width="90" height="30" as="geometry" />
        </mxCell>
        <mxCell id="QYLtIBHe6K4uLPgKfc74-253" value="&lt;div&gt;&lt;div&gt;&lt;br&gt;&lt;/div&gt;&lt;/div&gt;" style="rounded=1;whiteSpace=wrap;html=1;" vertex="1" parent="QYLtIBHe6K4uLPgKfc74-231">
          <mxGeometry x="120" y="90" width="320" height="370" as="geometry" />
        </mxCell>
        <mxCell id="QYLtIBHe6K4uLPgKfc74-254" value="Note: Each Service should be listed in line with Product name, Category price and Crud button with addition product page" style="rounded=1;whiteSpace=wrap;html=1;" vertex="1" parent="QYLtIBHe6K4uLPgKfc74-231">
          <mxGeometry x="110" y="480" width="330" height="60" as="geometry" />
        </mxCell>
        <mxCell id="QYLtIBHe6K4uLPgKfc74-255" value="Cold Leads" style="rounded=1;whiteSpace=wrap;html=1;" vertex="1" parent="QYLtIBHe6K4uLPgKfc74-231">
          <mxGeometry x="458" y="170" width="120" height="60" as="geometry" />
        </mxCell>
        <mxCell id="QYLtIBHe6K4uLPgKfc74-256" value="Dead Lead" style="rounded=1;whiteSpace=wrap;html=1;" vertex="1" parent="QYLtIBHe6K4uLPgKfc74-231">
          <mxGeometry x="460" y="240" width="120" height="60" as="geometry" />
        </mxCell>
        <mxCell id="QYLtIBHe6K4uLPgKfc74-257" value="Warm Leads" style="rounded=1;whiteSpace=wrap;html=1;" vertex="1" parent="QYLtIBHe6K4uLPgKfc74-231">
          <mxGeometry x="460" y="310" width="120" height="60" as="geometry" />
        </mxCell>
        <mxCell id="QYLtIBHe6K4uLPgKfc74-258" value="Customers" style="rounded=1;whiteSpace=wrap;html=1;" vertex="1" parent="QYLtIBHe6K4uLPgKfc74-231">
          <mxGeometry x="460" y="380" width="120" height="60" as="geometry" />
        </mxCell>
        <mxCell id="QYLtIBHe6K4uLPgKfc74-259" value="Add Leads" style="rounded=1;whiteSpace=wrap;html=1;fillColor=light-dark(#FFFFFF,#006600);" vertex="1" parent="QYLtIBHe6K4uLPgKfc74-231">
          <mxGeometry x="458" y="100" width="120" height="60" as="geometry" />
        </mxCell>
        <mxCell id="QYLtIBHe6K4uLPgKfc74-261" value="Add Leads" style="rounded=1;whiteSpace=wrap;html=1;fillColor=light-dark(#FFFFFF,#006600);" vertex="1" parent="QYLtIBHe6K4uLPgKfc74-231">
          <mxGeometry x="320" y="110" width="100" height="20" as="geometry" />
        </mxCell>
        <mxCell id="QYLtIBHe6K4uLPgKfc74-266" value="" style="rounded=1;whiteSpace=wrap;html=1;arcSize=15;" vertex="1" parent="1">
          <mxGeometry x="2760" y="600" width="270" height="360" as="geometry" />
        </mxCell>
        <mxCell id="QYLtIBHe6K4uLPgKfc74-265" style="edgeStyle=orthogonalEdgeStyle;rounded=0;orthogonalLoop=1;jettySize=auto;html=1;" edge="1" parent="1" source="QYLtIBHe6K4uLPgKfc74-261" target="QYLtIBHe6K4uLPgKfc74-266">
          <mxGeometry relative="1" as="geometry">
            <mxPoint x="2790" y="590" as="targetPoint" />
            <Array as="points">
              <mxPoint x="2530" y="580" />
              <mxPoint x="2790" y="580" />
            </Array>
          </mxGeometry>
        </mxCell>
        <mxCell id="QYLtIBHe6K4uLPgKfc74-267" value="Upload File in csv" style="rounded=1;whiteSpace=wrap;html=1;" vertex="1" parent="1">
          <mxGeometry x="2930" y="620" width="80" height="30" as="geometry" />
        </mxCell>
      </root>
    </mxGraphModel>
  </diagram>
  <diagram id="r-vhLgjTzWw1-B_MegxW" name="ERD">
    <mxGraphModel dx="1044" dy="562" grid="1" gridSize="10" guides="1" tooltips="1" connect="1" arrows="1" fold="1" page="0" pageScale="1" pageWidth="850" pageHeight="1100" math="0" shadow="0">
      <root>
        <mxCell id="0" />
        <mxCell id="1" parent="0" />
        <mxCell id="4oLMF5wADDduYuYizho2-9" value="" style="edgeStyle=orthogonalEdgeStyle;rounded=0;orthogonalLoop=1;jettySize=auto;html=1;" edge="1" parent="1" source="4oLMF5wADDduYuYizho2-1" target="4oLMF5wADDduYuYizho2-8">
          <mxGeometry relative="1" as="geometry" />
        </mxCell>
        <mxCell id="4oLMF5wADDduYuYizho2-1" value="MOAQA" style="rounded=0;whiteSpace=wrap;html=1;" vertex="1" parent="1">
          <mxGeometry x="360" y="280" width="160" height="80" as="geometry" />
        </mxCell>
        <mxCell id="4oLMF5wADDduYuYizho2-13" value="" style="edgeStyle=orthogonalEdgeStyle;rounded=0;orthogonalLoop=1;jettySize=auto;html=1;" edge="1" parent="1" source="4oLMF5wADDduYuYizho2-8" target="4oLMF5wADDduYuYizho2-12">
          <mxGeometry relative="1" as="geometry" />
        </mxCell>
        <mxCell id="4oLMF5wADDduYuYizho2-8" value="Superadmin" style="whiteSpace=wrap;html=1;rounded=0;" vertex="1" parent="1">
          <mxGeometry x="380" y="450" width="120" height="60" as="geometry" />
        </mxCell>
        <mxCell id="4pHVwr0b4rEmOrW6OnJz-4" value="" style="edgeStyle=orthogonalEdgeStyle;rounded=0;orthogonalLoop=1;jettySize=auto;html=1;" edge="1" parent="1" source="4oLMF5wADDduYuYizho2-12" target="4pHVwr0b4rEmOrW6OnJz-3">
          <mxGeometry relative="1" as="geometry" />
        </mxCell>
        <mxCell id="4oLMF5wADDduYuYizho2-12" value="Dashboard&lt;div&gt;Products&lt;/div&gt;&lt;div&gt;Services&lt;/div&gt;&lt;div&gt;Users&lt;/div&gt;&lt;div&gt;Enterprise&lt;/div&gt;&lt;div&gt;Vendors&lt;/div&gt;&lt;div&gt;Quotations&lt;/div&gt;&lt;div&gt;A/R&lt;/div&gt;&lt;div&gt;A/P&lt;/div&gt;&lt;div&gt;Receipts&lt;/div&gt;&lt;div&gt;Payments&lt;/div&gt;&lt;div&gt;Invoices&lt;/div&gt;&lt;div&gt;Reports&lt;/div&gt;&lt;div&gt;HelpDesk&lt;/div&gt;&lt;div&gt;Job Portal Admin&lt;/div&gt;" style="rounded=0;whiteSpace=wrap;html=1;" vertex="1" parent="1">
          <mxGeometry x="580" y="365" width="120" height="230" as="geometry" />
        </mxCell>
        <mxCell id="4pHVwr0b4rEmOrW6OnJz-6" value="" style="edgeStyle=orthogonalEdgeStyle;rounded=0;orthogonalLoop=1;jettySize=auto;html=1;" edge="1" parent="1" source="4pHVwr0b4rEmOrW6OnJz-3" target="4pHVwr0b4rEmOrW6OnJz-5">
          <mxGeometry relative="1" as="geometry" />
        </mxCell>
        <mxCell id="4pHVwr0b4rEmOrW6OnJz-3" value="Login" style="rhombus;whiteSpace=wrap;html=1;rounded=0;" vertex="1" parent="1">
          <mxGeometry x="600" y="640" width="80" height="80" as="geometry" />
        </mxCell>
        <mxCell id="4pHVwr0b4rEmOrW6OnJz-8" value="" style="edgeStyle=orthogonalEdgeStyle;rounded=0;orthogonalLoop=1;jettySize=auto;html=1;" edge="1" parent="1" source="4pHVwr0b4rEmOrW6OnJz-5" target="4pHVwr0b4rEmOrW6OnJz-7">
          <mxGeometry relative="1" as="geometry" />
        </mxCell>
        <mxCell id="zXsgKNrJru0R8_roinGk-2" value="" style="edgeStyle=orthogonalEdgeStyle;rounded=0;orthogonalLoop=1;jettySize=auto;html=1;" edge="1" parent="1" source="4pHVwr0b4rEmOrW6OnJz-5" target="zXsgKNrJru0R8_roinGk-1">
          <mxGeometry relative="1" as="geometry" />
        </mxCell>
        <mxCell id="4pHVwr0b4rEmOrW6OnJz-5" value="Enterprise" style="whiteSpace=wrap;html=1;rounded=0;" vertex="1" parent="1">
          <mxGeometry x="740" y="650" width="120" height="60" as="geometry" />
        </mxCell>
        <mxCell id="4pHVwr0b4rEmOrW6OnJz-7" value="Dashboard&lt;div&gt;Acquired Products&lt;/div&gt;&lt;div&gt;Acquired Services&lt;/div&gt;&lt;div&gt;Provided quotations&lt;/div&gt;&lt;div&gt;Provided Invoices&lt;/div&gt;&lt;div&gt;Analytics&lt;/div&gt;&lt;div&gt;Add Users&lt;/div&gt;&lt;div&gt;Helpdesk&lt;/div&gt;&lt;div&gt;&lt;br&gt;&lt;/div&gt;" style="rounded=0;whiteSpace=wrap;html=1;" vertex="1" parent="1">
          <mxGeometry x="940" y="610" width="120" height="140" as="geometry" />
        </mxCell>
        <mxCell id="zXsgKNrJru0R8_roinGk-4" value="" style="edgeStyle=orthogonalEdgeStyle;rounded=0;orthogonalLoop=1;jettySize=auto;html=1;" edge="1" parent="1" source="zXsgKNrJru0R8_roinGk-1" target="zXsgKNrJru0R8_roinGk-3">
          <mxGeometry relative="1" as="geometry" />
        </mxCell>
        <mxCell id="zXsgKNrJru0R8_roinGk-6" value="" style="edgeStyle=orthogonalEdgeStyle;rounded=0;orthogonalLoop=1;jettySize=auto;html=1;" edge="1" parent="1" source="zXsgKNrJru0R8_roinGk-1" target="zXsgKNrJru0R8_roinGk-5">
          <mxGeometry relative="1" as="geometry" />
        </mxCell>
        <mxCell id="zXsgKNrJru0R8_roinGk-1" value="Job Board" style="whiteSpace=wrap;html=1;rounded=0;" vertex="1" parent="1">
          <mxGeometry x="740" y="790" width="120" height="60" as="geometry" />
        </mxCell>
        <mxCell id="zXsgKNrJru0R8_roinGk-8" value="" style="edgeStyle=orthogonalEdgeStyle;rounded=0;orthogonalLoop=1;jettySize=auto;html=1;" edge="1" parent="1" source="zXsgKNrJru0R8_roinGk-3" target="zXsgKNrJru0R8_roinGk-7">
          <mxGeometry relative="1" as="geometry" />
        </mxCell>
        <mxCell id="zXsgKNrJru0R8_roinGk-3" value="HRMS" style="whiteSpace=wrap;html=1;rounded=0;" vertex="1" parent="1">
          <mxGeometry x="940" y="790" width="120" height="60" as="geometry" />
        </mxCell>
        <mxCell id="zXsgKNrJru0R8_roinGk-10" value="" style="edgeStyle=orthogonalEdgeStyle;rounded=0;orthogonalLoop=1;jettySize=auto;html=1;" edge="1" parent="1" source="zXsgKNrJru0R8_roinGk-5" target="zXsgKNrJru0R8_roinGk-9">
          <mxGeometry relative="1" as="geometry" />
        </mxCell>
        <mxCell id="zXsgKNrJru0R8_roinGk-5" value="Job Portal" style="whiteSpace=wrap;html=1;rounded=0;" vertex="1" parent="1">
          <mxGeometry x="540" y="790" width="120" height="60" as="geometry" />
        </mxCell>
        <mxCell id="zXsgKNrJru0R8_roinGk-7" value="Project Management" style="whiteSpace=wrap;html=1;rounded=0;" vertex="1" parent="1">
          <mxGeometry x="1140" y="790" width="120" height="60" as="geometry" />
        </mxCell>
        <mxCell id="zXsgKNrJru0R8_roinGk-9" value="CRM" style="whiteSpace=wrap;html=1;rounded=0;" vertex="1" parent="1">
          <mxGeometry x="340" y="790" width="120" height="60" as="geometry" />
        </mxCell>
      </root>
    </mxGraphModel>
  </diagram>
</mxfile>
